<?xml version="1.0" encoding="utf-8" standalone="no"?>
<!DOCTYPE svg PUBLIC "-//W3C//DTD SVG 1.1//EN"
  "http://www.w3.org/Graphics/SVG/1.1/DTD/svg11.dtd">
<svg xmlns:xlink="http://www.w3.org/1999/xlink" width="720pt" height="432pt" viewBox="0 0 720 432" xmlns="http://www.w3.org/2000/svg" version="1.1">
 <metadata>
  <rdf:RDF xmlns:dc="http://purl.org/dc/elements/1.1/" xmlns:cc="http://creativecommons.org/ns#" xmlns:rdf="http://www.w3.org/1999/02/22-rdf-syntax-ns#">
   <cc:Work>
    <dc:type rdf:resource="http://purl.org/dc/dcmitype/StillImage"/>
    <dc:date>2026-01-07T13:48:52.310060</dc:date>
    <dc:format>image/svg+xml</dc:format>
    <dc:creator>
     <cc:Agent>
      <dc:title>Matplotlib v3.10.8, https://matplotlib.org/</dc:title>
     </cc:Agent>
    </dc:creator>
   </cc:Work>
  </rdf:RDF>
 </metadata>
 <defs>
  <style type="text/css">*{stroke-linejoin: round; stroke-linecap: butt}</style>
 </defs>
 <g id="figure_1">
  <g id="patch_1">
   <path d="M 0 432 
L 720 432 
L 720 0 
L 0 0 
z
" style="fill: #ffffff"/>
  </g>
  <g id="axes_1">
   <g id="patch_2">
    <path d="M 42.886178 196.615385 
L 374.592969 196.615385 
L 374.592969 17.735865 
L 42.886178 17.735865 
z
" style="fill: #ffffff"/>
   </g>
   <g id="patch_3">
    <path d="M 51.178847 124.053382 
L 84.349526 124.053382 
L 84.349526 164.361548 
L 51.178847 164.361548 
z
" clip-path="url(#pa15e31baba)" style="fill: #7936bd; stroke: #000000; stroke-linejoin: miter"/>
   </g>
   <g id="patch_4">
    <path d="M 134.105545 124.053382 
L 167.276224 124.053382 
L 167.276224 108.635831 
L 134.105545 108.635831 
z
" clip-path="url(#pa15e31baba)" style="fill: #7936bd; stroke: #000000; stroke-linejoin: miter"/>
   </g>
   <g id="patch_5">
    <path d="M 217.032243 124.053382 
L 250.202922 124.053382 
L 250.202922 112.077784 
L 217.032243 112.077784 
z
" clip-path="url(#pa15e31baba)" style="fill: #7936bd; stroke: #000000; stroke-linejoin: miter"/>
   </g>
   <g id="patch_6">
    <path d="M 299.958941 124.053382 
L 333.12962 124.053382 
L 333.12962 157.107929 
L 299.958941 157.107929 
z
" clip-path="url(#pa15e31baba)" style="fill: #7936bd; stroke: #000000; stroke-linejoin: miter"/>
   </g>
   <g id="patch_7">
    <path d="M 84.349526 124.053382 
L 117.520206 124.053382 
L 117.520206 125.343563 
L 84.349526 125.343563 
z
" clip-path="url(#pa15e31baba)" style="fill: #c9941d; stroke: #000000; stroke-linejoin: miter"/>
   </g>
   <g id="patch_8">
    <path d="M 167.276224 124.053382 
L 200.446903 124.053382 
L 200.446903 141.846818 
L 167.276224 141.846818 
z
" clip-path="url(#pa15e31baba)" style="fill: #c9941d; stroke: #000000; stroke-linejoin: miter"/>
   </g>
   <g id="patch_9">
    <path d="M 250.202922 124.053382 
L 283.373601 124.053382 
L 283.373601 135.174397 
L 250.202922 135.174397 
z
" clip-path="url(#pa15e31baba)" style="fill: #c9941d; stroke: #000000; stroke-linejoin: miter"/>
   </g>
   <g id="patch_10">
    <path d="M 333.12962 124.053382 
L 366.300299 124.053382 
L 366.300299 121.271499 
L 333.12962 121.271499 
z
" clip-path="url(#pa15e31baba)" style="fill: #c9941d; stroke: #000000; stroke-linejoin: miter"/>
   </g>
   <g id="patch_11">
    <path d="M 84.349526 124.053382 
L 84.349526 124.053382 
L 84.349526 124.053382 
L 84.349526 124.053382 
z
" clip-path="url(#pa15e31baba)" style="fill: #7936bd; stroke: #000000; stroke-linejoin: miter"/>
   </g>
   <g id="patch_12">
    <path d="M 84.349526 124.053382 
L 84.349526 124.053382 
L 84.349526 124.053382 
L 84.349526 124.053382 
z
" clip-path="url(#pa15e31baba)" style="fill: #c9941d; stroke: #000000; stroke-linejoin: miter"/>
   </g>
   <g id="matplotlib.axis_1">
    <g id="xtick_1">
     <g id="line2d_1">
      <defs>
       <path id="ma23ba506eb" d="M 0 0 
L 0 3.5 
" style="stroke: #000000; stroke-width: 0.8"/>
      </defs>
      <g>
       <use xlink:href="#ma23ba506eb" x="84.349526" y="196.615385" style="stroke: #000000; stroke-width: 0.8"/>
      </g>
     </g>
     <g id="text_1">
      <!-- morgan_fp -->
      <g transform="translate(60.447964 210.895072) scale(0.1 -0.1)">
       <defs>
        <path id="ArialMT-6d" d="M 422 0 
L 422 3319 
L 925 3319 
L 925 2853 
Q 1081 3097 1340 3245 
Q 1600 3394 1931 3394 
Q 2300 3394 2536 3241 
Q 2772 3088 2869 2813 
Q 3263 3394 3894 3394 
Q 4388 3394 4653 3120 
Q 4919 2847 4919 2278 
L 4919 0 
L 4359 0 
L 4359 2091 
Q 4359 2428 4304 2576 
Q 4250 2725 4106 2815 
Q 3963 2906 3769 2906 
Q 3419 2906 3187 2673 
Q 2956 2441 2956 1928 
L 2956 0 
L 2394 0 
L 2394 2156 
Q 2394 2531 2256 2718 
Q 2119 2906 1806 2906 
Q 1569 2906 1367 2781 
Q 1166 2656 1075 2415 
Q 984 2175 984 1722 
L 984 0 
L 422 0 
z
" transform="scale(0.015625)"/>
        <path id="ArialMT-6f" d="M 213 1659 
Q 213 2581 725 3025 
Q 1153 3394 1769 3394 
Q 2453 3394 2887 2945 
Q 3322 2497 3322 1706 
Q 3322 1066 3130 698 
Q 2938 331 2570 128 
Q 2203 -75 1769 -75 
Q 1072 -75 642 372 
Q 213 819 213 1659 
z
M 791 1659 
Q 791 1022 1069 705 
Q 1347 388 1769 388 
Q 2188 388 2466 706 
Q 2744 1025 2744 1678 
Q 2744 2294 2464 2611 
Q 2184 2928 1769 2928 
Q 1347 2928 1069 2612 
Q 791 2297 791 1659 
z
" transform="scale(0.015625)"/>
        <path id="ArialMT-72" d="M 416 0 
L 416 3319 
L 922 3319 
L 922 2816 
Q 1116 3169 1280 3281 
Q 1444 3394 1641 3394 
Q 1925 3394 2219 3213 
L 2025 2691 
Q 1819 2813 1613 2813 
Q 1428 2813 1281 2702 
Q 1134 2591 1072 2394 
Q 978 2094 978 1738 
L 978 0 
L 416 0 
z
" transform="scale(0.015625)"/>
        <path id="ArialMT-67" d="M 319 -275 
L 866 -356 
Q 900 -609 1056 -725 
Q 1266 -881 1628 -881 
Q 2019 -881 2231 -725 
Q 2444 -569 2519 -288 
Q 2563 -116 2559 434 
Q 2191 0 1641 0 
Q 956 0 581 494 
Q 206 988 206 1678 
Q 206 2153 378 2554 
Q 550 2956 876 3175 
Q 1203 3394 1644 3394 
Q 2231 3394 2613 2919 
L 2613 3319 
L 3131 3319 
L 3131 450 
Q 3131 -325 2973 -648 
Q 2816 -972 2473 -1159 
Q 2131 -1347 1631 -1347 
Q 1038 -1347 672 -1080 
Q 306 -813 319 -275 
z
M 784 1719 
Q 784 1066 1043 766 
Q 1303 466 1694 466 
Q 2081 466 2343 764 
Q 2606 1063 2606 1700 
Q 2606 2309 2336 2618 
Q 2066 2928 1684 2928 
Q 1309 2928 1046 2623 
Q 784 2319 784 1719 
z
" transform="scale(0.015625)"/>
        <path id="ArialMT-61" d="M 2588 409 
Q 2275 144 1986 34 
Q 1697 -75 1366 -75 
Q 819 -75 525 192 
Q 231 459 231 875 
Q 231 1119 342 1320 
Q 453 1522 633 1644 
Q 813 1766 1038 1828 
Q 1203 1872 1538 1913 
Q 2219 1994 2541 2106 
Q 2544 2222 2544 2253 
Q 2544 2597 2384 2738 
Q 2169 2928 1744 2928 
Q 1347 2928 1158 2789 
Q 969 2650 878 2297 
L 328 2372 
Q 403 2725 575 2942 
Q 747 3159 1072 3276 
Q 1397 3394 1825 3394 
Q 2250 3394 2515 3294 
Q 2781 3194 2906 3042 
Q 3031 2891 3081 2659 
Q 3109 2516 3109 2141 
L 3109 1391 
Q 3109 606 3145 398 
Q 3181 191 3288 0 
L 2700 0 
Q 2613 175 2588 409 
z
M 2541 1666 
Q 2234 1541 1622 1453 
Q 1275 1403 1131 1340 
Q 988 1278 909 1158 
Q 831 1038 831 891 
Q 831 666 1001 516 
Q 1172 366 1500 366 
Q 1825 366 2078 508 
Q 2331 650 2450 897 
Q 2541 1088 2541 1459 
L 2541 1666 
z
" transform="scale(0.015625)"/>
        <path id="ArialMT-6e" d="M 422 0 
L 422 3319 
L 928 3319 
L 928 2847 
Q 1294 3394 1984 3394 
Q 2284 3394 2536 3286 
Q 2788 3178 2913 3003 
Q 3038 2828 3088 2588 
Q 3119 2431 3119 2041 
L 3119 0 
L 2556 0 
L 2556 2019 
Q 2556 2363 2490 2533 
Q 2425 2703 2258 2804 
Q 2091 2906 1866 2906 
Q 1506 2906 1245 2678 
Q 984 2450 984 1813 
L 984 0 
L 422 0 
z
" transform="scale(0.015625)"/>
        <path id="ArialMT-5f" d="M -97 -1272 
L -97 -866 
L 3631 -866 
L 3631 -1272 
L -97 -1272 
z
" transform="scale(0.015625)"/>
        <path id="ArialMT-66" d="M 556 0 
L 556 2881 
L 59 2881 
L 59 3319 
L 556 3319 
L 556 3672 
Q 556 4006 616 4169 
Q 697 4388 901 4523 
Q 1106 4659 1475 4659 
Q 1713 4659 2000 4603 
L 1916 4113 
Q 1741 4144 1584 4144 
Q 1328 4144 1222 4034 
Q 1116 3925 1116 3625 
L 1116 3319 
L 1763 3319 
L 1763 2881 
L 1116 2881 
L 1116 0 
L 556 0 
z
" transform="scale(0.015625)"/>
        <path id="ArialMT-70" d="M 422 -1272 
L 422 3319 
L 934 3319 
L 934 2888 
Q 1116 3141 1344 3267 
Q 1572 3394 1897 3394 
Q 2322 3394 2647 3175 
Q 2972 2956 3137 2557 
Q 3303 2159 3303 1684 
Q 3303 1175 3120 767 
Q 2938 359 2589 142 
Q 2241 -75 1856 -75 
Q 1575 -75 1351 44 
Q 1128 163 984 344 
L 984 -1272 
L 422 -1272 
z
M 931 1641 
Q 931 1000 1190 694 
Q 1450 388 1819 388 
Q 2194 388 2461 705 
Q 2728 1022 2728 1688 
Q 2728 2322 2467 2637 
Q 2206 2953 1844 2953 
Q 1484 2953 1207 2617 
Q 931 2281 931 1641 
z
" transform="scale(0.015625)"/>
       </defs>
       <use xlink:href="#ArialMT-6d"/>
       <use xlink:href="#ArialMT-6f" transform="translate(83.300781 0)"/>
       <use xlink:href="#ArialMT-72" transform="translate(138.916016 0)"/>
       <use xlink:href="#ArialMT-67" transform="translate(172.216797 0)"/>
       <use xlink:href="#ArialMT-61" transform="translate(227.832031 0)"/>
       <use xlink:href="#ArialMT-6e" transform="translate(283.447266 0)"/>
       <use xlink:href="#ArialMT-5f" transform="translate(339.0625 0)"/>
       <use xlink:href="#ArialMT-66" transform="translate(394.677734 0)"/>
       <use xlink:href="#ArialMT-70" transform="translate(422.460938 0)"/>
      </g>
     </g>
    </g>
    <g id="xtick_2">
     <g id="line2d_2">
      <g>
       <use xlink:href="#ma23ba506eb" x="167.276224" y="196.615385" style="stroke: #000000; stroke-width: 0.8"/>
      </g>
     </g>
     <g id="text_2">
      <!-- rdkit_desc -->
      <g transform="translate(144.489505 210.773198) scale(0.1 -0.1)">
       <defs>
        <path id="ArialMT-64" d="M 2575 0 
L 2575 419 
Q 2259 -75 1647 -75 
Q 1250 -75 917 144 
Q 584 363 401 755 
Q 219 1147 219 1656 
Q 219 2153 384 2558 
Q 550 2963 881 3178 
Q 1213 3394 1622 3394 
Q 1922 3394 2156 3267 
Q 2391 3141 2538 2938 
L 2538 4581 
L 3097 4581 
L 3097 0 
L 2575 0 
z
M 797 1656 
Q 797 1019 1065 703 
Q 1334 388 1700 388 
Q 2069 388 2326 689 
Q 2584 991 2584 1609 
Q 2584 2291 2321 2609 
Q 2059 2928 1675 2928 
Q 1300 2928 1048 2622 
Q 797 2316 797 1656 
z
" transform="scale(0.015625)"/>
        <path id="ArialMT-6b" d="M 425 0 
L 425 4581 
L 988 4581 
L 988 1969 
L 2319 3319 
L 3047 3319 
L 1778 2088 
L 3175 0 
L 2481 0 
L 1384 1697 
L 988 1316 
L 988 0 
L 425 0 
z
" transform="scale(0.015625)"/>
        <path id="ArialMT-69" d="M 425 3934 
L 425 4581 
L 988 4581 
L 988 3934 
L 425 3934 
z
M 425 0 
L 425 3319 
L 988 3319 
L 988 0 
L 425 0 
z
" transform="scale(0.015625)"/>
        <path id="ArialMT-74" d="M 1650 503 
L 1731 6 
Q 1494 -44 1306 -44 
Q 1000 -44 831 53 
Q 663 150 594 308 
Q 525 466 525 972 
L 525 2881 
L 113 2881 
L 113 3319 
L 525 3319 
L 525 4141 
L 1084 4478 
L 1084 3319 
L 1650 3319 
L 1650 2881 
L 1084 2881 
L 1084 941 
Q 1084 700 1114 631 
Q 1144 563 1211 522 
Q 1278 481 1403 481 
Q 1497 481 1650 503 
z
" transform="scale(0.015625)"/>
        <path id="ArialMT-65" d="M 2694 1069 
L 3275 997 
Q 3138 488 2766 206 
Q 2394 -75 1816 -75 
Q 1088 -75 661 373 
Q 234 822 234 1631 
Q 234 2469 665 2931 
Q 1097 3394 1784 3394 
Q 2450 3394 2872 2941 
Q 3294 2488 3294 1666 
Q 3294 1616 3291 1516 
L 816 1516 
Q 847 969 1125 678 
Q 1403 388 1819 388 
Q 2128 388 2347 550 
Q 2566 713 2694 1069 
z
M 847 1978 
L 2700 1978 
Q 2663 2397 2488 2606 
Q 2219 2931 1791 2931 
Q 1403 2931 1139 2672 
Q 875 2413 847 1978 
z
" transform="scale(0.015625)"/>
        <path id="ArialMT-73" d="M 197 991 
L 753 1078 
Q 800 744 1014 566 
Q 1228 388 1613 388 
Q 2000 388 2187 545 
Q 2375 703 2375 916 
Q 2375 1106 2209 1216 
Q 2094 1291 1634 1406 
Q 1016 1563 777 1677 
Q 538 1791 414 1992 
Q 291 2194 291 2438 
Q 291 2659 392 2848 
Q 494 3038 669 3163 
Q 800 3259 1026 3326 
Q 1253 3394 1513 3394 
Q 1903 3394 2198 3281 
Q 2494 3169 2634 2976 
Q 2775 2784 2828 2463 
L 2278 2388 
Q 2241 2644 2061 2787 
Q 1881 2931 1553 2931 
Q 1166 2931 1000 2803 
Q 834 2675 834 2503 
Q 834 2394 903 2306 
Q 972 2216 1119 2156 
Q 1203 2125 1616 2013 
Q 2213 1853 2448 1751 
Q 2684 1650 2818 1456 
Q 2953 1263 2953 975 
Q 2953 694 2789 445 
Q 2625 197 2315 61 
Q 2006 -75 1616 -75 
Q 969 -75 630 194 
Q 291 463 197 991 
z
" transform="scale(0.015625)"/>
        <path id="ArialMT-63" d="M 2588 1216 
L 3141 1144 
Q 3050 572 2676 248 
Q 2303 -75 1759 -75 
Q 1078 -75 664 370 
Q 250 816 250 1647 
Q 250 2184 428 2587 
Q 606 2991 970 3192 
Q 1334 3394 1763 3394 
Q 2303 3394 2647 3120 
Q 2991 2847 3088 2344 
L 2541 2259 
Q 2463 2594 2264 2762 
Q 2066 2931 1784 2931 
Q 1359 2931 1093 2626 
Q 828 2322 828 1663 
Q 828 994 1084 691 
Q 1341 388 1753 388 
Q 2084 388 2306 591 
Q 2528 794 2588 1216 
z
" transform="scale(0.015625)"/>
       </defs>
       <use xlink:href="#ArialMT-72"/>
       <use xlink:href="#ArialMT-64" transform="translate(33.300781 0)"/>
       <use xlink:href="#ArialMT-6b" transform="translate(88.916016 0)"/>
       <use xlink:href="#ArialMT-69" transform="translate(138.916016 0)"/>
       <use xlink:href="#ArialMT-74" transform="translate(161.132812 0)"/>
       <use xlink:href="#ArialMT-5f" transform="translate(188.916016 0)"/>
       <use xlink:href="#ArialMT-64" transform="translate(244.53125 0)"/>
       <use xlink:href="#ArialMT-65" transform="translate(300.146484 0)"/>
       <use xlink:href="#ArialMT-73" transform="translate(355.761719 0)"/>
       <use xlink:href="#ArialMT-63" transform="translate(405.761719 0)"/>
      </g>
     </g>
    </g>
    <g id="xtick_3">
     <g id="line2d_3">
      <g>
       <use xlink:href="#ma23ba506eb" x="250.202922" y="196.615385" style="stroke: #000000; stroke-width: 0.8"/>
      </g>
     </g>
     <g id="text_3">
      <!-- rdkit_frags -->
      <g transform="translate(226.862297 210.895072) scale(0.1 -0.1)">
       <use xlink:href="#ArialMT-72"/>
       <use xlink:href="#ArialMT-64" transform="translate(33.300781 0)"/>
       <use xlink:href="#ArialMT-6b" transform="translate(88.916016 0)"/>
       <use xlink:href="#ArialMT-69" transform="translate(138.916016 0)"/>
       <use xlink:href="#ArialMT-74" transform="translate(161.132812 0)"/>
       <use xlink:href="#ArialMT-5f" transform="translate(188.916016 0)"/>
       <use xlink:href="#ArialMT-66" transform="translate(244.53125 0)"/>
       <use xlink:href="#ArialMT-72" transform="translate(272.314453 0)"/>
       <use xlink:href="#ArialMT-61" transform="translate(305.615234 0)"/>
       <use xlink:href="#ArialMT-67" transform="translate(361.230469 0)"/>
       <use xlink:href="#ArialMT-73" transform="translate(416.845703 0)"/>
      </g>
     </g>
    </g>
    <g id="xtick_4">
     <g id="line2d_4">
      <g>
       <use xlink:href="#ma23ba506eb" x="333.12962" y="196.615385" style="stroke: #000000; stroke-width: 0.8"/>
      </g>
     </g>
     <g id="text_4">
      <!-- hybrid -->
      <g transform="translate(319.512432 210.773198) scale(0.1 -0.1)">
       <defs>
        <path id="ArialMT-68" d="M 422 0 
L 422 4581 
L 984 4581 
L 984 2938 
Q 1378 3394 1978 3394 
Q 2347 3394 2619 3248 
Q 2891 3103 3008 2847 
Q 3125 2591 3125 2103 
L 3125 0 
L 2563 0 
L 2563 2103 
Q 2563 2525 2380 2717 
Q 2197 2909 1863 2909 
Q 1613 2909 1392 2779 
Q 1172 2650 1078 2428 
Q 984 2206 984 1816 
L 984 0 
L 422 0 
z
" transform="scale(0.015625)"/>
        <path id="ArialMT-79" d="M 397 -1278 
L 334 -750 
Q 519 -800 656 -800 
Q 844 -800 956 -737 
Q 1069 -675 1141 -563 
Q 1194 -478 1313 -144 
Q 1328 -97 1363 -6 
L 103 3319 
L 709 3319 
L 1400 1397 
Q 1534 1031 1641 628 
Q 1738 1016 1872 1384 
L 2581 3319 
L 3144 3319 
L 1881 -56 
Q 1678 -603 1566 -809 
Q 1416 -1088 1222 -1217 
Q 1028 -1347 759 -1347 
Q 597 -1347 397 -1278 
z
" transform="scale(0.015625)"/>
        <path id="ArialMT-62" d="M 941 0 
L 419 0 
L 419 4581 
L 981 4581 
L 981 2947 
Q 1338 3394 1891 3394 
Q 2197 3394 2470 3270 
Q 2744 3147 2920 2923 
Q 3097 2700 3197 2384 
Q 3297 2069 3297 1709 
Q 3297 856 2875 390 
Q 2453 -75 1863 -75 
Q 1275 -75 941 416 
L 941 0 
z
M 934 1684 
Q 934 1088 1097 822 
Q 1363 388 1816 388 
Q 2184 388 2453 708 
Q 2722 1028 2722 1663 
Q 2722 2313 2464 2622 
Q 2206 2931 1841 2931 
Q 1472 2931 1203 2611 
Q 934 2291 934 1684 
z
" transform="scale(0.015625)"/>
       </defs>
       <use xlink:href="#ArialMT-68"/>
       <use xlink:href="#ArialMT-79" transform="translate(55.615234 0)"/>
       <use xlink:href="#ArialMT-62" transform="translate(105.615234 0)"/>
       <use xlink:href="#ArialMT-72" transform="translate(161.230469 0)"/>
       <use xlink:href="#ArialMT-69" transform="translate(194.53125 0)"/>
       <use xlink:href="#ArialMT-64" transform="translate(216.748047 0)"/>
      </g>
     </g>
    </g>
   </g>
   <g id="matplotlib.axis_2">
    <g id="ytick_1">
     <g id="line2d_5">
      <defs>
       <path id="m44fd75a4b2" d="M 0 0 
L -3.5 0 
" style="stroke: #000000; stroke-width: 0.8"/>
      </defs>
      <g>
       <use xlink:href="#m44fd75a4b2" x="42.886178" y="179.332924" style="stroke: #000000; stroke-width: 0.8"/>
      </g>
     </g>
     <g id="text_5">
      <!-- −0.4 -->
      <g transform="translate(16.145553 182.911831) scale(0.1 -0.1)">
       <defs>
        <path id="ArialMT-2212" d="M 3381 1997 
L 356 1997 
L 356 2522 
L 3381 2522 
L 3381 1997 
z
" transform="scale(0.015625)"/>
        <path id="ArialMT-30" d="M 266 2259 
Q 266 3072 433 3567 
Q 600 4063 929 4331 
Q 1259 4600 1759 4600 
Q 2128 4600 2406 4451 
Q 2684 4303 2865 4023 
Q 3047 3744 3150 3342 
Q 3253 2941 3253 2259 
Q 3253 1453 3087 958 
Q 2922 463 2592 192 
Q 2263 -78 1759 -78 
Q 1097 -78 719 397 
Q 266 969 266 2259 
z
M 844 2259 
Q 844 1131 1108 757 
Q 1372 384 1759 384 
Q 2147 384 2411 759 
Q 2675 1134 2675 2259 
Q 2675 3391 2411 3762 
Q 2147 4134 1753 4134 
Q 1366 4134 1134 3806 
Q 844 3388 844 2259 
z
" transform="scale(0.015625)"/>
        <path id="ArialMT-2e" d="M 581 0 
L 581 641 
L 1222 641 
L 1222 0 
L 581 0 
z
" transform="scale(0.015625)"/>
        <path id="ArialMT-34" d="M 2069 0 
L 2069 1097 
L 81 1097 
L 81 1613 
L 2172 4581 
L 2631 4581 
L 2631 1613 
L 3250 1613 
L 3250 1097 
L 2631 1097 
L 2631 0 
L 2069 0 
z
M 2069 1613 
L 2069 3678 
L 634 1613 
L 2069 1613 
z
" transform="scale(0.015625)"/>
       </defs>
       <use xlink:href="#ArialMT-2212"/>
       <use xlink:href="#ArialMT-30" transform="translate(58.398438 0)"/>
       <use xlink:href="#ArialMT-2e" transform="translate(114.013672 0)"/>
       <use xlink:href="#ArialMT-34" transform="translate(141.796875 0)"/>
      </g>
     </g>
    </g>
    <g id="ytick_2">
     <g id="line2d_6">
      <g>
       <use xlink:href="#m44fd75a4b2" x="42.886178" y="151.693153" style="stroke: #000000; stroke-width: 0.8"/>
      </g>
     </g>
     <g id="text_6">
      <!-- −0.2 -->
      <g transform="translate(16.145553 155.272059) scale(0.1 -0.1)">
       <defs>
        <path id="ArialMT-32" d="M 3222 541 
L 3222 0 
L 194 0 
Q 188 203 259 391 
Q 375 700 629 1000 
Q 884 1300 1366 1694 
Q 2113 2306 2375 2664 
Q 2638 3022 2638 3341 
Q 2638 3675 2398 3904 
Q 2159 4134 1775 4134 
Q 1369 4134 1125 3890 
Q 881 3647 878 3216 
L 300 3275 
Q 359 3922 746 4261 
Q 1134 4600 1788 4600 
Q 2447 4600 2831 4234 
Q 3216 3869 3216 3328 
Q 3216 3053 3103 2787 
Q 2991 2522 2730 2228 
Q 2469 1934 1863 1422 
Q 1356 997 1212 845 
Q 1069 694 975 541 
L 3222 541 
z
" transform="scale(0.015625)"/>
       </defs>
       <use xlink:href="#ArialMT-2212"/>
       <use xlink:href="#ArialMT-30" transform="translate(58.398438 0)"/>
       <use xlink:href="#ArialMT-2e" transform="translate(114.013672 0)"/>
       <use xlink:href="#ArialMT-32" transform="translate(141.796875 0)"/>
      </g>
     </g>
    </g>
    <g id="ytick_3">
     <g id="line2d_7">
      <g>
       <use xlink:href="#m44fd75a4b2" x="42.886178" y="124.053382" style="stroke: #000000; stroke-width: 0.8"/>
      </g>
     </g>
     <g id="text_7">
      <!-- 0.0 -->
      <g transform="translate(21.986178 127.632288) scale(0.1 -0.1)">
       <use xlink:href="#ArialMT-30"/>
       <use xlink:href="#ArialMT-2e" transform="translate(55.615234 0)"/>
       <use xlink:href="#ArialMT-30" transform="translate(83.398438 0)"/>
      </g>
     </g>
    </g>
    <g id="ytick_4">
     <g id="line2d_8">
      <g>
       <use xlink:href="#m44fd75a4b2" x="42.886178" y="96.413611" style="stroke: #000000; stroke-width: 0.8"/>
      </g>
     </g>
     <g id="text_8">
      <!-- 0.2 -->
      <g transform="translate(21.986178 99.992517) scale(0.1 -0.1)">
       <use xlink:href="#ArialMT-30"/>
       <use xlink:href="#ArialMT-2e" transform="translate(55.615234 0)"/>
       <use xlink:href="#ArialMT-32" transform="translate(83.398438 0)"/>
      </g>
     </g>
    </g>
    <g id="ytick_5">
     <g id="line2d_9">
      <g>
       <use xlink:href="#m44fd75a4b2" x="42.886178" y="68.77384" style="stroke: #000000; stroke-width: 0.8"/>
      </g>
     </g>
     <g id="text_9">
      <!-- 0.4 -->
      <g transform="translate(21.986178 72.352746) scale(0.1 -0.1)">
       <use xlink:href="#ArialMT-30"/>
       <use xlink:href="#ArialMT-2e" transform="translate(55.615234 0)"/>
       <use xlink:href="#ArialMT-34" transform="translate(83.398438 0)"/>
      </g>
     </g>
    </g>
    <g id="ytick_6">
     <g id="line2d_10">
      <g>
       <use xlink:href="#m44fd75a4b2" x="42.886178" y="41.134069" style="stroke: #000000; stroke-width: 0.8"/>
      </g>
     </g>
     <g id="text_10">
      <!-- 0.6 -->
      <g transform="translate(21.986178 44.712975) scale(0.1 -0.1)">
       <defs>
        <path id="ArialMT-36" d="M 3184 3459 
L 2625 3416 
Q 2550 3747 2413 3897 
Q 2184 4138 1850 4138 
Q 1581 4138 1378 3988 
Q 1113 3794 959 3422 
Q 806 3050 800 2363 
Q 1003 2672 1297 2822 
Q 1591 2972 1913 2972 
Q 2475 2972 2870 2558 
Q 3266 2144 3266 1488 
Q 3266 1056 3080 686 
Q 2894 316 2569 119 
Q 2244 -78 1831 -78 
Q 1128 -78 684 439 
Q 241 956 241 2144 
Q 241 3472 731 4075 
Q 1159 4600 1884 4600 
Q 2425 4600 2770 4297 
Q 3116 3994 3184 3459 
z
M 888 1484 
Q 888 1194 1011 928 
Q 1134 663 1356 523 
Q 1578 384 1822 384 
Q 2178 384 2434 671 
Q 2691 959 2691 1453 
Q 2691 1928 2437 2201 
Q 2184 2475 1800 2475 
Q 1419 2475 1153 2201 
Q 888 1928 888 1484 
z
" transform="scale(0.015625)"/>
       </defs>
       <use xlink:href="#ArialMT-30"/>
       <use xlink:href="#ArialMT-2e" transform="translate(55.615234 0)"/>
       <use xlink:href="#ArialMT-36" transform="translate(83.398438 0)"/>
      </g>
     </g>
    </g>
    <g id="text_11">
     <!-- R² -->
     <g transform="translate(10.158053 112.451406) rotate(-90) scale(0.1 -0.1)">
      <defs>
       <path id="ArialMT-52" d="M 503 0 
L 503 4581 
L 2534 4581 
Q 3147 4581 3465 4457 
Q 3784 4334 3975 4021 
Q 4166 3709 4166 3331 
Q 4166 2844 3850 2509 
Q 3534 2175 2875 2084 
Q 3116 1969 3241 1856 
Q 3506 1613 3744 1247 
L 4541 0 
L 3778 0 
L 3172 953 
Q 2906 1366 2734 1584 
Q 2563 1803 2427 1890 
Q 2291 1978 2150 2013 
Q 2047 2034 1813 2034 
L 1109 2034 
L 1109 0 
L 503 0 
z
M 1109 2559 
L 2413 2559 
Q 2828 2559 3062 2645 
Q 3297 2731 3419 2920 
Q 3541 3109 3541 3331 
Q 3541 3656 3305 3865 
Q 3069 4075 2559 4075 
L 1109 4075 
L 1109 2559 
z
" transform="scale(0.015625)"/>
       <path id="ArialMT-b2" d="M 78 2291 
Q 97 2469 225 2647 
Q 422 2916 872 3242 
Q 1322 3569 1406 3663 
Q 1522 3791 1522 3925 
Q 1522 4075 1412 4172 
Q 1303 4269 1091 4269 
Q 884 4269 782 4195 
Q 681 4122 616 3913 
L 144 3963 
Q 234 4309 457 4473 
Q 681 4638 1100 4638 
Q 1572 4638 1792 4453 
Q 2013 4269 2013 4003 
Q 2013 3741 1828 3506 
Q 1688 3331 1188 2972 
Q 928 2781 819 2669 
L 2025 2669 
L 2025 2291 
L 78 2291 
z
" transform="scale(0.015625)"/>
      </defs>
      <use xlink:href="#ArialMT-52"/>
      <use xlink:href="#ArialMT-b2" transform="translate(72.216797 0)"/>
     </g>
    </g>
   </g>
   <g id="line2d_11">
    <path d="M 63.617852 188.484498 
L 71.910522 188.484498 
M 67.764187 188.484498 
L 67.764187 140.238598 
M 63.617852 140.238598 
L 71.910522 140.238598 
" clip-path="url(#pa15e31baba)" style="fill: none; stroke: #424242; stroke-width: 0.8; stroke-linecap: square"/>
   </g>
   <g id="line2d_12">
    <path d="M 146.54455 119.524869 
L 154.83722 119.524869 
M 150.690885 119.524869 
L 150.690885 97.746793 
M 146.54455 97.746793 
L 154.83722 97.746793 
" clip-path="url(#pa15e31baba)" style="fill: none; stroke: #424242; stroke-width: 0.8; stroke-linecap: square"/>
   </g>
   <g id="line2d_13">
    <path d="M 229.471248 124.674273 
L 237.763917 124.674273 
M 233.617582 124.674273 
L 233.617582 99.481295 
M 229.471248 99.481295 
L 237.763917 99.481295 
" clip-path="url(#pa15e31baba)" style="fill: none; stroke: #424242; stroke-width: 0.8; stroke-linecap: square"/>
   </g>
   <g id="line2d_14">
    <path d="M 312.397945 183.448711 
L 320.690615 183.448711 
M 316.54428 183.448711 
L 316.54428 130.767147 
M 312.397945 130.767147 
L 320.690615 130.767147 
" clip-path="url(#pa15e31baba)" style="fill: none; stroke: #424242; stroke-width: 0.8; stroke-linecap: square"/>
   </g>
   <g id="line2d_15">
    <path d="M 96.788531 142.033746 
L 105.081201 142.033746 
M 100.934866 142.033746 
L 100.934866 108.653379 
M 96.788531 108.653379 
L 105.081201 108.653379 
" clip-path="url(#pa15e31baba)" style="fill: none; stroke: #424242; stroke-width: 0.8; stroke-linecap: square"/>
   </g>
   <g id="line2d_16">
    <path d="M 179.715229 165.489576 
L 188.007899 165.489576 
M 183.861564 165.489576 
L 183.861564 118.20406 
M 179.715229 118.20406 
L 188.007899 118.20406 
" clip-path="url(#pa15e31baba)" style="fill: none; stroke: #424242; stroke-width: 0.8; stroke-linecap: square"/>
   </g>
   <g id="line2d_17">
    <path d="M 262.641927 158.200556 
L 270.934596 158.200556 
M 266.788262 158.200556 
L 266.788262 112.148238 
M 262.641927 112.148238 
L 270.934596 112.148238 
" clip-path="url(#pa15e31baba)" style="fill: none; stroke: #424242; stroke-width: 0.8; stroke-linecap: square"/>
   </g>
   <g id="line2d_18">
    <path d="M 345.568625 134.824876 
L 353.861294 134.824876 
M 349.714959 134.824876 
L 349.714959 107.718123 
M 345.568625 107.718123 
L 353.861294 107.718123 
" clip-path="url(#pa15e31baba)" style="fill: none; stroke: #424242; stroke-width: 0.8; stroke-linecap: square"/>
   </g>
   <g id="patch_13">
    <path d="M 42.886178 196.615385 
L 42.886178 17.735865 
" style="fill: none; stroke: #000000; stroke-width: 0.8; stroke-linejoin: miter; stroke-linecap: square"/>
   </g>
   <g id="patch_14">
    <path d="M 374.592969 196.615385 
L 374.592969 17.735865 
" style="fill: none; stroke: #000000; stroke-width: 0.8; stroke-linejoin: miter; stroke-linecap: square"/>
   </g>
   <g id="patch_15">
    <path d="M 42.886178 196.615385 
L 374.592969 196.615385 
" style="fill: none; stroke: #000000; stroke-width: 0.8; stroke-linejoin: miter; stroke-linecap: square"/>
   </g>
   <g id="patch_16">
    <path d="M 42.886178 17.735865 
L 374.592969 17.735865 
" style="fill: none; stroke: #000000; stroke-width: 0.8; stroke-linejoin: miter; stroke-linecap: square"/>
   </g>
   <g id="text_12">
    <!-- pIC50 MERS: CV R² -->
    <g transform="translate(154.060823 11.735865) scale(0.12 -0.12)">
     <defs>
      <path id="ArialMT-49" d="M 597 0 
L 597 4581 
L 1203 4581 
L 1203 0 
L 597 0 
z
" transform="scale(0.015625)"/>
      <path id="ArialMT-43" d="M 3763 1606 
L 4369 1453 
Q 4178 706 3683 314 
Q 3188 -78 2472 -78 
Q 1731 -78 1267 223 
Q 803 525 561 1097 
Q 319 1669 319 2325 
Q 319 3041 592 3573 
Q 866 4106 1370 4382 
Q 1875 4659 2481 4659 
Q 3169 4659 3637 4309 
Q 4106 3959 4291 3325 
L 3694 3184 
Q 3534 3684 3231 3912 
Q 2928 4141 2469 4141 
Q 1941 4141 1586 3887 
Q 1231 3634 1087 3207 
Q 944 2781 944 2328 
Q 944 1744 1114 1308 
Q 1284 872 1643 656 
Q 2003 441 2422 441 
Q 2931 441 3284 734 
Q 3638 1028 3763 1606 
z
" transform="scale(0.015625)"/>
      <path id="ArialMT-35" d="M 266 1200 
L 856 1250 
Q 922 819 1161 601 
Q 1400 384 1738 384 
Q 2144 384 2425 690 
Q 2706 997 2706 1503 
Q 2706 1984 2436 2262 
Q 2166 2541 1728 2541 
Q 1456 2541 1237 2417 
Q 1019 2294 894 2097 
L 366 2166 
L 809 4519 
L 3088 4519 
L 3088 3981 
L 1259 3981 
L 1013 2750 
Q 1425 3038 1878 3038 
Q 2478 3038 2890 2622 
Q 3303 2206 3303 1553 
Q 3303 931 2941 478 
Q 2500 -78 1738 -78 
Q 1113 -78 717 272 
Q 322 622 266 1200 
z
" transform="scale(0.015625)"/>
      <path id="ArialMT-20" transform="scale(0.015625)"/>
      <path id="ArialMT-4d" d="M 475 0 
L 475 4581 
L 1388 4581 
L 2472 1338 
Q 2622 884 2691 659 
Q 2769 909 2934 1394 
L 4031 4581 
L 4847 4581 
L 4847 0 
L 4263 0 
L 4263 3834 
L 2931 0 
L 2384 0 
L 1059 3900 
L 1059 0 
L 475 0 
z
" transform="scale(0.015625)"/>
      <path id="ArialMT-45" d="M 506 0 
L 506 4581 
L 3819 4581 
L 3819 4041 
L 1113 4041 
L 1113 2638 
L 3647 2638 
L 3647 2100 
L 1113 2100 
L 1113 541 
L 3925 541 
L 3925 0 
L 506 0 
z
" transform="scale(0.015625)"/>
      <path id="ArialMT-53" d="M 288 1472 
L 859 1522 
Q 900 1178 1048 958 
Q 1197 738 1509 602 
Q 1822 466 2213 466 
Q 2559 466 2825 569 
Q 3091 672 3220 851 
Q 3350 1031 3350 1244 
Q 3350 1459 3225 1620 
Q 3100 1781 2813 1891 
Q 2628 1963 1997 2114 
Q 1366 2266 1113 2400 
Q 784 2572 623 2826 
Q 463 3081 463 3397 
Q 463 3744 659 4045 
Q 856 4347 1234 4503 
Q 1613 4659 2075 4659 
Q 2584 4659 2973 4495 
Q 3363 4331 3572 4012 
Q 3781 3694 3797 3291 
L 3216 3247 
Q 3169 3681 2898 3903 
Q 2628 4125 2100 4125 
Q 1550 4125 1298 3923 
Q 1047 3722 1047 3438 
Q 1047 3191 1225 3031 
Q 1400 2872 2139 2705 
Q 2878 2538 3153 2413 
Q 3553 2228 3743 1945 
Q 3934 1663 3934 1294 
Q 3934 928 3725 604 
Q 3516 281 3123 101 
Q 2731 -78 2241 -78 
Q 1619 -78 1198 103 
Q 778 284 539 648 
Q 300 1013 288 1472 
z
" transform="scale(0.015625)"/>
      <path id="ArialMT-3a" d="M 578 2678 
L 578 3319 
L 1219 3319 
L 1219 2678 
L 578 2678 
z
M 578 0 
L 578 641 
L 1219 641 
L 1219 0 
L 578 0 
z
" transform="scale(0.015625)"/>
      <path id="ArialMT-56" d="M 1803 0 
L 28 4581 
L 684 4581 
L 1875 1253 
Q 2019 853 2116 503 
Q 2222 878 2363 1253 
L 3600 4581 
L 4219 4581 
L 2425 0 
L 1803 0 
z
" transform="scale(0.015625)"/>
     </defs>
     <use xlink:href="#ArialMT-70"/>
     <use xlink:href="#ArialMT-49" transform="translate(55.615234 0)"/>
     <use xlink:href="#ArialMT-43" transform="translate(83.398438 0)"/>
     <use xlink:href="#ArialMT-35" transform="translate(155.615234 0)"/>
     <use xlink:href="#ArialMT-30" transform="translate(211.230469 0)"/>
     <use xlink:href="#ArialMT-20" transform="translate(266.845703 0)"/>
     <use xlink:href="#ArialMT-4d" transform="translate(294.628906 0)"/>
     <use xlink:href="#ArialMT-45" transform="translate(377.929688 0)"/>
     <use xlink:href="#ArialMT-52" transform="translate(444.628906 0)"/>
     <use xlink:href="#ArialMT-53" transform="translate(516.845703 0)"/>
     <use xlink:href="#ArialMT-3a" transform="translate(583.544922 0)"/>
     <use xlink:href="#ArialMT-20" transform="translate(611.328125 0)"/>
     <use xlink:href="#ArialMT-43" transform="translate(639.111328 0)"/>
     <use xlink:href="#ArialMT-56" transform="translate(711.328125 0)"/>
     <use xlink:href="#ArialMT-20" transform="translate(778.027344 0)"/>
     <use xlink:href="#ArialMT-52" transform="translate(805.810547 0)"/>
     <use xlink:href="#ArialMT-b2" transform="translate(878.027344 0)"/>
    </g>
   </g>
  </g>
  <g id="axes_2">
   <g id="patch_17">
    <path d="M 385.292969 196.615385 
L 716.99976 196.615385 
L 716.99976 17.735865 
L 385.292969 17.735865 
z
" style="fill: #ffffff"/>
   </g>
   <g id="patch_18">
    <path d="M 393.585639 124.053382 
L 426.756318 124.053382 
L 426.756318 71.039627 
L 393.585639 71.039627 
z
" clip-path="url(#p43113f77b5)" style="fill: #7936bd; stroke: #000000; stroke-linejoin: miter"/>
   </g>
   <g id="patch_19">
    <path d="M 476.512336 124.053382 
L 509.683015 124.053382 
L 509.683015 69.701591 
L 476.512336 69.701591 
z
" clip-path="url(#p43113f77b5)" style="fill: #7936bd; stroke: #000000; stroke-linejoin: miter"/>
   </g>
   <g id="patch_20">
    <path d="M 559.439034 124.053382 
L 592.609713 124.053382 
L 592.609713 64.131836 
L 559.439034 64.131836 
z
" clip-path="url(#p43113f77b5)" style="fill: #7936bd; stroke: #000000; stroke-linejoin: miter"/>
   </g>
   <g id="patch_21">
    <path d="M 642.365732 124.053382 
L 675.536411 124.053382 
L 675.536411 72.763573 
L 642.365732 72.763573 
z
" clip-path="url(#p43113f77b5)" style="fill: #7936bd; stroke: #000000; stroke-linejoin: miter"/>
   </g>
   <g id="patch_22">
    <path d="M 426.756318 124.053382 
L 459.926997 124.053382 
L 459.926997 45.439715 
L 426.756318 45.439715 
z
" clip-path="url(#p43113f77b5)" style="fill: #c9941d; stroke: #000000; stroke-linejoin: miter"/>
   </g>
   <g id="patch_23">
    <path d="M 509.683015 124.053382 
L 542.853695 124.053382 
L 542.853695 60.17515 
L 509.683015 60.17515 
z
" clip-path="url(#p43113f77b5)" style="fill: #c9941d; stroke: #000000; stroke-linejoin: miter"/>
   </g>
   <g id="patch_24">
    <path d="M 592.609713 124.053382 
L 625.780392 124.053382 
L 625.780392 45.804779 
L 592.609713 45.804779 
z
" clip-path="url(#p43113f77b5)" style="fill: #c9941d; stroke: #000000; stroke-linejoin: miter"/>
   </g>
   <g id="patch_25">
    <path d="M 675.536411 124.053382 
L 708.70709 124.053382 
L 708.70709 35.348591 
L 675.536411 35.348591 
z
" clip-path="url(#p43113f77b5)" style="fill: #c9941d; stroke: #000000; stroke-linejoin: miter"/>
   </g>
   <g id="patch_26">
    <path d="M 426.756318 124.053382 
L 426.756318 124.053382 
L 426.756318 124.053382 
L 426.756318 124.053382 
z
" clip-path="url(#p43113f77b5)" style="fill: #7936bd; stroke: #000000; stroke-linejoin: miter"/>
   </g>
   <g id="patch_27">
    <path d="M 426.756318 124.053382 
L 426.756318 124.053382 
L 426.756318 124.053382 
L 426.756318 124.053382 
z
" clip-path="url(#p43113f77b5)" style="fill: #c9941d; stroke: #000000; stroke-linejoin: miter"/>
   </g>
   <g id="matplotlib.axis_3">
    <g id="xtick_5">
     <g id="line2d_19">
      <g>
       <use xlink:href="#ma23ba506eb" x="426.756318" y="196.615385" style="stroke: #000000; stroke-width: 0.8"/>
      </g>
     </g>
     <g id="text_13">
      <!-- morgan_fp -->
      <g transform="translate(402.854755 210.895072) scale(0.1 -0.1)">
       <use xlink:href="#ArialMT-6d"/>
       <use xlink:href="#ArialMT-6f" transform="translate(83.300781 0)"/>
       <use xlink:href="#ArialMT-72" transform="translate(138.916016 0)"/>
       <use xlink:href="#ArialMT-67" transform="translate(172.216797 0)"/>
       <use xlink:href="#ArialMT-61" transform="translate(227.832031 0)"/>
       <use xlink:href="#ArialMT-6e" transform="translate(283.447266 0)"/>
       <use xlink:href="#ArialMT-5f" transform="translate(339.0625 0)"/>
       <use xlink:href="#ArialMT-66" transform="translate(394.677734 0)"/>
       <use xlink:href="#ArialMT-70" transform="translate(422.460938 0)"/>
      </g>
     </g>
    </g>
    <g id="xtick_6">
     <g id="line2d_20">
      <g>
       <use xlink:href="#ma23ba506eb" x="509.683015" y="196.615385" style="stroke: #000000; stroke-width: 0.8"/>
      </g>
     </g>
     <g id="text_14">
      <!-- rdkit_desc -->
      <g transform="translate(486.896297 210.773198) scale(0.1 -0.1)">
       <use xlink:href="#ArialMT-72"/>
       <use xlink:href="#ArialMT-64" transform="translate(33.300781 0)"/>
       <use xlink:href="#ArialMT-6b" transform="translate(88.916016 0)"/>
       <use xlink:href="#ArialMT-69" transform="translate(138.916016 0)"/>
       <use xlink:href="#ArialMT-74" transform="translate(161.132812 0)"/>
       <use xlink:href="#ArialMT-5f" transform="translate(188.916016 0)"/>
       <use xlink:href="#ArialMT-64" transform="translate(244.53125 0)"/>
       <use xlink:href="#ArialMT-65" transform="translate(300.146484 0)"/>
       <use xlink:href="#ArialMT-73" transform="translate(355.761719 0)"/>
       <use xlink:href="#ArialMT-63" transform="translate(405.761719 0)"/>
      </g>
     </g>
    </g>
    <g id="xtick_7">
     <g id="line2d_21">
      <g>
       <use xlink:href="#ma23ba506eb" x="592.609713" y="196.615385" style="stroke: #000000; stroke-width: 0.8"/>
      </g>
     </g>
     <g id="text_15">
      <!-- rdkit_frags -->
      <g transform="translate(569.269088 210.895072) scale(0.1 -0.1)">
       <use xlink:href="#ArialMT-72"/>
       <use xlink:href="#ArialMT-64" transform="translate(33.300781 0)"/>
       <use xlink:href="#ArialMT-6b" transform="translate(88.916016 0)"/>
       <use xlink:href="#ArialMT-69" transform="translate(138.916016 0)"/>
       <use xlink:href="#ArialMT-74" transform="translate(161.132812 0)"/>
       <use xlink:href="#ArialMT-5f" transform="translate(188.916016 0)"/>
       <use xlink:href="#ArialMT-66" transform="translate(244.53125 0)"/>
       <use xlink:href="#ArialMT-72" transform="translate(272.314453 0)"/>
       <use xlink:href="#ArialMT-61" transform="translate(305.615234 0)"/>
       <use xlink:href="#ArialMT-67" transform="translate(361.230469 0)"/>
       <use xlink:href="#ArialMT-73" transform="translate(416.845703 0)"/>
      </g>
     </g>
    </g>
    <g id="xtick_8">
     <g id="line2d_22">
      <g>
       <use xlink:href="#ma23ba506eb" x="675.536411" y="196.615385" style="stroke: #000000; stroke-width: 0.8"/>
      </g>
     </g>
     <g id="text_16">
      <!-- hybrid -->
      <g transform="translate(661.919224 210.773198) scale(0.1 -0.1)">
       <use xlink:href="#ArialMT-68"/>
       <use xlink:href="#ArialMT-79" transform="translate(55.615234 0)"/>
       <use xlink:href="#ArialMT-62" transform="translate(105.615234 0)"/>
       <use xlink:href="#ArialMT-72" transform="translate(161.230469 0)"/>
       <use xlink:href="#ArialMT-69" transform="translate(194.53125 0)"/>
       <use xlink:href="#ArialMT-64" transform="translate(216.748047 0)"/>
      </g>
     </g>
    </g>
   </g>
   <g id="matplotlib.axis_4">
    <g id="ytick_7">
     <g id="line2d_23">
      <g>
       <use xlink:href="#m44fd75a4b2" x="385.292969" y="179.332924" style="stroke: #000000; stroke-width: 0.8"/>
      </g>
     </g>
    </g>
    <g id="ytick_8">
     <g id="line2d_24">
      <g>
       <use xlink:href="#m44fd75a4b2" x="385.292969" y="151.693153" style="stroke: #000000; stroke-width: 0.8"/>
      </g>
     </g>
    </g>
    <g id="ytick_9">
     <g id="line2d_25">
      <g>
       <use xlink:href="#m44fd75a4b2" x="385.292969" y="124.053382" style="stroke: #000000; stroke-width: 0.8"/>
      </g>
     </g>
    </g>
    <g id="ytick_10">
     <g id="line2d_26">
      <g>
       <use xlink:href="#m44fd75a4b2" x="385.292969" y="96.413611" style="stroke: #000000; stroke-width: 0.8"/>
      </g>
     </g>
    </g>
    <g id="ytick_11">
     <g id="line2d_27">
      <g>
       <use xlink:href="#m44fd75a4b2" x="385.292969" y="68.77384" style="stroke: #000000; stroke-width: 0.8"/>
      </g>
     </g>
    </g>
    <g id="ytick_12">
     <g id="line2d_28">
      <g>
       <use xlink:href="#m44fd75a4b2" x="385.292969" y="41.134069" style="stroke: #000000; stroke-width: 0.8"/>
      </g>
     </g>
    </g>
   </g>
   <g id="line2d_29">
    <path d="M 406.024643 88.526124 
L 414.317313 88.526124 
M 410.170978 88.526124 
L 410.170978 53.553129 
M 406.024643 53.553129 
L 414.317313 53.553129 
" clip-path="url(#p43113f77b5)" style="fill: none; stroke: #424242; stroke-width: 0.8; stroke-linecap: square"/>
   </g>
   <g id="line2d_30">
    <path d="M 488.951341 81.259317 
L 497.244011 81.259317 
M 493.097676 81.259317 
L 493.097676 58.143864 
M 488.951341 58.143864 
L 497.244011 58.143864 
" clip-path="url(#p43113f77b5)" style="fill: none; stroke: #424242; stroke-width: 0.8; stroke-linecap: square"/>
   </g>
   <g id="line2d_31">
    <path d="M 571.878039 77.00156 
L 580.170709 77.00156 
M 576.024374 77.00156 
L 576.024374 51.262112 
M 571.878039 51.262112 
L 580.170709 51.262112 
" clip-path="url(#p43113f77b5)" style="fill: none; stroke: #424242; stroke-width: 0.8; stroke-linecap: square"/>
   </g>
   <g id="line2d_32">
    <path d="M 654.804737 88.824282 
L 663.097406 88.824282 
M 658.951072 88.824282 
L 658.951072 56.702864 
M 654.804737 56.702864 
L 663.097406 56.702864 
" clip-path="url(#p43113f77b5)" style="fill: none; stroke: #424242; stroke-width: 0.8; stroke-linecap: square"/>
   </g>
   <g id="line2d_33">
    <path d="M 439.195322 56.55592 
L 447.487992 56.55592 
M 443.341657 56.55592 
L 443.341657 34.32351 
M 439.195322 34.32351 
L 447.487992 34.32351 
" clip-path="url(#p43113f77b5)" style="fill: none; stroke: #424242; stroke-width: 0.8; stroke-linecap: square"/>
   </g>
   <g id="line2d_34">
    <path d="M 522.12202 74.253026 
L 530.41469 74.253026 
M 526.268355 74.253026 
L 526.268355 46.097274 
M 522.12202 46.097274 
L 530.41469 46.097274 
" clip-path="url(#p43113f77b5)" style="fill: none; stroke: #424242; stroke-width: 0.8; stroke-linecap: square"/>
   </g>
   <g id="line2d_35">
    <path d="M 605.048718 56.027695 
L 613.341388 56.027695 
M 609.195053 56.027695 
L 609.195053 35.581862 
M 605.048718 35.581862 
L 613.341388 35.581862 
" clip-path="url(#p43113f77b5)" style="fill: none; stroke: #424242; stroke-width: 0.8; stroke-linecap: square"/>
   </g>
   <g id="line2d_36">
    <path d="M 687.975416 44.830431 
L 696.268086 44.830431 
M 692.121751 44.830431 
L 692.121751 25.866752 
M 687.975416 25.866752 
L 696.268086 25.866752 
" clip-path="url(#p43113f77b5)" style="fill: none; stroke: #424242; stroke-width: 0.8; stroke-linecap: square"/>
   </g>
   <g id="patch_28">
    <path d="M 385.292969 196.615385 
L 385.292969 17.735865 
" style="fill: none; stroke: #000000; stroke-width: 0.8; stroke-linejoin: miter; stroke-linecap: square"/>
   </g>
   <g id="patch_29">
    <path d="M 716.99976 196.615385 
L 716.99976 17.735865 
" style="fill: none; stroke: #000000; stroke-width: 0.8; stroke-linejoin: miter; stroke-linecap: square"/>
   </g>
   <g id="patch_30">
    <path d="M 385.292969 196.615385 
L 716.99976 196.615385 
" style="fill: none; stroke: #000000; stroke-width: 0.8; stroke-linejoin: miter; stroke-linecap: square"/>
   </g>
   <g id="patch_31">
    <path d="M 385.292969 17.735865 
L 716.99976 17.735865 
" style="fill: none; stroke: #000000; stroke-width: 0.8; stroke-linejoin: miter; stroke-linecap: square"/>
   </g>
   <g id="text_17">
    <!-- pIC50 SARS: CV R² -->
    <g transform="translate(497.463239 11.735865) scale(0.12 -0.12)">
     <defs>
      <path id="ArialMT-41" d="M -9 0 
L 1750 4581 
L 2403 4581 
L 4278 0 
L 3588 0 
L 3053 1388 
L 1138 1388 
L 634 0 
L -9 0 
z
M 1313 1881 
L 2866 1881 
L 2388 3150 
Q 2169 3728 2063 4100 
Q 1975 3659 1816 3225 
L 1313 1881 
z
" transform="scale(0.015625)"/>
     </defs>
     <use xlink:href="#ArialMT-70"/>
     <use xlink:href="#ArialMT-49" transform="translate(55.615234 0)"/>
     <use xlink:href="#ArialMT-43" transform="translate(83.398438 0)"/>
     <use xlink:href="#ArialMT-35" transform="translate(155.615234 0)"/>
     <use xlink:href="#ArialMT-30" transform="translate(211.230469 0)"/>
     <use xlink:href="#ArialMT-20" transform="translate(266.845703 0)"/>
     <use xlink:href="#ArialMT-53" transform="translate(294.628906 0)"/>
     <use xlink:href="#ArialMT-41" transform="translate(361.328125 0)"/>
     <use xlink:href="#ArialMT-52" transform="translate(428.027344 0)"/>
     <use xlink:href="#ArialMT-53" transform="translate(500.244141 0)"/>
     <use xlink:href="#ArialMT-3a" transform="translate(566.943359 0)"/>
     <use xlink:href="#ArialMT-20" transform="translate(594.726562 0)"/>
     <use xlink:href="#ArialMT-43" transform="translate(622.509766 0)"/>
     <use xlink:href="#ArialMT-56" transform="translate(694.726562 0)"/>
     <use xlink:href="#ArialMT-20" transform="translate(761.425781 0)"/>
     <use xlink:href="#ArialMT-52" transform="translate(789.208984 0)"/>
     <use xlink:href="#ArialMT-b2" transform="translate(861.425781 0)"/>
    </g>
   </g>
  </g>
  <g id="axes_3">
   <g id="patch_32">
    <path d="M 42.886178 412.615385 
L 374.592969 412.615385 
L 374.592969 233.735865 
L 42.886178 233.735865 
z
" style="fill: #ffffff"/>
   </g>
   <g id="patch_33">
    <path d="M 51.178847 412.615385 
L 84.349526 412.615385 
L 84.349526 255.195482 
L 51.178847 255.195482 
z
" clip-path="url(#p0ddb865fc3)" style="fill: #7936bd; stroke: #000000; stroke-linejoin: miter"/>
   </g>
   <g id="patch_34">
    <path d="M 134.105545 412.615385 
L 167.276224 412.615385 
L 167.276224 287.206621 
L 134.105545 287.206621 
z
" clip-path="url(#p0ddb865fc3)" style="fill: #7936bd; stroke: #000000; stroke-linejoin: miter"/>
   </g>
   <g id="patch_35">
    <path d="M 217.032243 412.615385 
L 250.202922 412.615385 
L 250.202922 281.60805 
L 217.032243 281.60805 
z
" clip-path="url(#p0ddb865fc3)" style="fill: #7936bd; stroke: #000000; stroke-linejoin: miter"/>
   </g>
   <g id="patch_36">
    <path d="M 299.958941 412.615385 
L 333.12962 412.615385 
L 333.12962 258.078267 
L 299.958941 258.078267 
z
" clip-path="url(#p0ddb865fc3)" style="fill: #7936bd; stroke: #000000; stroke-linejoin: miter"/>
   </g>
   <g id="patch_37">
    <path d="M 84.349526 412.615385 
L 117.520206 412.615385 
L 117.520206 287.358813 
L 84.349526 287.358813 
z
" clip-path="url(#p0ddb865fc3)" style="fill: #c9941d; stroke: #000000; stroke-linejoin: miter"/>
   </g>
   <g id="patch_38">
    <path d="M 167.276224 412.615385 
L 200.446903 412.615385 
L 200.446903 277.85955 
L 167.276224 277.85955 
z
" clip-path="url(#p0ddb865fc3)" style="fill: #c9941d; stroke: #000000; stroke-linejoin: miter"/>
   </g>
   <g id="patch_39">
    <path d="M 250.202922 412.615385 
L 283.373601 412.615385 
L 283.373601 283.804628 
L 250.202922 283.804628 
z
" clip-path="url(#p0ddb865fc3)" style="fill: #c9941d; stroke: #000000; stroke-linejoin: miter"/>
   </g>
   <g id="patch_40">
    <path d="M 333.12962 412.615385 
L 366.300299 412.615385 
L 366.300299 289.159231 
L 333.12962 289.159231 
z
" clip-path="url(#p0ddb865fc3)" style="fill: #c9941d; stroke: #000000; stroke-linejoin: miter"/>
   </g>
   <g id="patch_41">
    <path d="M 84.349526 412.615385 
L 84.349526 412.615385 
L 84.349526 412.615385 
L 84.349526 412.615385 
z
" clip-path="url(#p0ddb865fc3)" style="fill: #7936bd; stroke: #000000; stroke-linejoin: miter"/>
   </g>
   <g id="patch_42">
    <path d="M 84.349526 412.615385 
L 84.349526 412.615385 
L 84.349526 412.615385 
L 84.349526 412.615385 
z
" clip-path="url(#p0ddb865fc3)" style="fill: #c9941d; stroke: #000000; stroke-linejoin: miter"/>
   </g>
   <g id="matplotlib.axis_5">
    <g id="xtick_9">
     <g id="line2d_37">
      <g>
       <use xlink:href="#ma23ba506eb" x="84.349526" y="412.615385" style="stroke: #000000; stroke-width: 0.8"/>
      </g>
     </g>
     <g id="text_18">
      <!-- morgan_fp -->
      <g transform="translate(60.447964 426.895073) scale(0.1 -0.1)">
       <use xlink:href="#ArialMT-6d"/>
       <use xlink:href="#ArialMT-6f" transform="translate(83.300781 0)"/>
       <use xlink:href="#ArialMT-72" transform="translate(138.916016 0)"/>
       <use xlink:href="#ArialMT-67" transform="translate(172.216797 0)"/>
       <use xlink:href="#ArialMT-61" transform="translate(227.832031 0)"/>
       <use xlink:href="#ArialMT-6e" transform="translate(283.447266 0)"/>
       <use xlink:href="#ArialMT-5f" transform="translate(339.0625 0)"/>
       <use xlink:href="#ArialMT-66" transform="translate(394.677734 0)"/>
       <use xlink:href="#ArialMT-70" transform="translate(422.460938 0)"/>
      </g>
     </g>
    </g>
    <g id="xtick_10">
     <g id="line2d_38">
      <g>
       <use xlink:href="#ma23ba506eb" x="167.276224" y="412.615385" style="stroke: #000000; stroke-width: 0.8"/>
      </g>
     </g>
     <g id="text_19">
      <!-- rdkit_desc -->
      <g transform="translate(144.489505 426.773197) scale(0.1 -0.1)">
       <use xlink:href="#ArialMT-72"/>
       <use xlink:href="#ArialMT-64" transform="translate(33.300781 0)"/>
       <use xlink:href="#ArialMT-6b" transform="translate(88.916016 0)"/>
       <use xlink:href="#ArialMT-69" transform="translate(138.916016 0)"/>
       <use xlink:href="#ArialMT-74" transform="translate(161.132812 0)"/>
       <use xlink:href="#ArialMT-5f" transform="translate(188.916016 0)"/>
       <use xlink:href="#ArialMT-64" transform="translate(244.53125 0)"/>
       <use xlink:href="#ArialMT-65" transform="translate(300.146484 0)"/>
       <use xlink:href="#ArialMT-73" transform="translate(355.761719 0)"/>
       <use xlink:href="#ArialMT-63" transform="translate(405.761719 0)"/>
      </g>
     </g>
    </g>
    <g id="xtick_11">
     <g id="line2d_39">
      <g>
       <use xlink:href="#ma23ba506eb" x="250.202922" y="412.615385" style="stroke: #000000; stroke-width: 0.8"/>
      </g>
     </g>
     <g id="text_20">
      <!-- rdkit_frags -->
      <g transform="translate(226.862297 426.895073) scale(0.1 -0.1)">
       <use xlink:href="#ArialMT-72"/>
       <use xlink:href="#ArialMT-64" transform="translate(33.300781 0)"/>
       <use xlink:href="#ArialMT-6b" transform="translate(88.916016 0)"/>
       <use xlink:href="#ArialMT-69" transform="translate(138.916016 0)"/>
       <use xlink:href="#ArialMT-74" transform="translate(161.132812 0)"/>
       <use xlink:href="#ArialMT-5f" transform="translate(188.916016 0)"/>
       <use xlink:href="#ArialMT-66" transform="translate(244.53125 0)"/>
       <use xlink:href="#ArialMT-72" transform="translate(272.314453 0)"/>
       <use xlink:href="#ArialMT-61" transform="translate(305.615234 0)"/>
       <use xlink:href="#ArialMT-67" transform="translate(361.230469 0)"/>
       <use xlink:href="#ArialMT-73" transform="translate(416.845703 0)"/>
      </g>
     </g>
    </g>
    <g id="xtick_12">
     <g id="line2d_40">
      <g>
       <use xlink:href="#ma23ba506eb" x="333.12962" y="412.615385" style="stroke: #000000; stroke-width: 0.8"/>
      </g>
     </g>
     <g id="text_21">
      <!-- hybrid -->
      <g transform="translate(319.512432 426.773197) scale(0.1 -0.1)">
       <use xlink:href="#ArialMT-68"/>
       <use xlink:href="#ArialMT-79" transform="translate(55.615234 0)"/>
       <use xlink:href="#ArialMT-62" transform="translate(105.615234 0)"/>
       <use xlink:href="#ArialMT-72" transform="translate(161.230469 0)"/>
       <use xlink:href="#ArialMT-69" transform="translate(194.53125 0)"/>
       <use xlink:href="#ArialMT-64" transform="translate(216.748047 0)"/>
      </g>
     </g>
    </g>
   </g>
   <g id="matplotlib.axis_6">
    <g id="ytick_13">
     <g id="line2d_41">
      <g>
       <use xlink:href="#m44fd75a4b2" x="42.886178" y="412.615385" style="stroke: #000000; stroke-width: 0.8"/>
      </g>
     </g>
     <g id="text_22">
      <!-- 0.0 -->
      <g transform="translate(21.986178 416.194291) scale(0.1 -0.1)">
       <use xlink:href="#ArialMT-30"/>
       <use xlink:href="#ArialMT-2e" transform="translate(55.615234 0)"/>
       <use xlink:href="#ArialMT-30" transform="translate(83.398438 0)"/>
      </g>
     </g>
    </g>
    <g id="ytick_14">
     <g id="line2d_42">
      <g>
       <use xlink:href="#m44fd75a4b2" x="42.886178" y="389.712695" style="stroke: #000000; stroke-width: 0.8"/>
      </g>
     </g>
     <g id="text_23">
      <!-- 0.1 -->
      <g transform="translate(21.986178 393.291601) scale(0.1 -0.1)">
       <defs>
        <path id="ArialMT-31" d="M 2384 0 
L 1822 0 
L 1822 3584 
Q 1619 3391 1289 3197 
Q 959 3003 697 2906 
L 697 3450 
Q 1169 3672 1522 3987 
Q 1875 4303 2022 4600 
L 2384 4600 
L 2384 0 
z
" transform="scale(0.015625)"/>
       </defs>
       <use xlink:href="#ArialMT-30"/>
       <use xlink:href="#ArialMT-2e" transform="translate(55.615234 0)"/>
       <use xlink:href="#ArialMT-31" transform="translate(83.398438 0)"/>
      </g>
     </g>
    </g>
    <g id="ytick_15">
     <g id="line2d_43">
      <g>
       <use xlink:href="#m44fd75a4b2" x="42.886178" y="366.810005" style="stroke: #000000; stroke-width: 0.8"/>
      </g>
     </g>
     <g id="text_24">
      <!-- 0.2 -->
      <g transform="translate(21.986178 370.388911) scale(0.1 -0.1)">
       <use xlink:href="#ArialMT-30"/>
       <use xlink:href="#ArialMT-2e" transform="translate(55.615234 0)"/>
       <use xlink:href="#ArialMT-32" transform="translate(83.398438 0)"/>
      </g>
     </g>
    </g>
    <g id="ytick_16">
     <g id="line2d_44">
      <g>
       <use xlink:href="#m44fd75a4b2" x="42.886178" y="343.907314" style="stroke: #000000; stroke-width: 0.8"/>
      </g>
     </g>
     <g id="text_25">
      <!-- 0.3 -->
      <g transform="translate(21.986178 347.486221) scale(0.1 -0.1)">
       <defs>
        <path id="ArialMT-33" d="M 269 1209 
L 831 1284 
Q 928 806 1161 595 
Q 1394 384 1728 384 
Q 2125 384 2398 659 
Q 2672 934 2672 1341 
Q 2672 1728 2419 1979 
Q 2166 2231 1775 2231 
Q 1616 2231 1378 2169 
L 1441 2663 
Q 1497 2656 1531 2656 
Q 1891 2656 2178 2843 
Q 2466 3031 2466 3422 
Q 2466 3731 2256 3934 
Q 2047 4138 1716 4138 
Q 1388 4138 1169 3931 
Q 950 3725 888 3313 
L 325 3413 
Q 428 3978 793 4289 
Q 1159 4600 1703 4600 
Q 2078 4600 2393 4439 
Q 2709 4278 2876 4000 
Q 3044 3722 3044 3409 
Q 3044 3113 2884 2869 
Q 2725 2625 2413 2481 
Q 2819 2388 3044 2092 
Q 3269 1797 3269 1353 
Q 3269 753 2831 336 
Q 2394 -81 1725 -81 
Q 1122 -81 723 278 
Q 325 638 269 1209 
z
" transform="scale(0.015625)"/>
       </defs>
       <use xlink:href="#ArialMT-30"/>
       <use xlink:href="#ArialMT-2e" transform="translate(55.615234 0)"/>
       <use xlink:href="#ArialMT-33" transform="translate(83.398438 0)"/>
      </g>
     </g>
    </g>
    <g id="ytick_17">
     <g id="line2d_45">
      <g>
       <use xlink:href="#m44fd75a4b2" x="42.886178" y="321.004624" style="stroke: #000000; stroke-width: 0.8"/>
      </g>
     </g>
     <g id="text_26">
      <!-- 0.4 -->
      <g transform="translate(21.986178 324.583531) scale(0.1 -0.1)">
       <use xlink:href="#ArialMT-30"/>
       <use xlink:href="#ArialMT-2e" transform="translate(55.615234 0)"/>
       <use xlink:href="#ArialMT-34" transform="translate(83.398438 0)"/>
      </g>
     </g>
    </g>
    <g id="ytick_18">
     <g id="line2d_46">
      <g>
       <use xlink:href="#m44fd75a4b2" x="42.886178" y="298.101934" style="stroke: #000000; stroke-width: 0.8"/>
      </g>
     </g>
     <g id="text_27">
      <!-- 0.5 -->
      <g transform="translate(21.986178 301.68084) scale(0.1 -0.1)">
       <use xlink:href="#ArialMT-30"/>
       <use xlink:href="#ArialMT-2e" transform="translate(55.615234 0)"/>
       <use xlink:href="#ArialMT-35" transform="translate(83.398438 0)"/>
      </g>
     </g>
    </g>
    <g id="ytick_19">
     <g id="line2d_47">
      <g>
       <use xlink:href="#m44fd75a4b2" x="42.886178" y="275.199244" style="stroke: #000000; stroke-width: 0.8"/>
      </g>
     </g>
     <g id="text_28">
      <!-- 0.6 -->
      <g transform="translate(21.986178 278.77815) scale(0.1 -0.1)">
       <use xlink:href="#ArialMT-30"/>
       <use xlink:href="#ArialMT-2e" transform="translate(55.615234 0)"/>
       <use xlink:href="#ArialMT-36" transform="translate(83.398438 0)"/>
      </g>
     </g>
    </g>
    <g id="ytick_20">
     <g id="line2d_48">
      <g>
       <use xlink:href="#m44fd75a4b2" x="42.886178" y="252.296554" style="stroke: #000000; stroke-width: 0.8"/>
      </g>
     </g>
     <g id="text_29">
      <!-- 0.7 -->
      <g transform="translate(21.986178 255.87546) scale(0.1 -0.1)">
       <defs>
        <path id="ArialMT-37" d="M 303 3981 
L 303 4522 
L 3269 4522 
L 3269 4084 
Q 2831 3619 2401 2847 
Q 1972 2075 1738 1259 
Q 1569 684 1522 0 
L 944 0 
Q 953 541 1156 1306 
Q 1359 2072 1739 2783 
Q 2119 3494 2547 3981 
L 303 3981 
z
" transform="scale(0.015625)"/>
       </defs>
       <use xlink:href="#ArialMT-30"/>
       <use xlink:href="#ArialMT-2e" transform="translate(55.615234 0)"/>
       <use xlink:href="#ArialMT-37" transform="translate(83.398438 0)"/>
      </g>
     </g>
    </g>
    <g id="text_30">
     <!-- MAE -->
     <g transform="translate(15.998678 334.010781) rotate(-90) scale(0.1 -0.1)">
      <use xlink:href="#ArialMT-4d"/>
      <use xlink:href="#ArialMT-41" transform="translate(83.300781 0)"/>
      <use xlink:href="#ArialMT-45" transform="translate(150 0)"/>
     </g>
    </g>
   </g>
   <g id="line2d_49">
    <path d="M 63.617852 268.137028 
L 71.910522 268.137028 
M 67.764187 268.137028 
L 67.764187 242.253937 
M 63.617852 242.253937 
L 71.910522 242.253937 
" clip-path="url(#p0ddb865fc3)" style="fill: none; stroke: #424242; stroke-width: 0.8; stroke-linecap: square"/>
   </g>
   <g id="line2d_50">
    <path d="M 146.54455 297.403856 
L 154.83722 297.403856 
M 150.690885 297.403856 
L 150.690885 277.009385 
M 146.54455 277.009385 
L 154.83722 277.009385 
" clip-path="url(#p0ddb865fc3)" style="fill: none; stroke: #424242; stroke-width: 0.8; stroke-linecap: square"/>
   </g>
   <g id="line2d_51">
    <path d="M 229.471248 291.03507 
L 237.763917 291.03507 
M 233.617582 291.03507 
L 233.617582 272.18103 
M 229.471248 272.18103 
L 237.763917 272.18103 
" clip-path="url(#p0ddb865fc3)" style="fill: none; stroke: #424242; stroke-width: 0.8; stroke-linecap: square"/>
   </g>
   <g id="line2d_52">
    <path d="M 312.397945 269.752881 
L 320.690615 269.752881 
M 316.54428 269.752881 
L 316.54428 246.403654 
M 312.397945 246.403654 
L 320.690615 246.403654 
" clip-path="url(#p0ddb865fc3)" style="fill: none; stroke: #424242; stroke-width: 0.8; stroke-linecap: square"/>
   </g>
   <g id="line2d_53">
    <path d="M 96.788531 298.80946 
L 105.081201 298.80946 
M 100.934866 298.80946 
L 100.934866 275.908165 
M 96.788531 275.908165 
L 105.081201 275.908165 
" clip-path="url(#p0ddb865fc3)" style="fill: none; stroke: #424242; stroke-width: 0.8; stroke-linecap: square"/>
   </g>
   <g id="line2d_54">
    <path d="M 179.715229 287.434821 
L 188.007899 287.434821 
M 183.861564 287.434821 
L 183.861564 268.284279 
M 179.715229 268.284279 
L 188.007899 268.284279 
" clip-path="url(#p0ddb865fc3)" style="fill: none; stroke: #424242; stroke-width: 0.8; stroke-linecap: square"/>
   </g>
   <g id="line2d_55">
    <path d="M 262.641927 297.660103 
L 270.934596 297.660103 
M 266.788262 297.660103 
L 266.788262 269.949154 
M 262.641927 269.949154 
L 270.934596 269.949154 
" clip-path="url(#p0ddb865fc3)" style="fill: none; stroke: #424242; stroke-width: 0.8; stroke-linecap: square"/>
   </g>
   <g id="line2d_56">
    <path d="M 345.568625 300.524912 
L 353.861294 300.524912 
M 349.714959 300.524912 
L 349.714959 277.793551 
M 345.568625 277.793551 
L 353.861294 277.793551 
" clip-path="url(#p0ddb865fc3)" style="fill: none; stroke: #424242; stroke-width: 0.8; stroke-linecap: square"/>
   </g>
   <g id="patch_43">
    <path d="M 42.886178 412.615385 
L 42.886178 233.735865 
" style="fill: none; stroke: #000000; stroke-width: 0.8; stroke-linejoin: miter; stroke-linecap: square"/>
   </g>
   <g id="patch_44">
    <path d="M 374.592969 412.615385 
L 374.592969 233.735865 
" style="fill: none; stroke: #000000; stroke-width: 0.8; stroke-linejoin: miter; stroke-linecap: square"/>
   </g>
   <g id="patch_45">
    <path d="M 42.886178 412.615385 
L 374.592969 412.615385 
" style="fill: none; stroke: #000000; stroke-width: 0.8; stroke-linejoin: miter; stroke-linecap: square"/>
   </g>
   <g id="patch_46">
    <path d="M 42.886178 233.735865 
L 374.592969 233.735865 
" style="fill: none; stroke: #000000; stroke-width: 0.8; stroke-linejoin: miter; stroke-linecap: square"/>
   </g>
   <g id="text_31">
    <!-- pIC50 MERS: CV MAE -->
    <g transform="translate(147.389573 227.735865) scale(0.12 -0.12)">
     <use xlink:href="#ArialMT-70"/>
     <use xlink:href="#ArialMT-49" transform="translate(55.615234 0)"/>
     <use xlink:href="#ArialMT-43" transform="translate(83.398438 0)"/>
     <use xlink:href="#ArialMT-35" transform="translate(155.615234 0)"/>
     <use xlink:href="#ArialMT-30" transform="translate(211.230469 0)"/>
     <use xlink:href="#ArialMT-20" transform="translate(266.845703 0)"/>
     <use xlink:href="#ArialMT-4d" transform="translate(294.628906 0)"/>
     <use xlink:href="#ArialMT-45" transform="translate(377.929688 0)"/>
     <use xlink:href="#ArialMT-52" transform="translate(444.628906 0)"/>
     <use xlink:href="#ArialMT-53" transform="translate(516.845703 0)"/>
     <use xlink:href="#ArialMT-3a" transform="translate(583.544922 0)"/>
     <use xlink:href="#ArialMT-20" transform="translate(611.328125 0)"/>
     <use xlink:href="#ArialMT-43" transform="translate(639.111328 0)"/>
     <use xlink:href="#ArialMT-56" transform="translate(711.328125 0)"/>
     <use xlink:href="#ArialMT-20" transform="translate(778.027344 0)"/>
     <use xlink:href="#ArialMT-4d" transform="translate(805.810547 0)"/>
     <use xlink:href="#ArialMT-41" transform="translate(889.111328 0)"/>
     <use xlink:href="#ArialMT-45" transform="translate(955.810547 0)"/>
    </g>
   </g>
  </g>
  <g id="axes_4">
   <g id="patch_47">
    <path d="M 385.292969 412.615385 
L 716.99976 412.615385 
L 716.99976 233.735865 
L 385.292969 233.735865 
z
" style="fill: #ffffff"/>
   </g>
   <g id="patch_48">
    <path d="M 393.585639 412.615385 
L 426.756318 412.615385 
L 426.756318 278.177895 
L 393.585639 278.177895 
z
" clip-path="url(#pdccd6c64db)" style="fill: #7936bd; stroke: #000000; stroke-linejoin: miter"/>
   </g>
   <g id="patch_49">
    <path d="M 476.512336 412.615385 
L 509.683015 412.615385 
L 509.683015 268.897317 
L 476.512336 268.897317 
z
" clip-path="url(#pdccd6c64db)" style="fill: #7936bd; stroke: #000000; stroke-linejoin: miter"/>
   </g>
   <g id="patch_50">
    <path d="M 559.439034 412.615385 
L 592.609713 412.615385 
L 592.609713 278.927519 
L 559.439034 278.927519 
z
" clip-path="url(#pdccd6c64db)" style="fill: #7936bd; stroke: #000000; stroke-linejoin: miter"/>
   </g>
   <g id="patch_51">
    <path d="M 642.365732 412.615385 
L 675.536411 412.615385 
L 675.536411 277.541594 
L 642.365732 277.541594 
z
" clip-path="url(#pdccd6c64db)" style="fill: #7936bd; stroke: #000000; stroke-linejoin: miter"/>
   </g>
   <g id="patch_52">
    <path d="M 426.756318 412.615385 
L 459.926997 412.615385 
L 459.926997 304.88443 
L 426.756318 304.88443 
z
" clip-path="url(#pdccd6c64db)" style="fill: #c9941d; stroke: #000000; stroke-linejoin: miter"/>
   </g>
   <g id="patch_53">
    <path d="M 509.683015 412.615385 
L 542.853695 412.615385 
L 542.853695 291.561955 
L 509.683015 291.561955 
z
" clip-path="url(#pdccd6c64db)" style="fill: #c9941d; stroke: #000000; stroke-linejoin: miter"/>
   </g>
   <g id="patch_54">
    <path d="M 592.609713 412.615385 
L 625.780392 412.615385 
L 625.780392 302.592286 
L 592.609713 302.592286 
z
" clip-path="url(#pdccd6c64db)" style="fill: #c9941d; stroke: #000000; stroke-linejoin: miter"/>
   </g>
   <g id="patch_55">
    <path d="M 675.536411 412.615385 
L 708.70709 412.615385 
L 708.70709 314.629546 
L 675.536411 314.629546 
z
" clip-path="url(#pdccd6c64db)" style="fill: #c9941d; stroke: #000000; stroke-linejoin: miter"/>
   </g>
   <g id="patch_56">
    <path d="M 426.756318 412.615385 
L 426.756318 412.615385 
L 426.756318 412.615385 
L 426.756318 412.615385 
z
" clip-path="url(#pdccd6c64db)" style="fill: #7936bd; stroke: #000000; stroke-linejoin: miter"/>
   </g>
   <g id="patch_57">
    <path d="M 426.756318 412.615385 
L 426.756318 412.615385 
L 426.756318 412.615385 
L 426.756318 412.615385 
z
" clip-path="url(#pdccd6c64db)" style="fill: #c9941d; stroke: #000000; stroke-linejoin: miter"/>
   </g>
   <g id="matplotlib.axis_7">
    <g id="xtick_13">
     <g id="line2d_57">
      <g>
       <use xlink:href="#ma23ba506eb" x="426.756318" y="412.615385" style="stroke: #000000; stroke-width: 0.8"/>
      </g>
     </g>
     <g id="text_32">
      <!-- morgan_fp -->
      <g transform="translate(402.854755 426.895073) scale(0.1 -0.1)">
       <use xlink:href="#ArialMT-6d"/>
       <use xlink:href="#ArialMT-6f" transform="translate(83.300781 0)"/>
       <use xlink:href="#ArialMT-72" transform="translate(138.916016 0)"/>
       <use xlink:href="#ArialMT-67" transform="translate(172.216797 0)"/>
       <use xlink:href="#ArialMT-61" transform="translate(227.832031 0)"/>
       <use xlink:href="#ArialMT-6e" transform="translate(283.447266 0)"/>
       <use xlink:href="#ArialMT-5f" transform="translate(339.0625 0)"/>
       <use xlink:href="#ArialMT-66" transform="translate(394.677734 0)"/>
       <use xlink:href="#ArialMT-70" transform="translate(422.460938 0)"/>
      </g>
     </g>
    </g>
    <g id="xtick_14">
     <g id="line2d_58">
      <g>
       <use xlink:href="#ma23ba506eb" x="509.683015" y="412.615385" style="stroke: #000000; stroke-width: 0.8"/>
      </g>
     </g>
     <g id="text_33">
      <!-- rdkit_desc -->
      <g transform="translate(486.896297 426.773197) scale(0.1 -0.1)">
       <use xlink:href="#ArialMT-72"/>
       <use xlink:href="#ArialMT-64" transform="translate(33.300781 0)"/>
       <use xlink:href="#ArialMT-6b" transform="translate(88.916016 0)"/>
       <use xlink:href="#ArialMT-69" transform="translate(138.916016 0)"/>
       <use xlink:href="#ArialMT-74" transform="translate(161.132812 0)"/>
       <use xlink:href="#ArialMT-5f" transform="translate(188.916016 0)"/>
       <use xlink:href="#ArialMT-64" transform="translate(244.53125 0)"/>
       <use xlink:href="#ArialMT-65" transform="translate(300.146484 0)"/>
       <use xlink:href="#ArialMT-73" transform="translate(355.761719 0)"/>
       <use xlink:href="#ArialMT-63" transform="translate(405.761719 0)"/>
      </g>
     </g>
    </g>
    <g id="xtick_15">
     <g id="line2d_59">
      <g>
       <use xlink:href="#ma23ba506eb" x="592.609713" y="412.615385" style="stroke: #000000; stroke-width: 0.8"/>
      </g>
     </g>
     <g id="text_34">
      <!-- rdkit_frags -->
      <g transform="translate(569.269088 426.895073) scale(0.1 -0.1)">
       <use xlink:href="#ArialMT-72"/>
       <use xlink:href="#ArialMT-64" transform="translate(33.300781 0)"/>
       <use xlink:href="#ArialMT-6b" transform="translate(88.916016 0)"/>
       <use xlink:href="#ArialMT-69" transform="translate(138.916016 0)"/>
       <use xlink:href="#ArialMT-74" transform="translate(161.132812 0)"/>
       <use xlink:href="#ArialMT-5f" transform="translate(188.916016 0)"/>
       <use xlink:href="#ArialMT-66" transform="translate(244.53125 0)"/>
       <use xlink:href="#ArialMT-72" transform="translate(272.314453 0)"/>
       <use xlink:href="#ArialMT-61" transform="translate(305.615234 0)"/>
       <use xlink:href="#ArialMT-67" transform="translate(361.230469 0)"/>
       <use xlink:href="#ArialMT-73" transform="translate(416.845703 0)"/>
      </g>
     </g>
    </g>
    <g id="xtick_16">
     <g id="line2d_60">
      <g>
       <use xlink:href="#ma23ba506eb" x="675.536411" y="412.615385" style="stroke: #000000; stroke-width: 0.8"/>
      </g>
     </g>
     <g id="text_35">
      <!-- hybrid -->
      <g transform="translate(661.919224 426.773197) scale(0.1 -0.1)">
       <use xlink:href="#ArialMT-68"/>
       <use xlink:href="#ArialMT-79" transform="translate(55.615234 0)"/>
       <use xlink:href="#ArialMT-62" transform="translate(105.615234 0)"/>
       <use xlink:href="#ArialMT-72" transform="translate(161.230469 0)"/>
       <use xlink:href="#ArialMT-69" transform="translate(194.53125 0)"/>
       <use xlink:href="#ArialMT-64" transform="translate(216.748047 0)"/>
      </g>
     </g>
    </g>
   </g>
   <g id="matplotlib.axis_8">
    <g id="ytick_21">
     <g id="line2d_61">
      <g>
       <use xlink:href="#m44fd75a4b2" x="385.292969" y="412.615385" style="stroke: #000000; stroke-width: 0.8"/>
      </g>
     </g>
    </g>
    <g id="ytick_22">
     <g id="line2d_62">
      <g>
       <use xlink:href="#m44fd75a4b2" x="385.292969" y="389.712695" style="stroke: #000000; stroke-width: 0.8"/>
      </g>
     </g>
    </g>
    <g id="ytick_23">
     <g id="line2d_63">
      <g>
       <use xlink:href="#m44fd75a4b2" x="385.292969" y="366.810005" style="stroke: #000000; stroke-width: 0.8"/>
      </g>
     </g>
    </g>
    <g id="ytick_24">
     <g id="line2d_64">
      <g>
       <use xlink:href="#m44fd75a4b2" x="385.292969" y="343.907314" style="stroke: #000000; stroke-width: 0.8"/>
      </g>
     </g>
    </g>
    <g id="ytick_25">
     <g id="line2d_65">
      <g>
       <use xlink:href="#m44fd75a4b2" x="385.292969" y="321.004624" style="stroke: #000000; stroke-width: 0.8"/>
      </g>
     </g>
    </g>
    <g id="ytick_26">
     <g id="line2d_66">
      <g>
       <use xlink:href="#m44fd75a4b2" x="385.292969" y="298.101934" style="stroke: #000000; stroke-width: 0.8"/>
      </g>
     </g>
    </g>
    <g id="ytick_27">
     <g id="line2d_67">
      <g>
       <use xlink:href="#m44fd75a4b2" x="385.292969" y="275.199244" style="stroke: #000000; stroke-width: 0.8"/>
      </g>
     </g>
    </g>
    <g id="ytick_28">
     <g id="line2d_68">
      <g>
       <use xlink:href="#m44fd75a4b2" x="385.292969" y="252.296554" style="stroke: #000000; stroke-width: 0.8"/>
      </g>
     </g>
    </g>
   </g>
   <g id="line2d_69">
    <path d="M 406.024643 286.252622 
L 414.317313 286.252622 
M 410.170978 286.252622 
L 410.170978 270.103168 
M 406.024643 270.103168 
L 414.317313 270.103168 
" clip-path="url(#pdccd6c64db)" style="fill: none; stroke: #424242; stroke-width: 0.8; stroke-linecap: square"/>
   </g>
   <g id="line2d_70">
    <path d="M 488.951341 276.97634 
L 497.244011 276.97634 
M 493.097676 276.97634 
L 493.097676 260.818293 
M 488.951341 260.818293 
L 497.244011 260.818293 
" clip-path="url(#pdccd6c64db)" style="fill: none; stroke: #424242; stroke-width: 0.8; stroke-linecap: square"/>
   </g>
   <g id="line2d_71">
    <path d="M 571.878039 288.844649 
L 580.170709 288.844649 
M 576.024374 288.844649 
L 576.024374 269.010389 
M 571.878039 269.010389 
L 580.170709 269.010389 
" clip-path="url(#pdccd6c64db)" style="fill: none; stroke: #424242; stroke-width: 0.8; stroke-linecap: square"/>
   </g>
   <g id="line2d_72">
    <path d="M 654.804737 287.203916 
L 663.097406 287.203916 
M 658.951072 287.203916 
L 658.951072 267.879272 
M 654.804737 267.879272 
L 663.097406 267.879272 
" clip-path="url(#pdccd6c64db)" style="fill: none; stroke: #424242; stroke-width: 0.8; stroke-linecap: square"/>
   </g>
   <g id="line2d_73">
    <path d="M 439.195322 311.985466 
L 447.487992 311.985466 
M 443.341657 311.985466 
L 443.341657 297.783394 
M 439.195322 297.783394 
L 447.487992 297.783394 
" clip-path="url(#pdccd6c64db)" style="fill: none; stroke: #424242; stroke-width: 0.8; stroke-linecap: square"/>
   </g>
   <g id="line2d_74">
    <path d="M 522.12202 300.304858 
L 530.41469 300.304858 
M 526.268355 300.304858 
L 526.268355 282.819051 
M 522.12202 282.819051 
L 530.41469 282.819051 
" clip-path="url(#pdccd6c64db)" style="fill: none; stroke: #424242; stroke-width: 0.8; stroke-linecap: square"/>
   </g>
   <g id="line2d_75">
    <path d="M 605.048718 309.192173 
L 613.341388 309.192173 
M 609.195053 309.192173 
L 609.195053 295.9924 
M 605.048718 295.9924 
L 613.341388 295.9924 
" clip-path="url(#pdccd6c64db)" style="fill: none; stroke: #424242; stroke-width: 0.8; stroke-linecap: square"/>
   </g>
   <g id="line2d_76">
    <path d="M 687.975416 320.612971 
L 696.268086 320.612971 
M 692.121751 320.612971 
L 692.121751 308.646122 
M 687.975416 308.646122 
L 696.268086 308.646122 
" clip-path="url(#pdccd6c64db)" style="fill: none; stroke: #424242; stroke-width: 0.8; stroke-linecap: square"/>
   </g>
   <g id="patch_58">
    <path d="M 385.292969 412.615385 
L 385.292969 233.735865 
" style="fill: none; stroke: #000000; stroke-width: 0.8; stroke-linejoin: miter; stroke-linecap: square"/>
   </g>
   <g id="patch_59">
    <path d="M 716.99976 412.615385 
L 716.99976 233.735865 
" style="fill: none; stroke: #000000; stroke-width: 0.8; stroke-linejoin: miter; stroke-linecap: square"/>
   </g>
   <g id="patch_60">
    <path d="M 385.292969 412.615385 
L 716.99976 412.615385 
" style="fill: none; stroke: #000000; stroke-width: 0.8; stroke-linejoin: miter; stroke-linecap: square"/>
   </g>
   <g id="patch_61">
    <path d="M 385.292969 233.735865 
L 716.99976 233.735865 
" style="fill: none; stroke: #000000; stroke-width: 0.8; stroke-linejoin: miter; stroke-linecap: square"/>
   </g>
   <g id="text_36">
    <!-- pIC50 SARS: CV MAE -->
    <g transform="translate(490.791989 227.735865) scale(0.12 -0.12)">
     <use xlink:href="#ArialMT-70"/>
     <use xlink:href="#ArialMT-49" transform="translate(55.615234 0)"/>
     <use xlink:href="#ArialMT-43" transform="translate(83.398438 0)"/>
     <use xlink:href="#ArialMT-35" transform="translate(155.615234 0)"/>
     <use xlink:href="#ArialMT-30" transform="translate(211.230469 0)"/>
     <use xlink:href="#ArialMT-20" transform="translate(266.845703 0)"/>
     <use xlink:href="#ArialMT-53" transform="translate(294.628906 0)"/>
     <use xlink:href="#ArialMT-41" transform="translate(361.328125 0)"/>
     <use xlink:href="#ArialMT-52" transform="translate(428.027344 0)"/>
     <use xlink:href="#ArialMT-53" transform="translate(500.244141 0)"/>
     <use xlink:href="#ArialMT-3a" transform="translate(566.943359 0)"/>
     <use xlink:href="#ArialMT-20" transform="translate(594.726562 0)"/>
     <use xlink:href="#ArialMT-43" transform="translate(622.509766 0)"/>
     <use xlink:href="#ArialMT-56" transform="translate(694.726562 0)"/>
     <use xlink:href="#ArialMT-20" transform="translate(761.425781 0)"/>
     <use xlink:href="#ArialMT-4d" transform="translate(789.208984 0)"/>
     <use xlink:href="#ArialMT-41" transform="translate(872.509766 0)"/>
     <use xlink:href="#ArialMT-45" transform="translate(939.208984 0)"/>
    </g>
   </g>
  </g>
 </g>
 <defs>
  <clipPath id="pa15e31baba">
   <rect x="42.886178" y="17.735865" width="331.706791" height="178.87952"/>
  </clipPath>
  <clipPath id="p43113f77b5">
   <rect x="385.292969" y="17.735865" width="331.706791" height="178.87952"/>
  </clipPath>
  <clipPath id="p0ddb865fc3">
   <rect x="42.886178" y="233.735865" width="331.706791" height="178.87952"/>
  </clipPath>
  <clipPath id="pdccd6c64db">
   <rect x="385.292969" y="233.735865" width="331.706791" height="178.87952"/>
  </clipPath>
 </defs>
</svg>
