<?xml version="1.0" encoding="utf-8" standalone="no"?>
<!DOCTYPE svg PUBLIC "-//W3C//DTD SVG 1.1//EN"
  "http://www.w3.org/Graphics/SVG/1.1/DTD/svg11.dtd">
<svg xmlns:xlink="http://www.w3.org/1999/xlink" width="720pt" height="432pt" viewBox="0 0 720 432" xmlns="http://www.w3.org/2000/svg" version="1.1">
 <metadata>
  <rdf:RDF xmlns:dc="http://purl.org/dc/elements/1.1/" xmlns:cc="http://creativecommons.org/ns#" xmlns:rdf="http://www.w3.org/1999/02/22-rdf-syntax-ns#">
   <cc:Work>
    <dc:type rdf:resource="http://purl.org/dc/dcmitype/StillImage"/>
    <dc:date>2026-01-05T22:53:58.028094</dc:date>
    <dc:format>image/svg+xml</dc:format>
    <dc:creator>
     <cc:Agent>
      <dc:title>Matplotlib v3.10.8, https://matplotlib.org/</dc:title>
     </cc:Agent>
    </dc:creator>
   </cc:Work>
  </rdf:RDF>
 </metadata>
 <defs>
  <style type="text/css">*{stroke-linejoin: round; stroke-linecap: butt}</style>
 </defs>
 <g id="figure_1">
  <g id="patch_1">
   <path d="M 0 432 
L 720 432 
L 720 0 
L 0 0 
z
" style="fill: #ffffff"/>
  </g>
  <g id="axes_1">
   <g id="patch_2">
    <path d="M 42.886178 196.615385 
L 359.320312 196.615385 
L 359.320312 17.735865 
L 42.886178 17.735865 
z
" style="fill: #ffffff"/>
   </g>
   <g id="patch_3">
    <path d="M 50.797031 76.162576 
L 82.440444 76.162576 
L 82.440444 143.211219 
L 50.797031 143.211219 
z
" clip-path="url(#p32b1eadd0f)" style="fill: #7936bd; opacity: 0.8; stroke: #000000; stroke-linejoin: miter"/>
   </g>
   <g id="patch_4">
    <path d="M 129.905565 76.162576 
L 161.548978 76.162576 
L 161.548978 46.096449 
L 129.905565 46.096449 
z
" clip-path="url(#p32b1eadd0f)" style="fill: #7936bd; opacity: 0.8; stroke: #000000; stroke-linejoin: miter"/>
   </g>
   <g id="patch_5">
    <path d="M 209.014098 76.162576 
L 240.657512 76.162576 
L 240.657512 52.023337 
L 209.014098 52.023337 
z
" clip-path="url(#p32b1eadd0f)" style="fill: #7936bd; opacity: 0.8; stroke: #000000; stroke-linejoin: miter"/>
   </g>
   <g id="patch_6">
    <path d="M 288.122632 76.162576 
L 319.766046 76.162576 
L 319.766046 143.30389 
L 288.122632 143.30389 
z
" clip-path="url(#p32b1eadd0f)" style="fill: #7936bd; opacity: 0.8; stroke: #000000; stroke-linejoin: miter"/>
   </g>
   <g id="patch_7">
    <path d="M 82.440444 76.162576 
L 114.083858 76.162576 
L 114.083858 78.592138 
L 82.440444 78.592138 
z
" clip-path="url(#p32b1eadd0f)" style="fill: #c9941d; opacity: 0.8; stroke: #000000; stroke-linejoin: miter"/>
   </g>
   <g id="patch_8">
    <path d="M 161.548978 76.162576 
L 193.192392 76.162576 
L 193.192392 109.669705 
L 161.548978 109.669705 
z
" clip-path="url(#p32b1eadd0f)" style="fill: #c9941d; opacity: 0.8; stroke: #000000; stroke-linejoin: miter"/>
   </g>
   <g id="patch_9">
    <path d="M 240.657512 76.162576 
L 272.300925 76.162576 
L 272.300925 97.104753 
L 240.657512 97.104753 
z
" clip-path="url(#p32b1eadd0f)" style="fill: #c9941d; opacity: 0.8; stroke: #000000; stroke-linejoin: miter"/>
   </g>
   <g id="patch_10">
    <path d="M 319.766046 76.162576 
L 351.409459 76.162576 
L 351.409459 70.923964 
L 319.766046 70.923964 
z
" clip-path="url(#p32b1eadd0f)" style="fill: #c9941d; opacity: 0.8; stroke: #000000; stroke-linejoin: miter"/>
   </g>
   <g id="patch_11">
    <path d="M 82.440444 76.162576 
L 82.440444 76.162576 
L 82.440444 76.162576 
L 82.440444 76.162576 
z
" clip-path="url(#p32b1eadd0f)" style="fill: #7936bd; opacity: 0.8; stroke: #000000; stroke-linejoin: miter"/>
   </g>
   <g id="patch_12">
    <path d="M 82.440444 76.162576 
L 82.440444 76.162576 
L 82.440444 76.162576 
L 82.440444 76.162576 
z
" clip-path="url(#p32b1eadd0f)" style="fill: #c9941d; opacity: 0.8; stroke: #000000; stroke-linejoin: miter"/>
   </g>
   <g id="matplotlib.axis_1">
    <g id="xtick_1">
     <g id="line2d_1">
      <defs>
       <path id="mdb62badeb5" d="M 0 0 
L 0 3.5 
" style="stroke: #000000; stroke-width: 0.8"/>
      </defs>
      <g>
       <use xlink:href="#mdb62badeb5" x="82.440444" y="196.615385" style="stroke: #000000; stroke-width: 0.8"/>
      </g>
     </g>
     <g id="text_1">
      <!-- morgan_fp -->
      <g transform="translate(58.538882 210.895072) scale(0.1 -0.1)">
       <defs>
        <path id="ArialMT-6d" d="M 422 0 
L 422 3319 
L 925 3319 
L 925 2853 
Q 1081 3097 1340 3245 
Q 1600 3394 1931 3394 
Q 2300 3394 2536 3241 
Q 2772 3088 2869 2813 
Q 3263 3394 3894 3394 
Q 4388 3394 4653 3120 
Q 4919 2847 4919 2278 
L 4919 0 
L 4359 0 
L 4359 2091 
Q 4359 2428 4304 2576 
Q 4250 2725 4106 2815 
Q 3963 2906 3769 2906 
Q 3419 2906 3187 2673 
Q 2956 2441 2956 1928 
L 2956 0 
L 2394 0 
L 2394 2156 
Q 2394 2531 2256 2718 
Q 2119 2906 1806 2906 
Q 1569 2906 1367 2781 
Q 1166 2656 1075 2415 
Q 984 2175 984 1722 
L 984 0 
L 422 0 
z
" transform="scale(0.015625)"/>
        <path id="ArialMT-6f" d="M 213 1659 
Q 213 2581 725 3025 
Q 1153 3394 1769 3394 
Q 2453 3394 2887 2945 
Q 3322 2497 3322 1706 
Q 3322 1066 3130 698 
Q 2938 331 2570 128 
Q 2203 -75 1769 -75 
Q 1072 -75 642 372 
Q 213 819 213 1659 
z
M 791 1659 
Q 791 1022 1069 705 
Q 1347 388 1769 388 
Q 2188 388 2466 706 
Q 2744 1025 2744 1678 
Q 2744 2294 2464 2611 
Q 2184 2928 1769 2928 
Q 1347 2928 1069 2612 
Q 791 2297 791 1659 
z
" transform="scale(0.015625)"/>
        <path id="ArialMT-72" d="M 416 0 
L 416 3319 
L 922 3319 
L 922 2816 
Q 1116 3169 1280 3281 
Q 1444 3394 1641 3394 
Q 1925 3394 2219 3213 
L 2025 2691 
Q 1819 2813 1613 2813 
Q 1428 2813 1281 2702 
Q 1134 2591 1072 2394 
Q 978 2094 978 1738 
L 978 0 
L 416 0 
z
" transform="scale(0.015625)"/>
        <path id="ArialMT-67" d="M 319 -275 
L 866 -356 
Q 900 -609 1056 -725 
Q 1266 -881 1628 -881 
Q 2019 -881 2231 -725 
Q 2444 -569 2519 -288 
Q 2563 -116 2559 434 
Q 2191 0 1641 0 
Q 956 0 581 494 
Q 206 988 206 1678 
Q 206 2153 378 2554 
Q 550 2956 876 3175 
Q 1203 3394 1644 3394 
Q 2231 3394 2613 2919 
L 2613 3319 
L 3131 3319 
L 3131 450 
Q 3131 -325 2973 -648 
Q 2816 -972 2473 -1159 
Q 2131 -1347 1631 -1347 
Q 1038 -1347 672 -1080 
Q 306 -813 319 -275 
z
M 784 1719 
Q 784 1066 1043 766 
Q 1303 466 1694 466 
Q 2081 466 2343 764 
Q 2606 1063 2606 1700 
Q 2606 2309 2336 2618 
Q 2066 2928 1684 2928 
Q 1309 2928 1046 2623 
Q 784 2319 784 1719 
z
" transform="scale(0.015625)"/>
        <path id="ArialMT-61" d="M 2588 409 
Q 2275 144 1986 34 
Q 1697 -75 1366 -75 
Q 819 -75 525 192 
Q 231 459 231 875 
Q 231 1119 342 1320 
Q 453 1522 633 1644 
Q 813 1766 1038 1828 
Q 1203 1872 1538 1913 
Q 2219 1994 2541 2106 
Q 2544 2222 2544 2253 
Q 2544 2597 2384 2738 
Q 2169 2928 1744 2928 
Q 1347 2928 1158 2789 
Q 969 2650 878 2297 
L 328 2372 
Q 403 2725 575 2942 
Q 747 3159 1072 3276 
Q 1397 3394 1825 3394 
Q 2250 3394 2515 3294 
Q 2781 3194 2906 3042 
Q 3031 2891 3081 2659 
Q 3109 2516 3109 2141 
L 3109 1391 
Q 3109 606 3145 398 
Q 3181 191 3288 0 
L 2700 0 
Q 2613 175 2588 409 
z
M 2541 1666 
Q 2234 1541 1622 1453 
Q 1275 1403 1131 1340 
Q 988 1278 909 1158 
Q 831 1038 831 891 
Q 831 666 1001 516 
Q 1172 366 1500 366 
Q 1825 366 2078 508 
Q 2331 650 2450 897 
Q 2541 1088 2541 1459 
L 2541 1666 
z
" transform="scale(0.015625)"/>
        <path id="ArialMT-6e" d="M 422 0 
L 422 3319 
L 928 3319 
L 928 2847 
Q 1294 3394 1984 3394 
Q 2284 3394 2536 3286 
Q 2788 3178 2913 3003 
Q 3038 2828 3088 2588 
Q 3119 2431 3119 2041 
L 3119 0 
L 2556 0 
L 2556 2019 
Q 2556 2363 2490 2533 
Q 2425 2703 2258 2804 
Q 2091 2906 1866 2906 
Q 1506 2906 1245 2678 
Q 984 2450 984 1813 
L 984 0 
L 422 0 
z
" transform="scale(0.015625)"/>
        <path id="ArialMT-5f" d="M -97 -1272 
L -97 -866 
L 3631 -866 
L 3631 -1272 
L -97 -1272 
z
" transform="scale(0.015625)"/>
        <path id="ArialMT-66" d="M 556 0 
L 556 2881 
L 59 2881 
L 59 3319 
L 556 3319 
L 556 3672 
Q 556 4006 616 4169 
Q 697 4388 901 4523 
Q 1106 4659 1475 4659 
Q 1713 4659 2000 4603 
L 1916 4113 
Q 1741 4144 1584 4144 
Q 1328 4144 1222 4034 
Q 1116 3925 1116 3625 
L 1116 3319 
L 1763 3319 
L 1763 2881 
L 1116 2881 
L 1116 0 
L 556 0 
z
" transform="scale(0.015625)"/>
        <path id="ArialMT-70" d="M 422 -1272 
L 422 3319 
L 934 3319 
L 934 2888 
Q 1116 3141 1344 3267 
Q 1572 3394 1897 3394 
Q 2322 3394 2647 3175 
Q 2972 2956 3137 2557 
Q 3303 2159 3303 1684 
Q 3303 1175 3120 767 
Q 2938 359 2589 142 
Q 2241 -75 1856 -75 
Q 1575 -75 1351 44 
Q 1128 163 984 344 
L 984 -1272 
L 422 -1272 
z
M 931 1641 
Q 931 1000 1190 694 
Q 1450 388 1819 388 
Q 2194 388 2461 705 
Q 2728 1022 2728 1688 
Q 2728 2322 2467 2637 
Q 2206 2953 1844 2953 
Q 1484 2953 1207 2617 
Q 931 2281 931 1641 
z
" transform="scale(0.015625)"/>
       </defs>
       <use xlink:href="#ArialMT-6d"/>
       <use xlink:href="#ArialMT-6f" transform="translate(83.300781 0)"/>
       <use xlink:href="#ArialMT-72" transform="translate(138.916016 0)"/>
       <use xlink:href="#ArialMT-67" transform="translate(172.216797 0)"/>
       <use xlink:href="#ArialMT-61" transform="translate(227.832031 0)"/>
       <use xlink:href="#ArialMT-6e" transform="translate(283.447266 0)"/>
       <use xlink:href="#ArialMT-5f" transform="translate(339.0625 0)"/>
       <use xlink:href="#ArialMT-66" transform="translate(394.677734 0)"/>
       <use xlink:href="#ArialMT-70" transform="translate(422.460938 0)"/>
      </g>
     </g>
    </g>
    <g id="xtick_2">
     <g id="line2d_2">
      <g>
       <use xlink:href="#mdb62badeb5" x="161.548978" y="196.615385" style="stroke: #000000; stroke-width: 0.8"/>
      </g>
     </g>
     <g id="text_2">
      <!-- rdkit_desc -->
      <g transform="translate(138.762259 210.773198) scale(0.1 -0.1)">
       <defs>
        <path id="ArialMT-64" d="M 2575 0 
L 2575 419 
Q 2259 -75 1647 -75 
Q 1250 -75 917 144 
Q 584 363 401 755 
Q 219 1147 219 1656 
Q 219 2153 384 2558 
Q 550 2963 881 3178 
Q 1213 3394 1622 3394 
Q 1922 3394 2156 3267 
Q 2391 3141 2538 2938 
L 2538 4581 
L 3097 4581 
L 3097 0 
L 2575 0 
z
M 797 1656 
Q 797 1019 1065 703 
Q 1334 388 1700 388 
Q 2069 388 2326 689 
Q 2584 991 2584 1609 
Q 2584 2291 2321 2609 
Q 2059 2928 1675 2928 
Q 1300 2928 1048 2622 
Q 797 2316 797 1656 
z
" transform="scale(0.015625)"/>
        <path id="ArialMT-6b" d="M 425 0 
L 425 4581 
L 988 4581 
L 988 1969 
L 2319 3319 
L 3047 3319 
L 1778 2088 
L 3175 0 
L 2481 0 
L 1384 1697 
L 988 1316 
L 988 0 
L 425 0 
z
" transform="scale(0.015625)"/>
        <path id="ArialMT-69" d="M 425 3934 
L 425 4581 
L 988 4581 
L 988 3934 
L 425 3934 
z
M 425 0 
L 425 3319 
L 988 3319 
L 988 0 
L 425 0 
z
" transform="scale(0.015625)"/>
        <path id="ArialMT-74" d="M 1650 503 
L 1731 6 
Q 1494 -44 1306 -44 
Q 1000 -44 831 53 
Q 663 150 594 308 
Q 525 466 525 972 
L 525 2881 
L 113 2881 
L 113 3319 
L 525 3319 
L 525 4141 
L 1084 4478 
L 1084 3319 
L 1650 3319 
L 1650 2881 
L 1084 2881 
L 1084 941 
Q 1084 700 1114 631 
Q 1144 563 1211 522 
Q 1278 481 1403 481 
Q 1497 481 1650 503 
z
" transform="scale(0.015625)"/>
        <path id="ArialMT-65" d="M 2694 1069 
L 3275 997 
Q 3138 488 2766 206 
Q 2394 -75 1816 -75 
Q 1088 -75 661 373 
Q 234 822 234 1631 
Q 234 2469 665 2931 
Q 1097 3394 1784 3394 
Q 2450 3394 2872 2941 
Q 3294 2488 3294 1666 
Q 3294 1616 3291 1516 
L 816 1516 
Q 847 969 1125 678 
Q 1403 388 1819 388 
Q 2128 388 2347 550 
Q 2566 713 2694 1069 
z
M 847 1978 
L 2700 1978 
Q 2663 2397 2488 2606 
Q 2219 2931 1791 2931 
Q 1403 2931 1139 2672 
Q 875 2413 847 1978 
z
" transform="scale(0.015625)"/>
        <path id="ArialMT-73" d="M 197 991 
L 753 1078 
Q 800 744 1014 566 
Q 1228 388 1613 388 
Q 2000 388 2187 545 
Q 2375 703 2375 916 
Q 2375 1106 2209 1216 
Q 2094 1291 1634 1406 
Q 1016 1563 777 1677 
Q 538 1791 414 1992 
Q 291 2194 291 2438 
Q 291 2659 392 2848 
Q 494 3038 669 3163 
Q 800 3259 1026 3326 
Q 1253 3394 1513 3394 
Q 1903 3394 2198 3281 
Q 2494 3169 2634 2976 
Q 2775 2784 2828 2463 
L 2278 2388 
Q 2241 2644 2061 2787 
Q 1881 2931 1553 2931 
Q 1166 2931 1000 2803 
Q 834 2675 834 2503 
Q 834 2394 903 2306 
Q 972 2216 1119 2156 
Q 1203 2125 1616 2013 
Q 2213 1853 2448 1751 
Q 2684 1650 2818 1456 
Q 2953 1263 2953 975 
Q 2953 694 2789 445 
Q 2625 197 2315 61 
Q 2006 -75 1616 -75 
Q 969 -75 630 194 
Q 291 463 197 991 
z
" transform="scale(0.015625)"/>
        <path id="ArialMT-63" d="M 2588 1216 
L 3141 1144 
Q 3050 572 2676 248 
Q 2303 -75 1759 -75 
Q 1078 -75 664 370 
Q 250 816 250 1647 
Q 250 2184 428 2587 
Q 606 2991 970 3192 
Q 1334 3394 1763 3394 
Q 2303 3394 2647 3120 
Q 2991 2847 3088 2344 
L 2541 2259 
Q 2463 2594 2264 2762 
Q 2066 2931 1784 2931 
Q 1359 2931 1093 2626 
Q 828 2322 828 1663 
Q 828 994 1084 691 
Q 1341 388 1753 388 
Q 2084 388 2306 591 
Q 2528 794 2588 1216 
z
" transform="scale(0.015625)"/>
       </defs>
       <use xlink:href="#ArialMT-72"/>
       <use xlink:href="#ArialMT-64" transform="translate(33.300781 0)"/>
       <use xlink:href="#ArialMT-6b" transform="translate(88.916016 0)"/>
       <use xlink:href="#ArialMT-69" transform="translate(138.916016 0)"/>
       <use xlink:href="#ArialMT-74" transform="translate(161.132812 0)"/>
       <use xlink:href="#ArialMT-5f" transform="translate(188.916016 0)"/>
       <use xlink:href="#ArialMT-64" transform="translate(244.53125 0)"/>
       <use xlink:href="#ArialMT-65" transform="translate(300.146484 0)"/>
       <use xlink:href="#ArialMT-73" transform="translate(355.761719 0)"/>
       <use xlink:href="#ArialMT-63" transform="translate(405.761719 0)"/>
      </g>
     </g>
    </g>
    <g id="xtick_3">
     <g id="line2d_3">
      <g>
       <use xlink:href="#mdb62badeb5" x="240.657512" y="196.615385" style="stroke: #000000; stroke-width: 0.8"/>
      </g>
     </g>
     <g id="text_3">
      <!-- rdkit_frags -->
      <g transform="translate(217.316887 210.895072) scale(0.1 -0.1)">
       <use xlink:href="#ArialMT-72"/>
       <use xlink:href="#ArialMT-64" transform="translate(33.300781 0)"/>
       <use xlink:href="#ArialMT-6b" transform="translate(88.916016 0)"/>
       <use xlink:href="#ArialMT-69" transform="translate(138.916016 0)"/>
       <use xlink:href="#ArialMT-74" transform="translate(161.132812 0)"/>
       <use xlink:href="#ArialMT-5f" transform="translate(188.916016 0)"/>
       <use xlink:href="#ArialMT-66" transform="translate(244.53125 0)"/>
       <use xlink:href="#ArialMT-72" transform="translate(272.314453 0)"/>
       <use xlink:href="#ArialMT-61" transform="translate(305.615234 0)"/>
       <use xlink:href="#ArialMT-67" transform="translate(361.230469 0)"/>
       <use xlink:href="#ArialMT-73" transform="translate(416.845703 0)"/>
      </g>
     </g>
    </g>
    <g id="xtick_4">
     <g id="line2d_4">
      <g>
       <use xlink:href="#mdb62badeb5" x="319.766046" y="196.615385" style="stroke: #000000; stroke-width: 0.8"/>
      </g>
     </g>
     <g id="text_4">
      <!-- hybrid -->
      <g transform="translate(306.148858 210.773198) scale(0.1 -0.1)">
       <defs>
        <path id="ArialMT-68" d="M 422 0 
L 422 4581 
L 984 4581 
L 984 2938 
Q 1378 3394 1978 3394 
Q 2347 3394 2619 3248 
Q 2891 3103 3008 2847 
Q 3125 2591 3125 2103 
L 3125 0 
L 2563 0 
L 2563 2103 
Q 2563 2525 2380 2717 
Q 2197 2909 1863 2909 
Q 1613 2909 1392 2779 
Q 1172 2650 1078 2428 
Q 984 2206 984 1816 
L 984 0 
L 422 0 
z
" transform="scale(0.015625)"/>
        <path id="ArialMT-79" d="M 397 -1278 
L 334 -750 
Q 519 -800 656 -800 
Q 844 -800 956 -737 
Q 1069 -675 1141 -563 
Q 1194 -478 1313 -144 
Q 1328 -97 1363 -6 
L 103 3319 
L 709 3319 
L 1400 1397 
Q 1534 1031 1641 628 
Q 1738 1016 1872 1384 
L 2581 3319 
L 3144 3319 
L 1881 -56 
Q 1678 -603 1566 -809 
Q 1416 -1088 1222 -1217 
Q 1028 -1347 759 -1347 
Q 597 -1347 397 -1278 
z
" transform="scale(0.015625)"/>
        <path id="ArialMT-62" d="M 941 0 
L 419 0 
L 419 4581 
L 981 4581 
L 981 2947 
Q 1338 3394 1891 3394 
Q 2197 3394 2470 3270 
Q 2744 3147 2920 2923 
Q 3097 2700 3197 2384 
Q 3297 2069 3297 1709 
Q 3297 856 2875 390 
Q 2453 -75 1863 -75 
Q 1275 -75 941 416 
L 941 0 
z
M 934 1684 
Q 934 1088 1097 822 
Q 1363 388 1816 388 
Q 2184 388 2453 708 
Q 2722 1028 2722 1663 
Q 2722 2313 2464 2622 
Q 2206 2931 1841 2931 
Q 1472 2931 1203 2611 
Q 934 2291 934 1684 
z
" transform="scale(0.015625)"/>
       </defs>
       <use xlink:href="#ArialMT-68"/>
       <use xlink:href="#ArialMT-79" transform="translate(55.615234 0)"/>
       <use xlink:href="#ArialMT-62" transform="translate(105.615234 0)"/>
       <use xlink:href="#ArialMT-72" transform="translate(161.230469 0)"/>
       <use xlink:href="#ArialMT-69" transform="translate(194.53125 0)"/>
       <use xlink:href="#ArialMT-64" transform="translate(216.748047 0)"/>
      </g>
     </g>
    </g>
   </g>
   <g id="matplotlib.axis_2">
    <g id="ytick_1">
     <g id="line2d_5">
      <defs>
       <path id="mf53e77b1b8" d="M 0 0 
L -3.5 0 
" style="stroke: #000000; stroke-width: 0.8"/>
      </defs>
      <g>
       <use xlink:href="#mf53e77b1b8" x="42.886178" y="180.260445" style="stroke: #000000; stroke-width: 0.8"/>
      </g>
     </g>
     <g id="text_5">
      <!-- −0.4 -->
      <g transform="translate(16.145553 183.839351) scale(0.1 -0.1)">
       <defs>
        <path id="ArialMT-2212" d="M 3381 1997 
L 356 1997 
L 356 2522 
L 3381 2522 
L 3381 1997 
z
" transform="scale(0.015625)"/>
        <path id="ArialMT-30" d="M 266 2259 
Q 266 3072 433 3567 
Q 600 4063 929 4331 
Q 1259 4600 1759 4600 
Q 2128 4600 2406 4451 
Q 2684 4303 2865 4023 
Q 3047 3744 3150 3342 
Q 3253 2941 3253 2259 
Q 3253 1453 3087 958 
Q 2922 463 2592 192 
Q 2263 -78 1759 -78 
Q 1097 -78 719 397 
Q 266 969 266 2259 
z
M 844 2259 
Q 844 1131 1108 757 
Q 1372 384 1759 384 
Q 2147 384 2411 759 
Q 2675 1134 2675 2259 
Q 2675 3391 2411 3762 
Q 2147 4134 1753 4134 
Q 1366 4134 1134 3806 
Q 844 3388 844 2259 
z
" transform="scale(0.015625)"/>
        <path id="ArialMT-2e" d="M 581 0 
L 581 641 
L 1222 641 
L 1222 0 
L 581 0 
z
" transform="scale(0.015625)"/>
        <path id="ArialMT-34" d="M 2069 0 
L 2069 1097 
L 81 1097 
L 81 1613 
L 2172 4581 
L 2631 4581 
L 2631 1613 
L 3250 1613 
L 3250 1097 
L 2631 1097 
L 2631 0 
L 2069 0 
z
M 2069 1613 
L 2069 3678 
L 634 1613 
L 2069 1613 
z
" transform="scale(0.015625)"/>
       </defs>
       <use xlink:href="#ArialMT-2212"/>
       <use xlink:href="#ArialMT-30" transform="translate(58.398438 0)"/>
       <use xlink:href="#ArialMT-2e" transform="translate(114.013672 0)"/>
       <use xlink:href="#ArialMT-34" transform="translate(141.796875 0)"/>
      </g>
     </g>
    </g>
    <g id="ytick_2">
     <g id="line2d_6">
      <g>
       <use xlink:href="#mf53e77b1b8" x="42.886178" y="154.235978" style="stroke: #000000; stroke-width: 0.8"/>
      </g>
     </g>
     <g id="text_6">
      <!-- −0.3 -->
      <g transform="translate(16.145553 157.814884) scale(0.1 -0.1)">
       <defs>
        <path id="ArialMT-33" d="M 269 1209 
L 831 1284 
Q 928 806 1161 595 
Q 1394 384 1728 384 
Q 2125 384 2398 659 
Q 2672 934 2672 1341 
Q 2672 1728 2419 1979 
Q 2166 2231 1775 2231 
Q 1616 2231 1378 2169 
L 1441 2663 
Q 1497 2656 1531 2656 
Q 1891 2656 2178 2843 
Q 2466 3031 2466 3422 
Q 2466 3731 2256 3934 
Q 2047 4138 1716 4138 
Q 1388 4138 1169 3931 
Q 950 3725 888 3313 
L 325 3413 
Q 428 3978 793 4289 
Q 1159 4600 1703 4600 
Q 2078 4600 2393 4439 
Q 2709 4278 2876 4000 
Q 3044 3722 3044 3409 
Q 3044 3113 2884 2869 
Q 2725 2625 2413 2481 
Q 2819 2388 3044 2092 
Q 3269 1797 3269 1353 
Q 3269 753 2831 336 
Q 2394 -81 1725 -81 
Q 1122 -81 723 278 
Q 325 638 269 1209 
z
" transform="scale(0.015625)"/>
       </defs>
       <use xlink:href="#ArialMT-2212"/>
       <use xlink:href="#ArialMT-30" transform="translate(58.398438 0)"/>
       <use xlink:href="#ArialMT-2e" transform="translate(114.013672 0)"/>
       <use xlink:href="#ArialMT-33" transform="translate(141.796875 0)"/>
      </g>
     </g>
    </g>
    <g id="ytick_3">
     <g id="line2d_7">
      <g>
       <use xlink:href="#mf53e77b1b8" x="42.886178" y="128.211511" style="stroke: #000000; stroke-width: 0.8"/>
      </g>
     </g>
     <g id="text_7">
      <!-- −0.2 -->
      <g transform="translate(16.145553 131.790417) scale(0.1 -0.1)">
       <defs>
        <path id="ArialMT-32" d="M 3222 541 
L 3222 0 
L 194 0 
Q 188 203 259 391 
Q 375 700 629 1000 
Q 884 1300 1366 1694 
Q 2113 2306 2375 2664 
Q 2638 3022 2638 3341 
Q 2638 3675 2398 3904 
Q 2159 4134 1775 4134 
Q 1369 4134 1125 3890 
Q 881 3647 878 3216 
L 300 3275 
Q 359 3922 746 4261 
Q 1134 4600 1788 4600 
Q 2447 4600 2831 4234 
Q 3216 3869 3216 3328 
Q 3216 3053 3103 2787 
Q 2991 2522 2730 2228 
Q 2469 1934 1863 1422 
Q 1356 997 1212 845 
Q 1069 694 975 541 
L 3222 541 
z
" transform="scale(0.015625)"/>
       </defs>
       <use xlink:href="#ArialMT-2212"/>
       <use xlink:href="#ArialMT-30" transform="translate(58.398438 0)"/>
       <use xlink:href="#ArialMT-2e" transform="translate(114.013672 0)"/>
       <use xlink:href="#ArialMT-32" transform="translate(141.796875 0)"/>
      </g>
     </g>
    </g>
    <g id="ytick_4">
     <g id="line2d_8">
      <g>
       <use xlink:href="#mf53e77b1b8" x="42.886178" y="102.187044" style="stroke: #000000; stroke-width: 0.8"/>
      </g>
     </g>
     <g id="text_8">
      <!-- −0.1 -->
      <g transform="translate(16.145553 105.76595) scale(0.1 -0.1)">
       <defs>
        <path id="ArialMT-31" d="M 2384 0 
L 1822 0 
L 1822 3584 
Q 1619 3391 1289 3197 
Q 959 3003 697 2906 
L 697 3450 
Q 1169 3672 1522 3987 
Q 1875 4303 2022 4600 
L 2384 4600 
L 2384 0 
z
" transform="scale(0.015625)"/>
       </defs>
       <use xlink:href="#ArialMT-2212"/>
       <use xlink:href="#ArialMT-30" transform="translate(58.398438 0)"/>
       <use xlink:href="#ArialMT-2e" transform="translate(114.013672 0)"/>
       <use xlink:href="#ArialMT-31" transform="translate(141.796875 0)"/>
      </g>
     </g>
    </g>
    <g id="ytick_5">
     <g id="line2d_9">
      <g>
       <use xlink:href="#mf53e77b1b8" x="42.886178" y="76.162576" style="stroke: #000000; stroke-width: 0.8"/>
      </g>
     </g>
     <g id="text_9">
      <!-- 0.0 -->
      <g transform="translate(21.986178 79.741483) scale(0.1 -0.1)">
       <use xlink:href="#ArialMT-30"/>
       <use xlink:href="#ArialMT-2e" transform="translate(55.615234 0)"/>
       <use xlink:href="#ArialMT-30" transform="translate(83.398438 0)"/>
      </g>
     </g>
    </g>
    <g id="ytick_6">
     <g id="line2d_10">
      <g>
       <use xlink:href="#mf53e77b1b8" x="42.886178" y="50.138109" style="stroke: #000000; stroke-width: 0.8"/>
      </g>
     </g>
     <g id="text_10">
      <!-- 0.1 -->
      <g transform="translate(21.986178 53.717016) scale(0.1 -0.1)">
       <use xlink:href="#ArialMT-30"/>
       <use xlink:href="#ArialMT-2e" transform="translate(55.615234 0)"/>
       <use xlink:href="#ArialMT-31" transform="translate(83.398438 0)"/>
      </g>
     </g>
    </g>
    <g id="ytick_7">
     <g id="line2d_11">
      <g>
       <use xlink:href="#mf53e77b1b8" x="42.886178" y="24.113642" style="stroke: #000000; stroke-width: 0.8"/>
      </g>
     </g>
     <g id="text_11">
      <!-- 0.2 -->
      <g transform="translate(21.986178 27.692549) scale(0.1 -0.1)">
       <use xlink:href="#ArialMT-30"/>
       <use xlink:href="#ArialMT-2e" transform="translate(55.615234 0)"/>
       <use xlink:href="#ArialMT-32" transform="translate(83.398438 0)"/>
      </g>
     </g>
    </g>
    <g id="text_12">
     <!-- r2 -->
     <g transform="translate(10.158053 111.620937) rotate(-90) scale(0.1 -0.1)">
      <use xlink:href="#ArialMT-72"/>
      <use xlink:href="#ArialMT-32" transform="translate(33.300781 0)"/>
     </g>
    </g>
   </g>
   <g id="line2d_12">
    <path d="M 62.663311 184.569237 
L 70.574164 184.569237 
M 66.618738 184.569237 
L 66.618738 101.853202 
M 62.663311 101.853202 
L 70.574164 101.853202 
" clip-path="url(#p32b1eadd0f)" style="fill: none; stroke: #424242; stroke-width: 0.8; stroke-linecap: square"/>
   </g>
   <g id="line2d_13">
    <path d="M 141.771845 66.326147 
L 149.682698 66.326147 
M 145.727271 66.326147 
L 145.727271 25.866752 
M 141.771845 25.866752 
L 149.682698 25.866752 
" clip-path="url(#p32b1eadd0f)" style="fill: none; stroke: #424242; stroke-width: 0.8; stroke-linecap: square"/>
   </g>
   <g id="line2d_14">
    <path d="M 220.880378 74.354057 
L 228.791232 74.354057 
M 224.835805 74.354057 
L 224.835805 29.692616 
M 220.880378 29.692616 
L 228.791232 29.692616 
" clip-path="url(#p32b1eadd0f)" style="fill: none; stroke: #424242; stroke-width: 0.8; stroke-linecap: square"/>
   </g>
   <g id="line2d_15">
    <path d="M 299.988912 188.484498 
L 307.899766 188.484498 
M 303.944339 188.484498 
L 303.944339 98.123282 
M 299.988912 98.123282 
L 307.899766 98.123282 
" clip-path="url(#p32b1eadd0f)" style="fill: none; stroke: #424242; stroke-width: 0.8; stroke-linecap: square"/>
   </g>
   <g id="line2d_16">
    <path d="M 94.306724 110.021713 
L 102.217578 110.021713 
M 98.262151 110.021713 
L 98.262151 47.162562 
M 94.306724 47.162562 
L 102.217578 47.162562 
" clip-path="url(#p32b1eadd0f)" style="fill: none; stroke: #424242; stroke-width: 0.8; stroke-linecap: square"/>
   </g>
   <g id="line2d_17">
    <path d="M 173.415258 154.191794 
L 181.326112 154.191794 
M 177.370685 154.191794 
L 177.370685 65.147616 
M 173.415258 65.147616 
L 181.326112 65.147616 
" clip-path="url(#p32b1eadd0f)" style="fill: none; stroke: #424242; stroke-width: 0.8; stroke-linecap: square"/>
   </g>
   <g id="line2d_18">
    <path d="M 252.523792 140.465715 
L 260.434645 140.465715 
M 256.479219 140.465715 
L 256.479219 53.743792 
M 252.523792 53.743792 
L 260.434645 53.743792 
" clip-path="url(#p32b1eadd0f)" style="fill: none; stroke: #424242; stroke-width: 0.8; stroke-linecap: square"/>
   </g>
   <g id="line2d_19">
    <path d="M 331.632326 96.446563 
L 339.543179 96.446563 
M 335.587752 96.446563 
L 335.587752 45.401366 
M 331.632326 45.401366 
L 339.543179 45.401366 
" clip-path="url(#p32b1eadd0f)" style="fill: none; stroke: #424242; stroke-width: 0.8; stroke-linecap: square"/>
   </g>
   <g id="patch_13">
    <path d="M 42.886178 196.615385 
L 42.886178 17.735865 
" style="fill: none; stroke: #000000; stroke-width: 0.8; stroke-linejoin: miter; stroke-linecap: square"/>
   </g>
   <g id="patch_14">
    <path d="M 359.320312 196.615385 
L 359.320312 17.735865 
" style="fill: none; stroke: #000000; stroke-width: 0.8; stroke-linejoin: miter; stroke-linecap: square"/>
   </g>
   <g id="patch_15">
    <path d="M 42.886178 196.615385 
L 359.320312 196.615385 
" style="fill: none; stroke: #000000; stroke-width: 0.8; stroke-linejoin: miter; stroke-linecap: square"/>
   </g>
   <g id="patch_16">
    <path d="M 42.886178 17.735865 
L 359.320312 17.735865 
" style="fill: none; stroke: #000000; stroke-width: 0.8; stroke-linejoin: miter; stroke-linecap: square"/>
   </g>
   <g id="text_13">
    <!-- pIC50 MERS: CV R² -->
    <g transform="translate(146.424495 11.735865) scale(0.12 -0.12)">
     <defs>
      <path id="ArialMT-49" d="M 597 0 
L 597 4581 
L 1203 4581 
L 1203 0 
L 597 0 
z
" transform="scale(0.015625)"/>
      <path id="ArialMT-43" d="M 3763 1606 
L 4369 1453 
Q 4178 706 3683 314 
Q 3188 -78 2472 -78 
Q 1731 -78 1267 223 
Q 803 525 561 1097 
Q 319 1669 319 2325 
Q 319 3041 592 3573 
Q 866 4106 1370 4382 
Q 1875 4659 2481 4659 
Q 3169 4659 3637 4309 
Q 4106 3959 4291 3325 
L 3694 3184 
Q 3534 3684 3231 3912 
Q 2928 4141 2469 4141 
Q 1941 4141 1586 3887 
Q 1231 3634 1087 3207 
Q 944 2781 944 2328 
Q 944 1744 1114 1308 
Q 1284 872 1643 656 
Q 2003 441 2422 441 
Q 2931 441 3284 734 
Q 3638 1028 3763 1606 
z
" transform="scale(0.015625)"/>
      <path id="ArialMT-35" d="M 266 1200 
L 856 1250 
Q 922 819 1161 601 
Q 1400 384 1738 384 
Q 2144 384 2425 690 
Q 2706 997 2706 1503 
Q 2706 1984 2436 2262 
Q 2166 2541 1728 2541 
Q 1456 2541 1237 2417 
Q 1019 2294 894 2097 
L 366 2166 
L 809 4519 
L 3088 4519 
L 3088 3981 
L 1259 3981 
L 1013 2750 
Q 1425 3038 1878 3038 
Q 2478 3038 2890 2622 
Q 3303 2206 3303 1553 
Q 3303 931 2941 478 
Q 2500 -78 1738 -78 
Q 1113 -78 717 272 
Q 322 622 266 1200 
z
" transform="scale(0.015625)"/>
      <path id="ArialMT-20" transform="scale(0.015625)"/>
      <path id="ArialMT-4d" d="M 475 0 
L 475 4581 
L 1388 4581 
L 2472 1338 
Q 2622 884 2691 659 
Q 2769 909 2934 1394 
L 4031 4581 
L 4847 4581 
L 4847 0 
L 4263 0 
L 4263 3834 
L 2931 0 
L 2384 0 
L 1059 3900 
L 1059 0 
L 475 0 
z
" transform="scale(0.015625)"/>
      <path id="ArialMT-45" d="M 506 0 
L 506 4581 
L 3819 4581 
L 3819 4041 
L 1113 4041 
L 1113 2638 
L 3647 2638 
L 3647 2100 
L 1113 2100 
L 1113 541 
L 3925 541 
L 3925 0 
L 506 0 
z
" transform="scale(0.015625)"/>
      <path id="ArialMT-52" d="M 503 0 
L 503 4581 
L 2534 4581 
Q 3147 4581 3465 4457 
Q 3784 4334 3975 4021 
Q 4166 3709 4166 3331 
Q 4166 2844 3850 2509 
Q 3534 2175 2875 2084 
Q 3116 1969 3241 1856 
Q 3506 1613 3744 1247 
L 4541 0 
L 3778 0 
L 3172 953 
Q 2906 1366 2734 1584 
Q 2563 1803 2427 1890 
Q 2291 1978 2150 2013 
Q 2047 2034 1813 2034 
L 1109 2034 
L 1109 0 
L 503 0 
z
M 1109 2559 
L 2413 2559 
Q 2828 2559 3062 2645 
Q 3297 2731 3419 2920 
Q 3541 3109 3541 3331 
Q 3541 3656 3305 3865 
Q 3069 4075 2559 4075 
L 1109 4075 
L 1109 2559 
z
" transform="scale(0.015625)"/>
      <path id="ArialMT-53" d="M 288 1472 
L 859 1522 
Q 900 1178 1048 958 
Q 1197 738 1509 602 
Q 1822 466 2213 466 
Q 2559 466 2825 569 
Q 3091 672 3220 851 
Q 3350 1031 3350 1244 
Q 3350 1459 3225 1620 
Q 3100 1781 2813 1891 
Q 2628 1963 1997 2114 
Q 1366 2266 1113 2400 
Q 784 2572 623 2826 
Q 463 3081 463 3397 
Q 463 3744 659 4045 
Q 856 4347 1234 4503 
Q 1613 4659 2075 4659 
Q 2584 4659 2973 4495 
Q 3363 4331 3572 4012 
Q 3781 3694 3797 3291 
L 3216 3247 
Q 3169 3681 2898 3903 
Q 2628 4125 2100 4125 
Q 1550 4125 1298 3923 
Q 1047 3722 1047 3438 
Q 1047 3191 1225 3031 
Q 1400 2872 2139 2705 
Q 2878 2538 3153 2413 
Q 3553 2228 3743 1945 
Q 3934 1663 3934 1294 
Q 3934 928 3725 604 
Q 3516 281 3123 101 
Q 2731 -78 2241 -78 
Q 1619 -78 1198 103 
Q 778 284 539 648 
Q 300 1013 288 1472 
z
" transform="scale(0.015625)"/>
      <path id="ArialMT-3a" d="M 578 2678 
L 578 3319 
L 1219 3319 
L 1219 2678 
L 578 2678 
z
M 578 0 
L 578 641 
L 1219 641 
L 1219 0 
L 578 0 
z
" transform="scale(0.015625)"/>
      <path id="ArialMT-56" d="M 1803 0 
L 28 4581 
L 684 4581 
L 1875 1253 
Q 2019 853 2116 503 
Q 2222 878 2363 1253 
L 3600 4581 
L 4219 4581 
L 2425 0 
L 1803 0 
z
" transform="scale(0.015625)"/>
      <path id="ArialMT-b2" d="M 78 2291 
Q 97 2469 225 2647 
Q 422 2916 872 3242 
Q 1322 3569 1406 3663 
Q 1522 3791 1522 3925 
Q 1522 4075 1412 4172 
Q 1303 4269 1091 4269 
Q 884 4269 782 4195 
Q 681 4122 616 3913 
L 144 3963 
Q 234 4309 457 4473 
Q 681 4638 1100 4638 
Q 1572 4638 1792 4453 
Q 2013 4269 2013 4003 
Q 2013 3741 1828 3506 
Q 1688 3331 1188 2972 
Q 928 2781 819 2669 
L 2025 2669 
L 2025 2291 
L 78 2291 
z
" transform="scale(0.015625)"/>
     </defs>
     <use xlink:href="#ArialMT-70"/>
     <use xlink:href="#ArialMT-49" transform="translate(55.615234 0)"/>
     <use xlink:href="#ArialMT-43" transform="translate(83.398438 0)"/>
     <use xlink:href="#ArialMT-35" transform="translate(155.615234 0)"/>
     <use xlink:href="#ArialMT-30" transform="translate(211.230469 0)"/>
     <use xlink:href="#ArialMT-20" transform="translate(266.845703 0)"/>
     <use xlink:href="#ArialMT-4d" transform="translate(294.628906 0)"/>
     <use xlink:href="#ArialMT-45" transform="translate(377.929688 0)"/>
     <use xlink:href="#ArialMT-52" transform="translate(444.628906 0)"/>
     <use xlink:href="#ArialMT-53" transform="translate(516.845703 0)"/>
     <use xlink:href="#ArialMT-3a" transform="translate(583.544922 0)"/>
     <use xlink:href="#ArialMT-20" transform="translate(611.328125 0)"/>
     <use xlink:href="#ArialMT-43" transform="translate(639.111328 0)"/>
     <use xlink:href="#ArialMT-56" transform="translate(711.328125 0)"/>
     <use xlink:href="#ArialMT-20" transform="translate(778.027344 0)"/>
     <use xlink:href="#ArialMT-52" transform="translate(805.810547 0)"/>
     <use xlink:href="#ArialMT-b2" transform="translate(878.027344 0)"/>
    </g>
   </g>
  </g>
  <g id="axes_2">
   <g id="patch_17">
    <path d="M 400.565625 196.615385 
L 716.99976 196.615385 
L 716.99976 17.735865 
L 400.565625 17.735865 
z
" style="fill: #ffffff"/>
   </g>
   <g id="patch_18">
    <path d="M 408.476478 196.615385 
L 440.119892 196.615385 
L 440.119892 109.93203 
L 408.476478 109.93203 
z
" clip-path="url(#paf381995f5)" style="fill: #7936bd; opacity: 0.8; stroke: #000000; stroke-linejoin: miter"/>
   </g>
   <g id="patch_19">
    <path d="M 487.585012 196.615385 
L 519.228426 196.615385 
L 519.228426 102.137686 
L 487.585012 102.137686 
z
" clip-path="url(#paf381995f5)" style="fill: #7936bd; opacity: 0.8; stroke: #000000; stroke-linejoin: miter"/>
   </g>
   <g id="patch_20">
    <path d="M 566.693546 196.615385 
L 598.336959 196.615385 
L 598.336959 92.911289 
L 566.693546 92.911289 
z
" clip-path="url(#paf381995f5)" style="fill: #7936bd; opacity: 0.8; stroke: #000000; stroke-linejoin: miter"/>
   </g>
   <g id="patch_21">
    <path d="M 645.80208 196.615385 
L 677.445493 196.615385 
L 677.445493 103.071107 
L 645.80208 103.071107 
z
" clip-path="url(#paf381995f5)" style="fill: #7936bd; opacity: 0.8; stroke: #000000; stroke-linejoin: miter"/>
   </g>
   <g id="patch_22">
    <path d="M 440.119892 196.615385 
L 471.763305 196.615385 
L 471.763305 60.214552 
L 440.119892 60.214552 
z
" clip-path="url(#paf381995f5)" style="fill: #c9941d; opacity: 0.8; stroke: #000000; stroke-linejoin: miter"/>
   </g>
   <g id="patch_23">
    <path d="M 519.228426 196.615385 
L 550.871839 196.615385 
L 550.871839 85.781679 
L 519.228426 85.781679 
z
" clip-path="url(#paf381995f5)" style="fill: #c9941d; opacity: 0.8; stroke: #000000; stroke-linejoin: miter"/>
   </g>
   <g id="patch_24">
    <path d="M 598.336959 196.615385 
L 629.980373 196.615385 
L 629.980373 60.847965 
L 598.336959 60.847965 
z
" clip-path="url(#paf381995f5)" style="fill: #c9941d; opacity: 0.8; stroke: #000000; stroke-linejoin: miter"/>
   </g>
   <g id="patch_25">
    <path d="M 677.445493 196.615385 
L 709.088907 196.615385 
L 709.088907 42.705667 
L 677.445493 42.705667 
z
" clip-path="url(#paf381995f5)" style="fill: #c9941d; opacity: 0.8; stroke: #000000; stroke-linejoin: miter"/>
   </g>
   <g id="patch_26">
    <path d="M 440.119892 196.615385 
L 440.119892 196.615385 
L 440.119892 196.615385 
L 440.119892 196.615385 
z
" clip-path="url(#paf381995f5)" style="fill: #7936bd; opacity: 0.8; stroke: #000000; stroke-linejoin: miter"/>
   </g>
   <g id="patch_27">
    <path d="M 440.119892 196.615385 
L 440.119892 196.615385 
L 440.119892 196.615385 
L 440.119892 196.615385 
z
" clip-path="url(#paf381995f5)" style="fill: #c9941d; opacity: 0.8; stroke: #000000; stroke-linejoin: miter"/>
   </g>
   <g id="matplotlib.axis_3">
    <g id="xtick_5">
     <g id="line2d_20">
      <g>
       <use xlink:href="#mdb62badeb5" x="440.119892" y="196.615385" style="stroke: #000000; stroke-width: 0.8"/>
      </g>
     </g>
     <g id="text_14">
      <!-- morgan_fp -->
      <g transform="translate(416.218329 210.895072) scale(0.1 -0.1)">
       <use xlink:href="#ArialMT-6d"/>
       <use xlink:href="#ArialMT-6f" transform="translate(83.300781 0)"/>
       <use xlink:href="#ArialMT-72" transform="translate(138.916016 0)"/>
       <use xlink:href="#ArialMT-67" transform="translate(172.216797 0)"/>
       <use xlink:href="#ArialMT-61" transform="translate(227.832031 0)"/>
       <use xlink:href="#ArialMT-6e" transform="translate(283.447266 0)"/>
       <use xlink:href="#ArialMT-5f" transform="translate(339.0625 0)"/>
       <use xlink:href="#ArialMT-66" transform="translate(394.677734 0)"/>
       <use xlink:href="#ArialMT-70" transform="translate(422.460938 0)"/>
      </g>
     </g>
    </g>
    <g id="xtick_6">
     <g id="line2d_21">
      <g>
       <use xlink:href="#mdb62badeb5" x="519.228426" y="196.615385" style="stroke: #000000; stroke-width: 0.8"/>
      </g>
     </g>
     <g id="text_15">
      <!-- rdkit_desc -->
      <g transform="translate(496.441707 210.773198) scale(0.1 -0.1)">
       <use xlink:href="#ArialMT-72"/>
       <use xlink:href="#ArialMT-64" transform="translate(33.300781 0)"/>
       <use xlink:href="#ArialMT-6b" transform="translate(88.916016 0)"/>
       <use xlink:href="#ArialMT-69" transform="translate(138.916016 0)"/>
       <use xlink:href="#ArialMT-74" transform="translate(161.132812 0)"/>
       <use xlink:href="#ArialMT-5f" transform="translate(188.916016 0)"/>
       <use xlink:href="#ArialMT-64" transform="translate(244.53125 0)"/>
       <use xlink:href="#ArialMT-65" transform="translate(300.146484 0)"/>
       <use xlink:href="#ArialMT-73" transform="translate(355.761719 0)"/>
       <use xlink:href="#ArialMT-63" transform="translate(405.761719 0)"/>
      </g>
     </g>
    </g>
    <g id="xtick_7">
     <g id="line2d_22">
      <g>
       <use xlink:href="#mdb62badeb5" x="598.336959" y="196.615385" style="stroke: #000000; stroke-width: 0.8"/>
      </g>
     </g>
     <g id="text_16">
      <!-- rdkit_frags -->
      <g transform="translate(574.996334 210.895072) scale(0.1 -0.1)">
       <use xlink:href="#ArialMT-72"/>
       <use xlink:href="#ArialMT-64" transform="translate(33.300781 0)"/>
       <use xlink:href="#ArialMT-6b" transform="translate(88.916016 0)"/>
       <use xlink:href="#ArialMT-69" transform="translate(138.916016 0)"/>
       <use xlink:href="#ArialMT-74" transform="translate(161.132812 0)"/>
       <use xlink:href="#ArialMT-5f" transform="translate(188.916016 0)"/>
       <use xlink:href="#ArialMT-66" transform="translate(244.53125 0)"/>
       <use xlink:href="#ArialMT-72" transform="translate(272.314453 0)"/>
       <use xlink:href="#ArialMT-61" transform="translate(305.615234 0)"/>
       <use xlink:href="#ArialMT-67" transform="translate(361.230469 0)"/>
       <use xlink:href="#ArialMT-73" transform="translate(416.845703 0)"/>
      </g>
     </g>
    </g>
    <g id="xtick_8">
     <g id="line2d_23">
      <g>
       <use xlink:href="#mdb62badeb5" x="677.445493" y="196.615385" style="stroke: #000000; stroke-width: 0.8"/>
      </g>
     </g>
     <g id="text_17">
      <!-- hybrid -->
      <g transform="translate(663.828306 210.773198) scale(0.1 -0.1)">
       <use xlink:href="#ArialMT-68"/>
       <use xlink:href="#ArialMT-79" transform="translate(55.615234 0)"/>
       <use xlink:href="#ArialMT-62" transform="translate(105.615234 0)"/>
       <use xlink:href="#ArialMT-72" transform="translate(161.230469 0)"/>
       <use xlink:href="#ArialMT-69" transform="translate(194.53125 0)"/>
       <use xlink:href="#ArialMT-64" transform="translate(216.748047 0)"/>
      </g>
     </g>
    </g>
   </g>
   <g id="matplotlib.axis_4">
    <g id="ytick_8">
     <g id="line2d_24">
      <g>
       <use xlink:href="#mf53e77b1b8" x="400.565625" y="196.615385" style="stroke: #000000; stroke-width: 0.8"/>
      </g>
     </g>
     <g id="text_18">
      <!-- 0.0 -->
      <g transform="translate(379.665625 200.194291) scale(0.1 -0.1)">
       <use xlink:href="#ArialMT-30"/>
       <use xlink:href="#ArialMT-2e" transform="translate(55.615234 0)"/>
       <use xlink:href="#ArialMT-30" transform="translate(83.398438 0)"/>
      </g>
     </g>
    </g>
    <g id="ytick_9">
     <g id="line2d_25">
      <g>
       <use xlink:href="#mf53e77b1b8" x="400.565625" y="172.636808" style="stroke: #000000; stroke-width: 0.8"/>
      </g>
     </g>
     <g id="text_19">
      <!-- 0.1 -->
      <g transform="translate(379.665625 176.215714) scale(0.1 -0.1)">
       <use xlink:href="#ArialMT-30"/>
       <use xlink:href="#ArialMT-2e" transform="translate(55.615234 0)"/>
       <use xlink:href="#ArialMT-31" transform="translate(83.398438 0)"/>
      </g>
     </g>
    </g>
    <g id="ytick_10">
     <g id="line2d_26">
      <g>
       <use xlink:href="#mf53e77b1b8" x="400.565625" y="148.65823" style="stroke: #000000; stroke-width: 0.8"/>
      </g>
     </g>
     <g id="text_20">
      <!-- 0.2 -->
      <g transform="translate(379.665625 152.237136) scale(0.1 -0.1)">
       <use xlink:href="#ArialMT-30"/>
       <use xlink:href="#ArialMT-2e" transform="translate(55.615234 0)"/>
       <use xlink:href="#ArialMT-32" transform="translate(83.398438 0)"/>
      </g>
     </g>
    </g>
    <g id="ytick_11">
     <g id="line2d_27">
      <g>
       <use xlink:href="#mf53e77b1b8" x="400.565625" y="124.679653" style="stroke: #000000; stroke-width: 0.8"/>
      </g>
     </g>
     <g id="text_21">
      <!-- 0.3 -->
      <g transform="translate(379.665625 128.258559) scale(0.1 -0.1)">
       <use xlink:href="#ArialMT-30"/>
       <use xlink:href="#ArialMT-2e" transform="translate(55.615234 0)"/>
       <use xlink:href="#ArialMT-33" transform="translate(83.398438 0)"/>
      </g>
     </g>
    </g>
    <g id="ytick_12">
     <g id="line2d_28">
      <g>
       <use xlink:href="#mf53e77b1b8" x="400.565625" y="100.701075" style="stroke: #000000; stroke-width: 0.8"/>
      </g>
     </g>
     <g id="text_22">
      <!-- 0.4 -->
      <g transform="translate(379.665625 104.279982) scale(0.1 -0.1)">
       <use xlink:href="#ArialMT-30"/>
       <use xlink:href="#ArialMT-2e" transform="translate(55.615234 0)"/>
       <use xlink:href="#ArialMT-34" transform="translate(83.398438 0)"/>
      </g>
     </g>
    </g>
    <g id="ytick_13">
     <g id="line2d_29">
      <g>
       <use xlink:href="#mf53e77b1b8" x="400.565625" y="76.722498" style="stroke: #000000; stroke-width: 0.8"/>
      </g>
     </g>
     <g id="text_23">
      <!-- 0.5 -->
      <g transform="translate(379.665625 80.301404) scale(0.1 -0.1)">
       <use xlink:href="#ArialMT-30"/>
       <use xlink:href="#ArialMT-2e" transform="translate(55.615234 0)"/>
       <use xlink:href="#ArialMT-35" transform="translate(83.398438 0)"/>
      </g>
     </g>
    </g>
    <g id="ytick_14">
     <g id="line2d_30">
      <g>
       <use xlink:href="#mf53e77b1b8" x="400.565625" y="52.743921" style="stroke: #000000; stroke-width: 0.8"/>
      </g>
     </g>
     <g id="text_24">
      <!-- 0.6 -->
      <g transform="translate(379.665625 56.322827) scale(0.1 -0.1)">
       <defs>
        <path id="ArialMT-36" d="M 3184 3459 
L 2625 3416 
Q 2550 3747 2413 3897 
Q 2184 4138 1850 4138 
Q 1581 4138 1378 3988 
Q 1113 3794 959 3422 
Q 806 3050 800 2363 
Q 1003 2672 1297 2822 
Q 1591 2972 1913 2972 
Q 2475 2972 2870 2558 
Q 3266 2144 3266 1488 
Q 3266 1056 3080 686 
Q 2894 316 2569 119 
Q 2244 -78 1831 -78 
Q 1128 -78 684 439 
Q 241 956 241 2144 
Q 241 3472 731 4075 
Q 1159 4600 1884 4600 
Q 2425 4600 2770 4297 
Q 3116 3994 3184 3459 
z
M 888 1484 
Q 888 1194 1011 928 
Q 1134 663 1356 523 
Q 1578 384 1822 384 
Q 2178 384 2434 671 
Q 2691 959 2691 1453 
Q 2691 1928 2437 2201 
Q 2184 2475 1800 2475 
Q 1419 2475 1153 2201 
Q 888 1928 888 1484 
z
" transform="scale(0.015625)"/>
       </defs>
       <use xlink:href="#ArialMT-30"/>
       <use xlink:href="#ArialMT-2e" transform="translate(55.615234 0)"/>
       <use xlink:href="#ArialMT-36" transform="translate(83.398438 0)"/>
      </g>
     </g>
    </g>
    <g id="ytick_15">
     <g id="line2d_31">
      <g>
       <use xlink:href="#mf53e77b1b8" x="400.565625" y="28.765343" style="stroke: #000000; stroke-width: 0.8"/>
      </g>
     </g>
     <g id="text_25">
      <!-- 0.7 -->
      <g transform="translate(379.665625 32.344249) scale(0.1 -0.1)">
       <defs>
        <path id="ArialMT-37" d="M 303 3981 
L 303 4522 
L 3269 4522 
L 3269 4084 
Q 2831 3619 2401 2847 
Q 1972 2075 1738 1259 
Q 1569 684 1522 0 
L 944 0 
Q 953 541 1156 1306 
Q 1359 2072 1739 2783 
Q 2119 3494 2547 3981 
L 303 3981 
z
" transform="scale(0.015625)"/>
       </defs>
       <use xlink:href="#ArialMT-30"/>
       <use xlink:href="#ArialMT-2e" transform="translate(55.615234 0)"/>
       <use xlink:href="#ArialMT-37" transform="translate(83.398438 0)"/>
      </g>
     </g>
    </g>
    <g id="text_26">
     <!-- r2 -->
     <g transform="translate(373.678125 111.620937) rotate(-90) scale(0.1 -0.1)">
      <use xlink:href="#ArialMT-72"/>
      <use xlink:href="#ArialMT-32" transform="translate(33.300781 0)"/>
     </g>
    </g>
   </g>
   <g id="line2d_32">
    <path d="M 420.342758 143.573355 
L 428.253612 143.573355 
M 424.298185 143.573355 
L 424.298185 76.290705 
M 420.342758 76.290705 
L 428.253612 76.290705 
" clip-path="url(#paf381995f5)" style="fill: none; stroke: #424242; stroke-width: 0.8; stroke-linecap: square"/>
   </g>
   <g id="line2d_33">
    <path d="M 499.451292 122.639635 
L 507.362146 122.639635 
M 503.406719 122.639635 
L 503.406719 81.635737 
M 499.451292 81.635737 
L 507.362146 81.635737 
" clip-path="url(#paf381995f5)" style="fill: none; stroke: #424242; stroke-width: 0.8; stroke-linecap: square"/>
   </g>
   <g id="line2d_34">
    <path d="M 578.559826 116.079664 
L 586.470679 116.079664 
M 582.515253 116.079664 
L 582.515253 69.742914 
M 578.559826 69.742914 
L 586.470679 69.742914 
" clip-path="url(#paf381995f5)" style="fill: none; stroke: #424242; stroke-width: 0.8; stroke-linecap: square"/>
   </g>
   <g id="line2d_35">
    <path d="M 657.66836 132.367498 
L 665.579213 132.367498 
M 661.623786 132.367498 
L 661.623786 73.774716 
M 657.66836 73.774716 
L 665.579213 73.774716 
" clip-path="url(#paf381995f5)" style="fill: none; stroke: #424242; stroke-width: 0.8; stroke-linecap: square"/>
   </g>
   <g id="line2d_36">
    <path d="M 451.986172 79.502034 
L 459.897025 79.502034 
M 455.941599 79.502034 
L 455.941599 40.92707 
M 451.986172 40.92707 
L 459.897025 40.92707 
" clip-path="url(#paf381995f5)" style="fill: none; stroke: #424242; stroke-width: 0.8; stroke-linecap: square"/>
   </g>
   <g id="line2d_37">
    <path d="M 531.094706 110.207889 
L 539.005559 110.207889 
M 535.050132 110.207889 
L 535.050132 61.355468 
M 531.094706 61.355468 
L 539.005559 61.355468 
" clip-path="url(#paf381995f5)" style="fill: none; stroke: #424242; stroke-width: 0.8; stroke-linecap: square"/>
   </g>
   <g id="line2d_38">
    <path d="M 610.203239 78.585521 
L 618.114093 78.585521 
M 614.158666 78.585521 
L 614.158666 43.11041 
M 610.203239 43.11041 
L 618.114093 43.11041 
" clip-path="url(#paf381995f5)" style="fill: none; stroke: #424242; stroke-width: 0.8; stroke-linecap: square"/>
   </g>
   <g id="line2d_39">
    <path d="M 689.311773 59.157396 
L 697.222627 59.157396 
M 693.2672 59.157396 
L 693.2672 26.253937 
M 689.311773 26.253937 
L 697.222627 26.253937 
" clip-path="url(#paf381995f5)" style="fill: none; stroke: #424242; stroke-width: 0.8; stroke-linecap: square"/>
   </g>
   <g id="patch_28">
    <path d="M 400.565625 196.615385 
L 400.565625 17.735865 
" style="fill: none; stroke: #000000; stroke-width: 0.8; stroke-linejoin: miter; stroke-linecap: square"/>
   </g>
   <g id="patch_29">
    <path d="M 716.99976 196.615385 
L 716.99976 17.735865 
" style="fill: none; stroke: #000000; stroke-width: 0.8; stroke-linejoin: miter; stroke-linecap: square"/>
   </g>
   <g id="patch_30">
    <path d="M 400.565625 196.615385 
L 716.99976 196.615385 
" style="fill: none; stroke: #000000; stroke-width: 0.8; stroke-linejoin: miter; stroke-linecap: square"/>
   </g>
   <g id="patch_31">
    <path d="M 400.565625 17.735865 
L 716.99976 17.735865 
" style="fill: none; stroke: #000000; stroke-width: 0.8; stroke-linejoin: miter; stroke-linecap: square"/>
   </g>
   <g id="text_27">
    <!-- pIC50 SARS: CV R² -->
    <g transform="translate(505.099567 11.735865) scale(0.12 -0.12)">
     <defs>
      <path id="ArialMT-41" d="M -9 0 
L 1750 4581 
L 2403 4581 
L 4278 0 
L 3588 0 
L 3053 1388 
L 1138 1388 
L 634 0 
L -9 0 
z
M 1313 1881 
L 2866 1881 
L 2388 3150 
Q 2169 3728 2063 4100 
Q 1975 3659 1816 3225 
L 1313 1881 
z
" transform="scale(0.015625)"/>
     </defs>
     <use xlink:href="#ArialMT-70"/>
     <use xlink:href="#ArialMT-49" transform="translate(55.615234 0)"/>
     <use xlink:href="#ArialMT-43" transform="translate(83.398438 0)"/>
     <use xlink:href="#ArialMT-35" transform="translate(155.615234 0)"/>
     <use xlink:href="#ArialMT-30" transform="translate(211.230469 0)"/>
     <use xlink:href="#ArialMT-20" transform="translate(266.845703 0)"/>
     <use xlink:href="#ArialMT-53" transform="translate(294.628906 0)"/>
     <use xlink:href="#ArialMT-41" transform="translate(361.328125 0)"/>
     <use xlink:href="#ArialMT-52" transform="translate(428.027344 0)"/>
     <use xlink:href="#ArialMT-53" transform="translate(500.244141 0)"/>
     <use xlink:href="#ArialMT-3a" transform="translate(566.943359 0)"/>
     <use xlink:href="#ArialMT-20" transform="translate(594.726562 0)"/>
     <use xlink:href="#ArialMT-43" transform="translate(622.509766 0)"/>
     <use xlink:href="#ArialMT-56" transform="translate(694.726562 0)"/>
     <use xlink:href="#ArialMT-20" transform="translate(761.425781 0)"/>
     <use xlink:href="#ArialMT-52" transform="translate(789.208984 0)"/>
     <use xlink:href="#ArialMT-b2" transform="translate(861.425781 0)"/>
    </g>
   </g>
  </g>
  <g id="axes_3">
   <g id="patch_32">
    <path d="M 42.886178 412.615385 
L 359.320312 412.615385 
L 359.320312 233.735865 
L 42.886178 233.735865 
z
" style="fill: #ffffff"/>
   </g>
   <g id="patch_33">
    <path d="M 50.797031 412.615385 
L 82.440444 412.615385 
L 82.440444 255.319009 
L 50.797031 255.319009 
z
" clip-path="url(#pf69700ed09)" style="fill: #7936bd; opacity: 0.8; stroke: #000000; stroke-linejoin: miter"/>
   </g>
   <g id="patch_34">
    <path d="M 129.905565 412.615385 
L 161.548978 412.615385 
L 161.548978 286.051554 
L 129.905565 286.051554 
z
" clip-path="url(#pf69700ed09)" style="fill: #7936bd; opacity: 0.8; stroke: #000000; stroke-linejoin: miter"/>
   </g>
   <g id="patch_35">
    <path d="M 209.014098 412.615385 
L 240.657512 412.615385 
L 240.657512 281.084287 
L 209.014098 281.084287 
z
" clip-path="url(#pf69700ed09)" style="fill: #7936bd; opacity: 0.8; stroke: #000000; stroke-linejoin: miter"/>
   </g>
   <g id="patch_36">
    <path d="M 288.122632 412.615385 
L 319.766046 412.615385 
L 319.766046 255.048046 
L 288.122632 255.048046 
z
" clip-path="url(#pf69700ed09)" style="fill: #7936bd; opacity: 0.8; stroke: #000000; stroke-linejoin: miter"/>
   </g>
   <g id="patch_37">
    <path d="M 82.440444 412.615385 
L 114.083858 412.615385 
L 114.083858 285.939428 
L 82.440444 285.939428 
z
" clip-path="url(#pf69700ed09)" style="fill: #c9941d; opacity: 0.8; stroke: #000000; stroke-linejoin: miter"/>
   </g>
   <g id="patch_38">
    <path d="M 161.548978 412.615385 
L 193.192392 412.615385 
L 193.192392 276.332522 
L 161.548978 276.332522 
z
" clip-path="url(#pf69700ed09)" style="fill: #c9941d; opacity: 0.8; stroke: #000000; stroke-linejoin: miter"/>
   </g>
   <g id="patch_39">
    <path d="M 240.657512 412.615385 
L 272.300925 412.615385 
L 272.300925 282.344968 
L 240.657512 282.344968 
z
" clip-path="url(#pf69700ed09)" style="fill: #c9941d; opacity: 0.8; stroke: #000000; stroke-linejoin: miter"/>
   </g>
   <g id="patch_40">
    <path d="M 319.766046 412.615385 
L 351.409459 412.615385 
L 351.409459 287.760249 
L 319.766046 287.760249 
z
" clip-path="url(#pf69700ed09)" style="fill: #c9941d; opacity: 0.8; stroke: #000000; stroke-linejoin: miter"/>
   </g>
   <g id="patch_41">
    <path d="M 82.440444 412.615385 
L 82.440444 412.615385 
L 82.440444 412.615385 
L 82.440444 412.615385 
z
" clip-path="url(#pf69700ed09)" style="fill: #7936bd; opacity: 0.8; stroke: #000000; stroke-linejoin: miter"/>
   </g>
   <g id="patch_42">
    <path d="M 82.440444 412.615385 
L 82.440444 412.615385 
L 82.440444 412.615385 
L 82.440444 412.615385 
z
" clip-path="url(#pf69700ed09)" style="fill: #c9941d; opacity: 0.8; stroke: #000000; stroke-linejoin: miter"/>
   </g>
   <g id="matplotlib.axis_5">
    <g id="xtick_9">
     <g id="line2d_40">
      <g>
       <use xlink:href="#mdb62badeb5" x="82.440444" y="412.615385" style="stroke: #000000; stroke-width: 0.8"/>
      </g>
     </g>
     <g id="text_28">
      <!-- morgan_fp -->
      <g transform="translate(58.538882 426.895073) scale(0.1 -0.1)">
       <use xlink:href="#ArialMT-6d"/>
       <use xlink:href="#ArialMT-6f" transform="translate(83.300781 0)"/>
       <use xlink:href="#ArialMT-72" transform="translate(138.916016 0)"/>
       <use xlink:href="#ArialMT-67" transform="translate(172.216797 0)"/>
       <use xlink:href="#ArialMT-61" transform="translate(227.832031 0)"/>
       <use xlink:href="#ArialMT-6e" transform="translate(283.447266 0)"/>
       <use xlink:href="#ArialMT-5f" transform="translate(339.0625 0)"/>
       <use xlink:href="#ArialMT-66" transform="translate(394.677734 0)"/>
       <use xlink:href="#ArialMT-70" transform="translate(422.460938 0)"/>
      </g>
     </g>
    </g>
    <g id="xtick_10">
     <g id="line2d_41">
      <g>
       <use xlink:href="#mdb62badeb5" x="161.548978" y="412.615385" style="stroke: #000000; stroke-width: 0.8"/>
      </g>
     </g>
     <g id="text_29">
      <!-- rdkit_desc -->
      <g transform="translate(138.762259 426.773197) scale(0.1 -0.1)">
       <use xlink:href="#ArialMT-72"/>
       <use xlink:href="#ArialMT-64" transform="translate(33.300781 0)"/>
       <use xlink:href="#ArialMT-6b" transform="translate(88.916016 0)"/>
       <use xlink:href="#ArialMT-69" transform="translate(138.916016 0)"/>
       <use xlink:href="#ArialMT-74" transform="translate(161.132812 0)"/>
       <use xlink:href="#ArialMT-5f" transform="translate(188.916016 0)"/>
       <use xlink:href="#ArialMT-64" transform="translate(244.53125 0)"/>
       <use xlink:href="#ArialMT-65" transform="translate(300.146484 0)"/>
       <use xlink:href="#ArialMT-73" transform="translate(355.761719 0)"/>
       <use xlink:href="#ArialMT-63" transform="translate(405.761719 0)"/>
      </g>
     </g>
    </g>
    <g id="xtick_11">
     <g id="line2d_42">
      <g>
       <use xlink:href="#mdb62badeb5" x="240.657512" y="412.615385" style="stroke: #000000; stroke-width: 0.8"/>
      </g>
     </g>
     <g id="text_30">
      <!-- rdkit_frags -->
      <g transform="translate(217.316887 426.895073) scale(0.1 -0.1)">
       <use xlink:href="#ArialMT-72"/>
       <use xlink:href="#ArialMT-64" transform="translate(33.300781 0)"/>
       <use xlink:href="#ArialMT-6b" transform="translate(88.916016 0)"/>
       <use xlink:href="#ArialMT-69" transform="translate(138.916016 0)"/>
       <use xlink:href="#ArialMT-74" transform="translate(161.132812 0)"/>
       <use xlink:href="#ArialMT-5f" transform="translate(188.916016 0)"/>
       <use xlink:href="#ArialMT-66" transform="translate(244.53125 0)"/>
       <use xlink:href="#ArialMT-72" transform="translate(272.314453 0)"/>
       <use xlink:href="#ArialMT-61" transform="translate(305.615234 0)"/>
       <use xlink:href="#ArialMT-67" transform="translate(361.230469 0)"/>
       <use xlink:href="#ArialMT-73" transform="translate(416.845703 0)"/>
      </g>
     </g>
    </g>
    <g id="xtick_12">
     <g id="line2d_43">
      <g>
       <use xlink:href="#mdb62badeb5" x="319.766046" y="412.615385" style="stroke: #000000; stroke-width: 0.8"/>
      </g>
     </g>
     <g id="text_31">
      <!-- hybrid -->
      <g transform="translate(306.148858 426.773197) scale(0.1 -0.1)">
       <use xlink:href="#ArialMT-68"/>
       <use xlink:href="#ArialMT-79" transform="translate(55.615234 0)"/>
       <use xlink:href="#ArialMT-62" transform="translate(105.615234 0)"/>
       <use xlink:href="#ArialMT-72" transform="translate(161.230469 0)"/>
       <use xlink:href="#ArialMT-69" transform="translate(194.53125 0)"/>
       <use xlink:href="#ArialMT-64" transform="translate(216.748047 0)"/>
      </g>
     </g>
    </g>
   </g>
   <g id="matplotlib.axis_6">
    <g id="ytick_16">
     <g id="line2d_44">
      <g>
       <use xlink:href="#mf53e77b1b8" x="42.886178" y="412.615385" style="stroke: #000000; stroke-width: 0.8"/>
      </g>
     </g>
     <g id="text_32">
      <!-- 0.0 -->
      <g transform="translate(21.986178 416.194291) scale(0.1 -0.1)">
       <use xlink:href="#ArialMT-30"/>
       <use xlink:href="#ArialMT-2e" transform="translate(55.615234 0)"/>
       <use xlink:href="#ArialMT-30" transform="translate(83.398438 0)"/>
      </g>
     </g>
    </g>
    <g id="ytick_17">
     <g id="line2d_45">
      <g>
       <use xlink:href="#mf53e77b1b8" x="42.886178" y="389.453166" style="stroke: #000000; stroke-width: 0.8"/>
      </g>
     </g>
     <g id="text_33">
      <!-- 0.1 -->
      <g transform="translate(21.986178 393.032072) scale(0.1 -0.1)">
       <use xlink:href="#ArialMT-30"/>
       <use xlink:href="#ArialMT-2e" transform="translate(55.615234 0)"/>
       <use xlink:href="#ArialMT-31" transform="translate(83.398438 0)"/>
      </g>
     </g>
    </g>
    <g id="ytick_18">
     <g id="line2d_46">
      <g>
       <use xlink:href="#mf53e77b1b8" x="42.886178" y="366.290946" style="stroke: #000000; stroke-width: 0.8"/>
      </g>
     </g>
     <g id="text_34">
      <!-- 0.2 -->
      <g transform="translate(21.986178 369.869853) scale(0.1 -0.1)">
       <use xlink:href="#ArialMT-30"/>
       <use xlink:href="#ArialMT-2e" transform="translate(55.615234 0)"/>
       <use xlink:href="#ArialMT-32" transform="translate(83.398438 0)"/>
      </g>
     </g>
    </g>
    <g id="ytick_19">
     <g id="line2d_47">
      <g>
       <use xlink:href="#mf53e77b1b8" x="42.886178" y="343.128727" style="stroke: #000000; stroke-width: 0.8"/>
      </g>
     </g>
     <g id="text_35">
      <!-- 0.3 -->
      <g transform="translate(21.986178 346.707633) scale(0.1 -0.1)">
       <use xlink:href="#ArialMT-30"/>
       <use xlink:href="#ArialMT-2e" transform="translate(55.615234 0)"/>
       <use xlink:href="#ArialMT-33" transform="translate(83.398438 0)"/>
      </g>
     </g>
    </g>
    <g id="ytick_20">
     <g id="line2d_48">
      <g>
       <use xlink:href="#mf53e77b1b8" x="42.886178" y="319.966508" style="stroke: #000000; stroke-width: 0.8"/>
      </g>
     </g>
     <g id="text_36">
      <!-- 0.4 -->
      <g transform="translate(21.986178 323.545414) scale(0.1 -0.1)">
       <use xlink:href="#ArialMT-30"/>
       <use xlink:href="#ArialMT-2e" transform="translate(55.615234 0)"/>
       <use xlink:href="#ArialMT-34" transform="translate(83.398438 0)"/>
      </g>
     </g>
    </g>
    <g id="ytick_21">
     <g id="line2d_49">
      <g>
       <use xlink:href="#mf53e77b1b8" x="42.886178" y="296.804289" style="stroke: #000000; stroke-width: 0.8"/>
      </g>
     </g>
     <g id="text_37">
      <!-- 0.5 -->
      <g transform="translate(21.986178 300.383195) scale(0.1 -0.1)">
       <use xlink:href="#ArialMT-30"/>
       <use xlink:href="#ArialMT-2e" transform="translate(55.615234 0)"/>
       <use xlink:href="#ArialMT-35" transform="translate(83.398438 0)"/>
      </g>
     </g>
    </g>
    <g id="ytick_22">
     <g id="line2d_50">
      <g>
       <use xlink:href="#mf53e77b1b8" x="42.886178" y="273.642069" style="stroke: #000000; stroke-width: 0.8"/>
      </g>
     </g>
     <g id="text_38">
      <!-- 0.6 -->
      <g transform="translate(21.986178 277.220976) scale(0.1 -0.1)">
       <use xlink:href="#ArialMT-30"/>
       <use xlink:href="#ArialMT-2e" transform="translate(55.615234 0)"/>
       <use xlink:href="#ArialMT-36" transform="translate(83.398438 0)"/>
      </g>
     </g>
    </g>
    <g id="ytick_23">
     <g id="line2d_51">
      <g>
       <use xlink:href="#mf53e77b1b8" x="42.886178" y="250.47985" style="stroke: #000000; stroke-width: 0.8"/>
      </g>
     </g>
     <g id="text_39">
      <!-- 0.7 -->
      <g transform="translate(21.986178 254.058756) scale(0.1 -0.1)">
       <use xlink:href="#ArialMT-30"/>
       <use xlink:href="#ArialMT-2e" transform="translate(55.615234 0)"/>
       <use xlink:href="#ArialMT-37" transform="translate(83.398438 0)"/>
      </g>
     </g>
    </g>
    <g id="text_40">
     <!-- mae -->
     <g transform="translate(15.998678 332.901406) rotate(-90) scale(0.1 -0.1)">
      <use xlink:href="#ArialMT-6d"/>
      <use xlink:href="#ArialMT-61" transform="translate(83.300781 0)"/>
      <use xlink:href="#ArialMT-65" transform="translate(138.916016 0)"/>
     </g>
    </g>
   </g>
   <g id="line2d_52">
    <path d="M 62.663311 267.984761 
L 70.574164 267.984761 
M 66.618738 267.984761 
L 66.618738 242.653257 
M 62.663311 242.653257 
L 70.574164 242.653257 
" clip-path="url(#pf69700ed09)" style="fill: none; stroke: #424242; stroke-width: 0.8; stroke-linecap: square"/>
   </g>
   <g id="line2d_53">
    <path d="M 141.771845 296.222837 
L 149.682698 296.222837 
M 145.727271 296.222837 
L 145.727271 275.880272 
M 141.771845 275.880272 
L 149.682698 275.880272 
" clip-path="url(#pf69700ed09)" style="fill: none; stroke: #424242; stroke-width: 0.8; stroke-linecap: square"/>
   </g>
   <g id="line2d_54">
    <path d="M 220.880378 292.251194 
L 228.791232 292.251194 
M 224.835805 292.251194 
L 224.835805 269.91738 
M 220.880378 269.91738 
L 228.791232 269.91738 
" clip-path="url(#pf69700ed09)" style="fill: none; stroke: #424242; stroke-width: 0.8; stroke-linecap: square"/>
   </g>
   <g id="line2d_55">
    <path d="M 299.988912 267.842155 
L 307.899766 267.842155 
M 303.944339 267.842155 
L 303.944339 242.253937 
M 299.988912 242.253937 
L 307.899766 242.253937 
" clip-path="url(#pf69700ed09)" style="fill: none; stroke: #424242; stroke-width: 0.8; stroke-linecap: square"/>
   </g>
   <g id="line2d_56">
    <path d="M 94.306724 297.519833 
L 102.217578 297.519833 
M 98.262151 297.519833 
L 98.262151 274.359024 
M 94.306724 274.359024 
L 102.217578 274.359024 
" clip-path="url(#pf69700ed09)" style="fill: none; stroke: #424242; stroke-width: 0.8; stroke-linecap: square"/>
   </g>
   <g id="line2d_57">
    <path d="M 173.415258 286.016298 
L 181.326112 286.016298 
M 177.370685 286.016298 
L 177.370685 266.648745 
M 173.415258 266.648745 
L 181.326112 266.648745 
" clip-path="url(#pf69700ed09)" style="fill: none; stroke: #424242; stroke-width: 0.8; stroke-linecap: square"/>
   </g>
   <g id="line2d_58">
    <path d="M 252.523792 296.357451 
L 260.434645 296.357451 
M 256.479219 296.357451 
L 256.479219 268.332486 
M 252.523792 268.332486 
L 260.434645 268.332486 
" clip-path="url(#pf69700ed09)" style="fill: none; stroke: #424242; stroke-width: 0.8; stroke-linecap: square"/>
   </g>
   <g id="line2d_59">
    <path d="M 331.632326 299.254723 
L 339.543179 299.254723 
M 335.587752 299.254723 
L 335.587752 276.265775 
M 331.632326 276.265775 
L 339.543179 276.265775 
" clip-path="url(#pf69700ed09)" style="fill: none; stroke: #424242; stroke-width: 0.8; stroke-linecap: square"/>
   </g>
   <g id="patch_43">
    <path d="M 42.886178 412.615385 
L 42.886178 233.735865 
" style="fill: none; stroke: #000000; stroke-width: 0.8; stroke-linejoin: miter; stroke-linecap: square"/>
   </g>
   <g id="patch_44">
    <path d="M 359.320312 412.615385 
L 359.320312 233.735865 
" style="fill: none; stroke: #000000; stroke-width: 0.8; stroke-linejoin: miter; stroke-linecap: square"/>
   </g>
   <g id="patch_45">
    <path d="M 42.886178 412.615385 
L 359.320312 412.615385 
" style="fill: none; stroke: #000000; stroke-width: 0.8; stroke-linejoin: miter; stroke-linecap: square"/>
   </g>
   <g id="patch_46">
    <path d="M 42.886178 233.735865 
L 359.320312 233.735865 
" style="fill: none; stroke: #000000; stroke-width: 0.8; stroke-linejoin: miter; stroke-linecap: square"/>
   </g>
   <g id="text_41">
    <!-- pIC50 MERS: CV MAE -->
    <g transform="translate(139.753245 227.735865) scale(0.12 -0.12)">
     <use xlink:href="#ArialMT-70"/>
     <use xlink:href="#ArialMT-49" transform="translate(55.615234 0)"/>
     <use xlink:href="#ArialMT-43" transform="translate(83.398438 0)"/>
     <use xlink:href="#ArialMT-35" transform="translate(155.615234 0)"/>
     <use xlink:href="#ArialMT-30" transform="translate(211.230469 0)"/>
     <use xlink:href="#ArialMT-20" transform="translate(266.845703 0)"/>
     <use xlink:href="#ArialMT-4d" transform="translate(294.628906 0)"/>
     <use xlink:href="#ArialMT-45" transform="translate(377.929688 0)"/>
     <use xlink:href="#ArialMT-52" transform="translate(444.628906 0)"/>
     <use xlink:href="#ArialMT-53" transform="translate(516.845703 0)"/>
     <use xlink:href="#ArialMT-3a" transform="translate(583.544922 0)"/>
     <use xlink:href="#ArialMT-20" transform="translate(611.328125 0)"/>
     <use xlink:href="#ArialMT-43" transform="translate(639.111328 0)"/>
     <use xlink:href="#ArialMT-56" transform="translate(711.328125 0)"/>
     <use xlink:href="#ArialMT-20" transform="translate(778.027344 0)"/>
     <use xlink:href="#ArialMT-4d" transform="translate(805.810547 0)"/>
     <use xlink:href="#ArialMT-41" transform="translate(889.111328 0)"/>
     <use xlink:href="#ArialMT-45" transform="translate(955.810547 0)"/>
    </g>
   </g>
  </g>
  <g id="axes_4">
   <g id="patch_47">
    <path d="M 400.565625 412.615385 
L 716.99976 412.615385 
L 716.99976 233.735865 
L 400.565625 233.735865 
z
" style="fill: #ffffff"/>
   </g>
   <g id="patch_48">
    <path d="M 408.476478 412.615385 
L 440.119892 412.615385 
L 440.119892 258.648185 
L 408.476478 258.648185 
z
" clip-path="url(#pfff2d68634)" style="fill: #7936bd; opacity: 0.8; stroke: #000000; stroke-linejoin: miter"/>
   </g>
   <g id="patch_49">
    <path d="M 487.585012 412.615385 
L 519.228426 412.615385 
L 519.228426 250.752911 
L 487.585012 250.752911 
z
" clip-path="url(#pfff2d68634)" style="fill: #7936bd; opacity: 0.8; stroke: #000000; stroke-linejoin: miter"/>
   </g>
   <g id="patch_50">
    <path d="M 566.693546 412.615385 
L 598.336959 412.615385 
L 598.336959 262.070819 
L 566.693546 262.070819 
z
" clip-path="url(#pfff2d68634)" style="fill: #7936bd; opacity: 0.8; stroke: #000000; stroke-linejoin: miter"/>
   </g>
   <g id="patch_51">
    <path d="M 645.80208 412.615385 
L 677.445493 412.615385 
L 677.445493 264.375954 
L 645.80208 264.375954 
z
" clip-path="url(#pfff2d68634)" style="fill: #7936bd; opacity: 0.8; stroke: #000000; stroke-linejoin: miter"/>
   </g>
   <g id="patch_52">
    <path d="M 440.119892 412.615385 
L 471.763305 412.615385 
L 471.763305 291.206456 
L 440.119892 291.206456 
z
" clip-path="url(#pfff2d68634)" style="fill: #c9941d; opacity: 0.8; stroke: #000000; stroke-linejoin: miter"/>
   </g>
   <g id="patch_53">
    <path d="M 519.228426 412.615385 
L 550.871839 412.615385 
L 550.871839 276.192503 
L 519.228426 276.192503 
z
" clip-path="url(#pfff2d68634)" style="fill: #c9941d; opacity: 0.8; stroke: #000000; stroke-linejoin: miter"/>
   </g>
   <g id="patch_54">
    <path d="M 598.336959 412.615385 
L 629.980373 412.615385 
L 629.980373 288.623292 
L 598.336959 288.623292 
z
" clip-path="url(#pfff2d68634)" style="fill: #c9941d; opacity: 0.8; stroke: #000000; stroke-linejoin: miter"/>
   </g>
   <g id="patch_55">
    <path d="M 677.445493 412.615385 
L 709.088907 412.615385 
L 709.088907 302.188853 
L 677.445493 302.188853 
z
" clip-path="url(#pfff2d68634)" style="fill: #c9941d; opacity: 0.8; stroke: #000000; stroke-linejoin: miter"/>
   </g>
   <g id="patch_56">
    <path d="M 440.119892 412.615385 
L 440.119892 412.615385 
L 440.119892 412.615385 
L 440.119892 412.615385 
z
" clip-path="url(#pfff2d68634)" style="fill: #7936bd; opacity: 0.8; stroke: #000000; stroke-linejoin: miter"/>
   </g>
   <g id="patch_57">
    <path d="M 440.119892 412.615385 
L 440.119892 412.615385 
L 440.119892 412.615385 
L 440.119892 412.615385 
z
" clip-path="url(#pfff2d68634)" style="fill: #c9941d; opacity: 0.8; stroke: #000000; stroke-linejoin: miter"/>
   </g>
   <g id="matplotlib.axis_7">
    <g id="xtick_13">
     <g id="line2d_60">
      <g>
       <use xlink:href="#mdb62badeb5" x="440.119892" y="412.615385" style="stroke: #000000; stroke-width: 0.8"/>
      </g>
     </g>
     <g id="text_42">
      <!-- morgan_fp -->
      <g transform="translate(416.218329 426.895073) scale(0.1 -0.1)">
       <use xlink:href="#ArialMT-6d"/>
       <use xlink:href="#ArialMT-6f" transform="translate(83.300781 0)"/>
       <use xlink:href="#ArialMT-72" transform="translate(138.916016 0)"/>
       <use xlink:href="#ArialMT-67" transform="translate(172.216797 0)"/>
       <use xlink:href="#ArialMT-61" transform="translate(227.832031 0)"/>
       <use xlink:href="#ArialMT-6e" transform="translate(283.447266 0)"/>
       <use xlink:href="#ArialMT-5f" transform="translate(339.0625 0)"/>
       <use xlink:href="#ArialMT-66" transform="translate(394.677734 0)"/>
       <use xlink:href="#ArialMT-70" transform="translate(422.460938 0)"/>
      </g>
     </g>
    </g>
    <g id="xtick_14">
     <g id="line2d_61">
      <g>
       <use xlink:href="#mdb62badeb5" x="519.228426" y="412.615385" style="stroke: #000000; stroke-width: 0.8"/>
      </g>
     </g>
     <g id="text_43">
      <!-- rdkit_desc -->
      <g transform="translate(496.441707 426.773197) scale(0.1 -0.1)">
       <use xlink:href="#ArialMT-72"/>
       <use xlink:href="#ArialMT-64" transform="translate(33.300781 0)"/>
       <use xlink:href="#ArialMT-6b" transform="translate(88.916016 0)"/>
       <use xlink:href="#ArialMT-69" transform="translate(138.916016 0)"/>
       <use xlink:href="#ArialMT-74" transform="translate(161.132812 0)"/>
       <use xlink:href="#ArialMT-5f" transform="translate(188.916016 0)"/>
       <use xlink:href="#ArialMT-64" transform="translate(244.53125 0)"/>
       <use xlink:href="#ArialMT-65" transform="translate(300.146484 0)"/>
       <use xlink:href="#ArialMT-73" transform="translate(355.761719 0)"/>
       <use xlink:href="#ArialMT-63" transform="translate(405.761719 0)"/>
      </g>
     </g>
    </g>
    <g id="xtick_15">
     <g id="line2d_62">
      <g>
       <use xlink:href="#mdb62badeb5" x="598.336959" y="412.615385" style="stroke: #000000; stroke-width: 0.8"/>
      </g>
     </g>
     <g id="text_44">
      <!-- rdkit_frags -->
      <g transform="translate(574.996334 426.895073) scale(0.1 -0.1)">
       <use xlink:href="#ArialMT-72"/>
       <use xlink:href="#ArialMT-64" transform="translate(33.300781 0)"/>
       <use xlink:href="#ArialMT-6b" transform="translate(88.916016 0)"/>
       <use xlink:href="#ArialMT-69" transform="translate(138.916016 0)"/>
       <use xlink:href="#ArialMT-74" transform="translate(161.132812 0)"/>
       <use xlink:href="#ArialMT-5f" transform="translate(188.916016 0)"/>
       <use xlink:href="#ArialMT-66" transform="translate(244.53125 0)"/>
       <use xlink:href="#ArialMT-72" transform="translate(272.314453 0)"/>
       <use xlink:href="#ArialMT-61" transform="translate(305.615234 0)"/>
       <use xlink:href="#ArialMT-67" transform="translate(361.230469 0)"/>
       <use xlink:href="#ArialMT-73" transform="translate(416.845703 0)"/>
      </g>
     </g>
    </g>
    <g id="xtick_16">
     <g id="line2d_63">
      <g>
       <use xlink:href="#mdb62badeb5" x="677.445493" y="412.615385" style="stroke: #000000; stroke-width: 0.8"/>
      </g>
     </g>
     <g id="text_45">
      <!-- hybrid -->
      <g transform="translate(663.828306 426.773197) scale(0.1 -0.1)">
       <use xlink:href="#ArialMT-68"/>
       <use xlink:href="#ArialMT-79" transform="translate(55.615234 0)"/>
       <use xlink:href="#ArialMT-62" transform="translate(105.615234 0)"/>
       <use xlink:href="#ArialMT-72" transform="translate(161.230469 0)"/>
       <use xlink:href="#ArialMT-69" transform="translate(194.53125 0)"/>
       <use xlink:href="#ArialMT-64" transform="translate(216.748047 0)"/>
      </g>
     </g>
    </g>
   </g>
   <g id="matplotlib.axis_8">
    <g id="ytick_24">
     <g id="line2d_64">
      <g>
       <use xlink:href="#mf53e77b1b8" x="400.565625" y="412.615385" style="stroke: #000000; stroke-width: 0.8"/>
      </g>
     </g>
     <g id="text_46">
      <!-- 0.0 -->
      <g transform="translate(379.665625 416.194291) scale(0.1 -0.1)">
       <use xlink:href="#ArialMT-30"/>
       <use xlink:href="#ArialMT-2e" transform="translate(55.615234 0)"/>
       <use xlink:href="#ArialMT-30" transform="translate(83.398438 0)"/>
      </g>
     </g>
    </g>
    <g id="ytick_25">
     <g id="line2d_65">
      <g>
       <use xlink:href="#mf53e77b1b8" x="400.565625" y="386.804873" style="stroke: #000000; stroke-width: 0.8"/>
      </g>
     </g>
     <g id="text_47">
      <!-- 0.1 -->
      <g transform="translate(379.665625 390.383779) scale(0.1 -0.1)">
       <use xlink:href="#ArialMT-30"/>
       <use xlink:href="#ArialMT-2e" transform="translate(55.615234 0)"/>
       <use xlink:href="#ArialMT-31" transform="translate(83.398438 0)"/>
      </g>
     </g>
    </g>
    <g id="ytick_26">
     <g id="line2d_66">
      <g>
       <use xlink:href="#mf53e77b1b8" x="400.565625" y="360.994361" style="stroke: #000000; stroke-width: 0.8"/>
      </g>
     </g>
     <g id="text_48">
      <!-- 0.2 -->
      <g transform="translate(379.665625 364.573268) scale(0.1 -0.1)">
       <use xlink:href="#ArialMT-30"/>
       <use xlink:href="#ArialMT-2e" transform="translate(55.615234 0)"/>
       <use xlink:href="#ArialMT-32" transform="translate(83.398438 0)"/>
      </g>
     </g>
    </g>
    <g id="ytick_27">
     <g id="line2d_67">
      <g>
       <use xlink:href="#mf53e77b1b8" x="400.565625" y="335.183849" style="stroke: #000000; stroke-width: 0.8"/>
      </g>
     </g>
     <g id="text_49">
      <!-- 0.3 -->
      <g transform="translate(379.665625 338.762756) scale(0.1 -0.1)">
       <use xlink:href="#ArialMT-30"/>
       <use xlink:href="#ArialMT-2e" transform="translate(55.615234 0)"/>
       <use xlink:href="#ArialMT-33" transform="translate(83.398438 0)"/>
      </g>
     </g>
    </g>
    <g id="ytick_28">
     <g id="line2d_68">
      <g>
       <use xlink:href="#mf53e77b1b8" x="400.565625" y="309.373338" style="stroke: #000000; stroke-width: 0.8"/>
      </g>
     </g>
     <g id="text_50">
      <!-- 0.4 -->
      <g transform="translate(379.665625 312.952244) scale(0.1 -0.1)">
       <use xlink:href="#ArialMT-30"/>
       <use xlink:href="#ArialMT-2e" transform="translate(55.615234 0)"/>
       <use xlink:href="#ArialMT-34" transform="translate(83.398438 0)"/>
      </g>
     </g>
    </g>
    <g id="ytick_29">
     <g id="line2d_69">
      <g>
       <use xlink:href="#mf53e77b1b8" x="400.565625" y="283.562826" style="stroke: #000000; stroke-width: 0.8"/>
      </g>
     </g>
     <g id="text_51">
      <!-- 0.5 -->
      <g transform="translate(379.665625 287.141732) scale(0.1 -0.1)">
       <use xlink:href="#ArialMT-30"/>
       <use xlink:href="#ArialMT-2e" transform="translate(55.615234 0)"/>
       <use xlink:href="#ArialMT-35" transform="translate(83.398438 0)"/>
      </g>
     </g>
    </g>
    <g id="ytick_30">
     <g id="line2d_70">
      <g>
       <use xlink:href="#mf53e77b1b8" x="400.565625" y="257.752314" style="stroke: #000000; stroke-width: 0.8"/>
      </g>
     </g>
     <g id="text_52">
      <!-- 0.6 -->
      <g transform="translate(379.665625 261.33122) scale(0.1 -0.1)">
       <use xlink:href="#ArialMT-30"/>
       <use xlink:href="#ArialMT-2e" transform="translate(55.615234 0)"/>
       <use xlink:href="#ArialMT-36" transform="translate(83.398438 0)"/>
      </g>
     </g>
    </g>
    <g id="text_53">
     <!-- mae -->
     <g transform="translate(373.678125 332.901406) rotate(-90) scale(0.1 -0.1)">
      <use xlink:href="#ArialMT-6d"/>
      <use xlink:href="#ArialMT-61" transform="translate(83.300781 0)"/>
      <use xlink:href="#ArialMT-65" transform="translate(138.916016 0)"/>
     </g>
    </g>
   </g>
   <g id="line2d_71">
    <path d="M 420.342758 272.30008 
L 428.253612 272.30008 
M 424.298185 272.30008 
L 424.298185 244.99629 
M 420.342758 244.99629 
L 428.253612 244.99629 
" clip-path="url(#pfff2d68634)" style="fill: none; stroke: #424242; stroke-width: 0.8; stroke-linecap: square"/>
   </g>
   <g id="line2d_72">
    <path d="M 499.451292 259.251885 
L 507.362146 259.251885 
M 503.406719 259.251885 
L 503.406719 242.253937 
M 499.451292 242.253937 
L 507.362146 242.253937 
" clip-path="url(#pfff2d68634)" style="fill: none; stroke: #424242; stroke-width: 0.8; stroke-linecap: square"/>
   </g>
   <g id="line2d_73">
    <path d="M 578.559826 272.981795 
L 586.470679 272.981795 
M 582.515253 272.981795 
L 582.515253 251.159843 
M 578.559826 251.159843 
L 586.470679 251.159843 
" clip-path="url(#pfff2d68634)" style="fill: none; stroke: #424242; stroke-width: 0.8; stroke-linecap: square"/>
   </g>
   <g id="line2d_74">
    <path d="M 657.66836 276.302041 
L 665.579213 276.302041 
M 661.623786 276.302041 
L 661.623786 252.449868 
M 657.66836 252.449868 
L 665.579213 252.449868 
" clip-path="url(#pfff2d68634)" style="fill: none; stroke: #424242; stroke-width: 0.8; stroke-linecap: square"/>
   </g>
   <g id="line2d_75">
    <path d="M 451.986172 299.209069 
L 459.897025 299.209069 
M 455.941599 299.209069 
L 455.941599 283.203842 
M 451.986172 283.203842 
L 459.897025 283.203842 
" clip-path="url(#pfff2d68634)" style="fill: none; stroke: #424242; stroke-width: 0.8; stroke-linecap: square"/>
   </g>
   <g id="line2d_76">
    <path d="M 531.094706 286.045442 
L 539.005559 286.045442 
M 535.050132 286.045442 
L 535.050132 266.339564 
M 531.094706 266.339564 
L 539.005559 266.339564 
" clip-path="url(#pfff2d68634)" style="fill: none; stroke: #424242; stroke-width: 0.8; stroke-linecap: square"/>
   </g>
   <g id="line2d_77">
    <path d="M 610.203239 296.061128 
L 618.114093 296.061128 
M 614.158666 296.061128 
L 614.158666 281.185456 
M 610.203239 281.185456 
L 618.114093 281.185456 
" clip-path="url(#pfff2d68634)" style="fill: none; stroke: #424242; stroke-width: 0.8; stroke-linecap: square"/>
   </g>
   <g id="line2d_78">
    <path d="M 689.311773 308.931958 
L 697.222627 308.931958 
M 693.2672 308.931958 
L 693.2672 295.445748 
M 689.311773 295.445748 
L 697.222627 295.445748 
" clip-path="url(#pfff2d68634)" style="fill: none; stroke: #424242; stroke-width: 0.8; stroke-linecap: square"/>
   </g>
   <g id="patch_58">
    <path d="M 400.565625 412.615385 
L 400.565625 233.735865 
" style="fill: none; stroke: #000000; stroke-width: 0.8; stroke-linejoin: miter; stroke-linecap: square"/>
   </g>
   <g id="patch_59">
    <path d="M 716.99976 412.615385 
L 716.99976 233.735865 
" style="fill: none; stroke: #000000; stroke-width: 0.8; stroke-linejoin: miter; stroke-linecap: square"/>
   </g>
   <g id="patch_60">
    <path d="M 400.565625 412.615385 
L 716.99976 412.615385 
" style="fill: none; stroke: #000000; stroke-width: 0.8; stroke-linejoin: miter; stroke-linecap: square"/>
   </g>
   <g id="patch_61">
    <path d="M 400.565625 233.735865 
L 716.99976 233.735865 
" style="fill: none; stroke: #000000; stroke-width: 0.8; stroke-linejoin: miter; stroke-linecap: square"/>
   </g>
   <g id="text_54">
    <!-- pIC50 SARS: CV MAE -->
    <g transform="translate(498.428317 227.735865) scale(0.12 -0.12)">
     <use xlink:href="#ArialMT-70"/>
     <use xlink:href="#ArialMT-49" transform="translate(55.615234 0)"/>
     <use xlink:href="#ArialMT-43" transform="translate(83.398438 0)"/>
     <use xlink:href="#ArialMT-35" transform="translate(155.615234 0)"/>
     <use xlink:href="#ArialMT-30" transform="translate(211.230469 0)"/>
     <use xlink:href="#ArialMT-20" transform="translate(266.845703 0)"/>
     <use xlink:href="#ArialMT-53" transform="translate(294.628906 0)"/>
     <use xlink:href="#ArialMT-41" transform="translate(361.328125 0)"/>
     <use xlink:href="#ArialMT-52" transform="translate(428.027344 0)"/>
     <use xlink:href="#ArialMT-53" transform="translate(500.244141 0)"/>
     <use xlink:href="#ArialMT-3a" transform="translate(566.943359 0)"/>
     <use xlink:href="#ArialMT-20" transform="translate(594.726562 0)"/>
     <use xlink:href="#ArialMT-43" transform="translate(622.509766 0)"/>
     <use xlink:href="#ArialMT-56" transform="translate(694.726562 0)"/>
     <use xlink:href="#ArialMT-20" transform="translate(761.425781 0)"/>
     <use xlink:href="#ArialMT-4d" transform="translate(789.208984 0)"/>
     <use xlink:href="#ArialMT-41" transform="translate(872.509766 0)"/>
     <use xlink:href="#ArialMT-45" transform="translate(939.208984 0)"/>
    </g>
   </g>
  </g>
  <g id="legend_1">
   <g id="patch_62">
    <path d="M 686 86.4 
L 753.021875 86.4 
Q 755.021875 86.4 755.021875 84.4 
L 755.021875 42.846875 
Q 755.021875 40.846875 753.021875 40.846875 
L 686 40.846875 
Q 684 40.846875 684 42.846875 
L 684 84.4 
Q 684 86.4 686 86.4 
z
" style="fill: #ffffff; opacity: 0.8; stroke: #cccccc; stroke-linejoin: miter"/>
   </g>
   <g id="text_55">
    <!-- Model -->
    <g transform="translate(705.89375 52.004687) scale(0.1 -0.1)">
     <defs>
      <path id="ArialMT-6c" d="M 409 0 
L 409 4581 
L 972 4581 
L 972 0 
L 409 0 
z
" transform="scale(0.015625)"/>
     </defs>
     <use xlink:href="#ArialMT-4d"/>
     <use xlink:href="#ArialMT-6f" transform="translate(83.300781 0)"/>
     <use xlink:href="#ArialMT-64" transform="translate(138.916016 0)"/>
     <use xlink:href="#ArialMT-65" transform="translate(194.53125 0)"/>
     <use xlink:href="#ArialMT-6c" transform="translate(250.146484 0)"/>
    </g>
   </g>
   <g id="patch_63">
    <path d="M 688 66.15 
L 708 66.15 
L 708 59.15 
L 688 59.15 
z
" style="fill: #7936bd; opacity: 0.8; stroke: #000000; stroke-linejoin: miter"/>
   </g>
   <g id="text_56">
    <!-- MLP -->
    <g transform="translate(716 66.15) scale(0.1 -0.1)">
     <defs>
      <path id="ArialMT-4c" d="M 469 0 
L 469 4581 
L 1075 4581 
L 1075 541 
L 3331 541 
L 3331 0 
L 469 0 
z
" transform="scale(0.015625)"/>
      <path id="ArialMT-50" d="M 494 0 
L 494 4581 
L 2222 4581 
Q 2678 4581 2919 4538 
Q 3256 4481 3484 4323 
Q 3713 4166 3852 3881 
Q 3991 3597 3991 3256 
Q 3991 2672 3619 2267 
Q 3247 1863 2275 1863 
L 1100 1863 
L 1100 0 
L 494 0 
z
M 1100 2403 
L 2284 2403 
Q 2872 2403 3119 2622 
Q 3366 2841 3366 3238 
Q 3366 3525 3220 3729 
Q 3075 3934 2838 4000 
Q 2684 4041 2272 4041 
L 1100 4041 
L 1100 2403 
z
" transform="scale(0.015625)"/>
     </defs>
     <use xlink:href="#ArialMT-4d"/>
     <use xlink:href="#ArialMT-4c" transform="translate(83.300781 0)"/>
     <use xlink:href="#ArialMT-50" transform="translate(138.916016 0)"/>
    </g>
   </g>
   <g id="patch_64">
    <path d="M 688 80.295312 
L 708 80.295312 
L 708 73.295312 
L 688 73.295312 
z
" style="fill: #c9941d; opacity: 0.8; stroke: #000000; stroke-linejoin: miter"/>
   </g>
   <g id="text_57">
    <!-- xgboost -->
    <g transform="translate(716 80.295312) scale(0.1 -0.1)">
     <defs>
      <path id="ArialMT-78" d="M 47 0 
L 1259 1725 
L 138 3319 
L 841 3319 
L 1350 2541 
Q 1494 2319 1581 2169 
Q 1719 2375 1834 2534 
L 2394 3319 
L 3066 3319 
L 1919 1756 
L 3153 0 
L 2463 0 
L 1781 1031 
L 1600 1309 
L 728 0 
L 47 0 
z
" transform="scale(0.015625)"/>
     </defs>
     <use xlink:href="#ArialMT-78"/>
     <use xlink:href="#ArialMT-67" transform="translate(50 0)"/>
     <use xlink:href="#ArialMT-62" transform="translate(105.615234 0)"/>
     <use xlink:href="#ArialMT-6f" transform="translate(161.230469 0)"/>
     <use xlink:href="#ArialMT-6f" transform="translate(216.845703 0)"/>
     <use xlink:href="#ArialMT-73" transform="translate(272.460938 0)"/>
     <use xlink:href="#ArialMT-74" transform="translate(322.460938 0)"/>
    </g>
   </g>
  </g>
 </g>
 <defs>
  <clipPath id="p32b1eadd0f">
   <rect x="42.886178" y="17.735865" width="316.434135" height="178.87952"/>
  </clipPath>
  <clipPath id="paf381995f5">
   <rect x="400.565625" y="17.735865" width="316.434135" height="178.87952"/>
  </clipPath>
  <clipPath id="pf69700ed09">
   <rect x="42.886178" y="233.735865" width="316.434135" height="178.87952"/>
  </clipPath>
  <clipPath id="pfff2d68634">
   <rect x="400.565625" y="233.735865" width="316.434135" height="178.87952"/>
  </clipPath>
 </defs>
</svg>
